<?xml version="1.0" encoding="UTF-8" standalone="no"?>
<!-- Created with Inkscape (http://www.inkscape.org/) -->

<svg
   width="147mm"
   height="135mm"
   viewBox="0 0 147 135"
   version="1.1"
   id="svg5"
   inkscape:version="1.2.1 (9c6d41e410, 2022-07-14)"
   sodipodi:docname="ryba.svg"
   inkscape:export-filename="ryba.png"
   inkscape:export-xdpi="96"
   inkscape:export-ydpi="96"
   xmlns:inkscape="http://www.inkscape.org/namespaces/inkscape"
   xmlns:sodipodi="http://sodipodi.sourceforge.net/DTD/sodipodi-0.dtd"
   xmlns:xlink="http://www.w3.org/1999/xlink"
   xmlns="http://www.w3.org/2000/svg"
   xmlns:svg="http://www.w3.org/2000/svg">
  <sodipodi:namedview
     id="namedview7"
     pagecolor="#ffffff"
     bordercolor="#000000"
     borderopacity="0.25"
     inkscape:showpageshadow="2"
     inkscape:pageopacity="0.0"
     inkscape:pagecheckerboard="0"
     inkscape:deskcolor="#d1d1d1"
     inkscape:document-units="mm"
     showgrid="false"
     inkscape:zoom="1.4912879"
     inkscape:cx="211.89738"
     inkscape:cy="265.54229"
     inkscape:window-width="1920"
     inkscape:window-height="1017"
     inkscape:window-x="-8"
     inkscape:window-y="-8"
     inkscape:window-maximized="1"
     inkscape:current-layer="layer1" />
  <defs
     id="defs2">
    <linearGradient
       inkscape:collect="always"
       id="linearGradient84254">
      <stop
         style="stop-color:#ffaaaa;stop-opacity:1;"
         offset="0"
         id="stop84250" />
      <stop
         style="stop-color:#ffaaaa;stop-opacity:0;"
         offset="1"
         id="stop84252" />
    </linearGradient>
    <linearGradient
       inkscape:collect="always"
       id="linearGradient81320">
      <stop
         style="stop-color:#ff265e;stop-opacity:1;"
         offset="0"
         id="stop81316" />
      <stop
         style="stop-color:#ff2626;stop-opacity:0;"
         offset="1"
         id="stop81318" />
    </linearGradient>
    <linearGradient
       inkscape:collect="always"
       id="linearGradient72568">
      <stop
         style="stop-color:#f88100;stop-opacity:0;"
         offset="0"
         id="stop72566" />
      <stop
         style="stop-color:#c49900;stop-opacity:1;"
         offset="1"
         id="stop72564" />
    </linearGradient>
    <linearGradient
       inkscape:collect="always"
       id="linearGradient66519">
      <stop
         style="stop-color:#ffd5d5;stop-opacity:1;"
         offset="0"
         id="stop66515" />
      <stop
         style="stop-color:#da3030;stop-opacity:0;"
         offset="1"
         id="stop66517" />
    </linearGradient>
    <linearGradient
       inkscape:collect="always"
       id="linearGradient66302">
      <stop
         style="stop-color:#a02c2c;stop-opacity:1;"
         offset="0"
         id="stop66298" />
      <stop
         style="stop-color:#c05555;stop-opacity:0;"
         offset="1"
         id="stop66300" />
    </linearGradient>
    <linearGradient
       inkscape:collect="always"
       id="linearGradient66223">
      <stop
         style="stop-color:#ea2525;stop-opacity:1;"
         offset="0"
         id="stop66219" />
      <stop
         style="stop-color:#ecd5d5;stop-opacity:0.6630435;"
         offset="1"
         id="stop66221" />
    </linearGradient>
    <linearGradient
       inkscape:collect="always"
       id="linearGradient66213">
      <stop
         style="stop-color:#bd2f2f;stop-opacity:1;"
         offset="0"
         id="stop66209" />
      <stop
         style="stop-color:#bd8282;stop-opacity:0;"
         offset="1"
         id="stop66211" />
    </linearGradient>
    <linearGradient
       inkscape:collect="always"
       id="linearGradient65858">
      <stop
         style="stop-color:#e77979;stop-opacity:1;"
         offset="0"
         id="stop65854" />
      <stop
         style="stop-color:#f7abab;stop-opacity:0;"
         offset="1"
         id="stop65856" />
    </linearGradient>
    <linearGradient
       inkscape:collect="always"
       id="linearGradient65848">
      <stop
         style="stop-color:#c53f3f;stop-opacity:1;"
         offset="0"
         id="stop65844" />
      <stop
         style="stop-color:#f7abab;stop-opacity:0;"
         offset="1"
         id="stop65846" />
    </linearGradient>
    <linearGradient
       inkscape:collect="always"
       id="linearGradient61525">
      <stop
         style="stop-color:#33500f;stop-opacity:1;"
         offset="0"
         id="stop61521" />
      <stop
         style="stop-color:#84b748;stop-opacity:0;"
         offset="1"
         id="stop61523" />
    </linearGradient>
    <linearGradient
       inkscape:collect="always"
       id="linearGradient61367">
      <stop
         style="stop-color:#23e5d4;stop-opacity:1;"
         offset="0"
         id="stop61363" />
      <stop
         style="stop-color:#5523f9;stop-opacity:0.73076922;"
         offset="1"
         id="stop61365" />
    </linearGradient>
    <linearGradient
       inkscape:collect="always"
       id="linearGradient61357">
      <stop
         style="stop-color:#e71824;stop-opacity:1;"
         offset="0"
         id="stop61353" />
      <stop
         style="stop-color:#000000;stop-opacity:0;"
         offset="1"
         id="stop61355" />
    </linearGradient>
    <linearGradient
       inkscape:collect="always"
       id="linearGradient61347">
      <stop
         style="stop-color:#8bff00;stop-opacity:1;"
         offset="0"
         id="stop61343" />
      <stop
         style="stop-color:#8bff00;stop-opacity:0;"
         offset="1"
         id="stop61345" />
    </linearGradient>
    <linearGradient
       inkscape:collect="always"
       id="linearGradient61337">
      <stop
         style="stop-color:#8bff00;stop-opacity:1;"
         offset="0"
         id="stop61333" />
      <stop
         style="stop-color:#8bff00;stop-opacity:0;"
         offset="1"
         id="stop61335" />
    </linearGradient>
    <linearGradient
       inkscape:collect="always"
       id="linearGradient61327">
      <stop
         style="stop-color:#8bff00;stop-opacity:1;"
         offset="0"
         id="stop61323" />
      <stop
         style="stop-color:#ff00a9;stop-opacity:0;"
         offset="1"
         id="stop61325" />
    </linearGradient>
    <linearGradient
       inkscape:collect="always"
       id="linearGradient61096">
      <stop
         style="stop-color:#004980;stop-opacity:1;"
         offset="0"
         id="stop61092" />
      <stop
         style="stop-color:#018000;stop-opacity:0;"
         offset="1"
         id="stop61094" />
    </linearGradient>
    <linearGradient
       inkscape:collect="always"
       id="linearGradient61086">
      <stop
         style="stop-color:#059c98;stop-opacity:0.90760875;"
         offset="0"
         id="stop61084" />
      <stop
         style="stop-color:#002fba;stop-opacity:1;"
         offset="1"
         id="stop61082" />
    </linearGradient>
    <linearGradient
       inkscape:collect="always"
       id="linearGradient57199">
      <stop
         style="stop-color:#a8cb25;stop-opacity:1;"
         offset="0"
         id="stop57195" />
      <stop
         style="stop-color:#c03fa0;stop-opacity:0.79326922;"
         offset="1"
         id="stop57197" />
    </linearGradient>
    <linearGradient
       inkscape:collect="always"
       xlink:href="#linearGradient61327"
       id="linearGradient61329"
       x1="293.08102"
       y1="205.51685"
       x2="314.90948"
       y2="205.51685"
       gradientUnits="userSpaceOnUse" />
    <linearGradient
       inkscape:collect="always"
       xlink:href="#linearGradient61337"
       id="linearGradient61339"
       x1="312.27524"
       y1="201.67767"
       x2="344.62247"
       y2="201.67767"
       gradientUnits="userSpaceOnUse" />
    <linearGradient
       inkscape:collect="always"
       xlink:href="#linearGradient61347"
       id="linearGradient61349"
       x1="332.2551"
       y1="201.91702"
       x2="377.19305"
       y2="201.91702"
       gradientUnits="userSpaceOnUse" />
    <linearGradient
       inkscape:collect="always"
       xlink:href="#linearGradient61525"
       id="linearGradient61527"
       x1="302.63232"
       y1="209.10338"
       x2="303.22433"
       y2="209.10338"
       gradientUnits="userSpaceOnUse" />
    <linearGradient
       inkscape:collect="always"
       xlink:href="#linearGradient65848"
       id="linearGradient65850"
       x1="42.9725"
       y1="320.61746"
       x2="87.28009"
       y2="320.61746"
       gradientUnits="userSpaceOnUse" />
    <linearGradient
       inkscape:collect="always"
       xlink:href="#linearGradient65858"
       id="linearGradient65860"
       x1="66.966843"
       y1="255.54088"
       x2="116.67746"
       y2="255.54088"
       gradientUnits="userSpaceOnUse" />
    <linearGradient
       inkscape:collect="always"
       xlink:href="#linearGradient66213"
       id="linearGradient66215"
       x1="43.616943"
       y1="182.71629"
       x2="101.87618"
       y2="182.71629"
       gradientUnits="userSpaceOnUse" />
    <linearGradient
       inkscape:collect="always"
       xlink:href="#linearGradient66223"
       id="linearGradient66225"
       x1="92.630737"
       y1="125.45933"
       x2="150.08144"
       y2="125.45933"
       gradientUnits="userSpaceOnUse" />
    <linearGradient
       inkscape:collect="always"
       xlink:href="#linearGradient66302"
       id="linearGradient66304"
       x1="30.716316"
       y1="84.508102"
       x2="88.636986"
       y2="84.508102"
       gradientUnits="userSpaceOnUse" />
    <linearGradient
       inkscape:collect="always"
       xlink:href="#linearGradient66519"
       id="linearGradient66521"
       x1="106.0639"
       y1="51.660461"
       x2="172.89108"
       y2="51.660461"
       gradientUnits="userSpaceOnUse" />
    <radialGradient
       inkscape:collect="always"
       xlink:href="#linearGradient57199"
       id="radialGradient69614"
       cx="378.89874"
       cy="334.63803"
       fx="378.89874"
       fy="334.63803"
       r="105.57854"
       gradientTransform="matrix(1,0,0,1.1254795,0,-41.9902)"
       gradientUnits="userSpaceOnUse" />
    <radialGradient
       inkscape:collect="always"
       xlink:href="#linearGradient61086"
       id="radialGradient76942"
       cx="358.8277"
       cy="449.2218"
       fx="358.8277"
       fy="449.2218"
       r="30.515942"
       gradientTransform="matrix(1,0,0,1.4595002,0,-206.41749)"
       gradientUnits="userSpaceOnUse" />
    <linearGradient
       inkscape:collect="always"
       xlink:href="#linearGradient61096"
       id="linearGradient76948"
       x1="316.99786"
       y1="462.65576"
       x2="337.47269"
       y2="462.65576"
       gradientUnits="userSpaceOnUse" />
    <radialGradient
       inkscape:collect="always"
       xlink:href="#linearGradient72568"
       id="radialGradient76950"
       cx="208.70865"
       cy="334.52982"
       fx="208.70865"
       fy="334.52982"
       r="114.80888"
       gradientTransform="matrix(1,0,0,1.031953,0,-10.689236)"
       gradientUnits="userSpaceOnUse"
       spreadMethod="reflect" />
    <radialGradient
       inkscape:collect="always"
       xlink:href="#linearGradient61367"
       id="radialGradient80582"
       cx="354.47147"
       cy="201.9926"
       fx="354.47147"
       fy="201.9926"
       r="22.228966"
       gradientTransform="matrix(1,0,0,0.85675546,0,28.934338)"
       gradientUnits="userSpaceOnUse" />
    <linearGradient
       inkscape:collect="always"
       xlink:href="#linearGradient61357"
       id="linearGradient80586"
       x1="352.66315"
       y1="202.03838"
       x2="409.91"
       y2="202.03838"
       gradientUnits="userSpaceOnUse" />
    <linearGradient
       inkscape:collect="always"
       xlink:href="#linearGradient81320"
       id="linearGradient81326"
       x1="478.39688"
       y1="317.96341"
       x2="539.81885"
       y2="317.96341"
       gradientUnits="userSpaceOnUse" />
    <linearGradient
       inkscape:collect="always"
       xlink:href="#linearGradient84254"
       id="linearGradient84256"
       x1="312.27377"
       y1="201.6769"
       x2="344.62248"
       y2="201.6769"
       gradientUnits="userSpaceOnUse" />
  </defs>
  <g
     inkscape:label="Warstwa 1"
     inkscape:groupmode="layer"
     id="layer1">
    <path
       style="fill:#000000;stroke-width:0.499999"
       id="path2361"
       d="m 71.460809,57.074908 c 1.9133,2.018136 3.649715,4.193979 5.173792,6.522328 0.608163,0.929095 1.167524,1.889239 1.751285,2.83386 1.624936,3.040898 2.375006,4.223329 3.627631,7.527316 1.679524,4.430009 2.811258,9.098502 3.374659,13.800812 0.16777,1.40027 0.216445,2.812254 0.324668,4.218382 -0.04252,1.313566 -0.01468,2.631299 -0.127558,3.940696 -0.28938,3.356538 -1.084683,6.709038 -2.299732,9.849558 -0.853533,2.20611 -1.254128,2.7766 -2.374321,4.80854 -2.11783,3.51506 -4.942406,6.51636 -7.879712,9.35301 -0.101727,0.0982 0.03721,0.24211 0.138938,0.14387 v 0 c 2.951509,-2.8507 5.789022,-5.86727 7.915934,-9.40035 1.127241,-2.04614 1.529889,-2.61972 2.388626,-4.84102 1.221298,-3.15913 2.020121,-6.530992 2.310162,-9.907168 0.113115,-1.316662 0.08471,-2.641666 0.127071,-3.962501 -0.108857,-1.411504 -0.15795,-2.828898 -0.326572,-4.234518 -0.566113,-4.719093 -1.702636,-9.403726 -3.388879,-13.849347 -1.257397,-3.315018 -2.010153,-4.501597 -3.640788,-7.552428 -0.585877,-0.947836 -1.147281,-1.911242 -1.757635,-2.843504 -1.528895,-2.335247 -3.270684,-4.51766 -5.18958,-6.542071 -0.09513,-0.104643 -0.243117,0.02989 -0.147989,0.134535 z" />
    <path
       style="fill:#000000;stroke-width:0.499999"
       id="path2375"
       d="m 72.989865,119.95989 c -0.256143,-0.036 -0.561652,-0.0774 -0.80853,-0.12099 -1.312378,-0.23156 -2.622698,-0.45328 -3.941654,-0.64699 -3.639047,-0.4881 -7.235253,-1.23329 -10.817955,-2.02615 -4.447675,-1.01194 -8.868558,-2.20061 -13.107169,-3.9041 -0.974498,-0.39165 -1.929543,-0.83006 -2.894315,-1.24508 -0.961487,-0.45553 -1.929542,-0.89743 -2.884458,-1.36658 -3.161204,-1.55307 -6.507781,-3.29606 -9.26425,-5.51138 -0.514985,-0.41388 -0.985393,-0.88036 -1.47809,-1.32054 -0.379735,-0.43883 -0.792797,-0.85089 -1.139203,-1.31648 -0.888348,-1.19397 -1.51631,-2.59489 -1.754961,-4.066677 -0.195004,-1.202605 -0.10743,-1.795153 -0.05805,-3.014779 0.316635,-3.009564 0.986052,-6.014992 2.250942,-8.777946 0.274865,-0.6004 0.602155,-1.17539 0.903232,-1.763085 2.65121,-4.626129 6.612432,-7.901781 10.697938,-11.197826 0.563644,-0.433324 1.127289,-0.866645 1.690936,-1.299969 0.112114,-0.0862 -0.0098,-0.244753 -0.121902,-0.158557 v 0 c -0.564872,0.43429 -1.129744,0.86858 -1.694616,1.302869 -0.65835,0.531175 -1.325341,1.051814 -1.975049,1.593522 -3.370789,2.810463 -6.584283,5.815105 -8.775327,9.668809 -0.303575,0.593164 -0.63355,1.173546 -0.910722,1.779498 -1.273521,2.78416 -1.947761,5.812247 -2.265272,8.84469 -0.0492,1.24492 -0.137778,1.842508 0.06373,3.070746 0.246529,1.502677 0.889469,2.931215 1.797948,4.149655 0.351967,0.47205 0.771443,0.8898 1.157163,1.3347 0.497758,0.44428 0.973122,0.915 1.493274,1.33283 2.767018,2.22271 6.123808,3.97202 9.296654,5.53067 0.957098,0.47017 1.927373,0.91303 2.891057,1.36955 0.967806,0.41625 1.92586,0.85594 2.903419,1.24874 4.247345,1.70667 8.677126,2.89806 13.133879,3.91199 3.587395,0.79386 7.188311,1.53997 10.83211,2.02876 1.318414,0.1936 2.628157,0.41541 3.940016,0.64674 0.301705,0.0532 0.54314,0.0834 0.839227,0.12336 0.141422,0 0.141422,-0.2 0,-0.2 z" />
    <ellipse
       style="fill:#ffffff;stroke:#000000;stroke-width:0.2;stroke-dasharray:none;stroke-opacity:1"
       id="path2431"
       cx="48.801773"
       cy="68.121758"
       rx="8.9072647"
       ry="9.4090824" />
    <ellipse
       style="fill:#000000;stroke:#000000;stroke-width:0.2;stroke-dasharray:none;stroke-opacity:1"
       id="path3321"
       cx="50.683586"
       cy="71.822662"
       rx="2.8227246"
       ry="2.8854518" />
    <path
       style="fill:#000000;stroke:none;stroke-width:0.2;stroke-dasharray:none;stroke-opacity:1"
       id="path6242"
       d="m 71.42209,56.926143 c -0.527085,0.169969 -1.062564,0.311738 -1.594768,0.464455 -0.955734,0.293013 -1.902696,0.615355 -2.841744,0.958043 -1.023964,0.385964 -2.038276,0.797147 -3.055366,1.200822 -0.772541,0.317503 -1.554279,0.610762 -2.337747,0.899885 -0.64814,0.230349 -1.286352,0.48708 -1.931403,0.725638 -0.484807,0.179568 -0.966325,0.367724 -1.450303,0.549418 -0.280773,0.09899 -0.555276,0.214408 -0.832961,0.321186 -0.178576,0.08159 -0.362144,0.150879 -0.539462,0.235267 -0.140197,0.06621 -0.275011,0.140957 -0.410644,0.215636 -0.08769,0.04356 -0.176191,0.08512 -0.263686,0.129027 -0.126381,0.06347 -0.03662,0.242196 0.08976,0.178726 v 0 c 0.08982,-0.04514 0.180753,-0.08772 0.270695,-0.132723 0.131895,-0.07318 0.263308,-0.145593 0.399889,-0.210103 0.172632,-0.08231 0.351607,-0.149352 0.525354,-0.229201 0.277029,-0.106923 0.551219,-0.221504 0.83136,-0.320577 0.483656,-0.181623 0.964888,-0.369602 1.44938,-0.549074 0.644993,-0.238575 1.283184,-0.495221 1.931265,-0.725588 0.78499,-0.289684 1.568236,-0.583531 2.342287,-0.901623 1.01536,-0.402992 2.027952,-0.813462 3.050151,-1.198838 0.934623,-0.341119 1.877148,-0.661897 2.828346,-0.953677 0.531654,-0.15257 1.066615,-0.294114 1.593128,-0.463995 0.136263,-0.03785 0.08273,-0.230555 -0.05353,-0.192704 z" />
    <path
       style="fill:#000000;stroke:none;stroke-width:0.2;stroke-dasharray:none;stroke-opacity:1"
       id="path7700"
       d="m 41.286935,62.617204 c -0.351999,0.223324 -0.686229,0.472516 -1.012791,0.731192 -0.425997,0.313494 -0.794911,0.691578 -1.165402,1.066699 -0.478459,0.458369 -0.888854,0.977821 -1.28968,1.503341 -0.455811,0.592749 -0.842928,1.232197 -1.213498,1.880254 -0.312362,0.563843 -0.571262,1.152229 -0.73987,1.774452 -0.14215,0.580469 -0.177192,1.179385 -0.201798,1.774327 -0.02103,0.552998 0.01791,1.106311 0.06976,1.656596 0.05749,0.461373 0.127326,0.921105 0.197263,1.38072 0.05874,0.305041 0.119938,0.610196 0.192884,0.912196 0.03328,0.137449 0.227666,0.09038 0.194384,-0.04707 v 0 c -0.07194,-0.296304 -0.131315,-0.595971 -0.189545,-0.89522 -0.06941,-0.455856 -0.138543,-0.91185 -0.195868,-1.36941 -0.05113,-0.541292 -0.08956,-1.085593 -0.06905,-1.629563 0.02392,-0.580117 0.05734,-1.164225 0.195049,-1.730425 0.163147,-0.606034 0.417176,-1.178113 0.720412,-1.727332 0.366162,-0.640424 0.748462,-1.272485 1.198904,-1.858238 0.395639,-0.518776 0.800455,-1.031785 1.272953,-1.48409 0.364799,-0.369377 0.72762,-0.742074 1.147323,-1.050491 0.320614,-0.254215 0.648954,-0.498848 0.994569,-0.718341 0.119925,-0.07495 0.01392,-0.244552 -0.106,-0.169598 z" />
    <path
       style="fill:#000000;stroke:none;stroke-width:0.2;stroke-dasharray:none;stroke-opacity:1"
       id="path8428"
       d="m 25.157046,98.212901 c 3.354091,-0.03468 6.702846,0.221514 10.047092,0.445947 3.886266,0.285105 7.777175,0.501076 11.674705,0.469133 1.758857,-0.06855 3.567475,-0.256077 5.200509,-0.966065 0.220803,-0.096 0.427861,-0.220938 0.641792,-0.331407 0.203923,-0.171056 0.424418,-0.324104 0.611767,-0.513165 0.868109,-0.876046 1.426964,-2.071766 1.787922,-3.235782 0.09673,-0.311952 0.164587,-0.632137 0.24688,-0.948206 0.333645,-1.505551 0.406069,-3.064158 0.03318,-4.570717 -0.06706,-0.270917 -0.164589,-0.533368 -0.246882,-0.800052 -0.455811,-1.182267 -1.09024,-2.298525 -1.836934,-3.321272 -0.08344,-0.114187 -0.244919,0.0038 -0.161483,0.117996 v 0 c 0.734497,1.004292 1.357104,2.101919 1.807353,3.262392 0.0805,0.259474 0.175927,0.514784 0.241491,0.778428 0.367419,1.477452 0.296418,3.006024 -0.0303,4.482917 -0.08047,0.310174 -0.146788,0.624366 -0.241401,0.930524 -0.349824,1.13202 -0.889865,2.294697 -1.72884,3.150941 -0.175948,0.17957 -0.383143,0.325594 -0.574717,0.488389 -0.206272,0.107096 -0.40576,0.22842 -0.618816,0.321286 -1.611341,0.702345 -3.397324,0.885577 -5.13317,0.9538 -3.892513,0.03206 -7.778404,-0.1841 -11.659672,-0.468691 -3.348704,-0.224724 -6.701919,-0.481108 -10.060482,-0.446395 -0.141422,0 -0.141422,0.199999 0,0.199999 z" />
    <path
       style="fill:#000000;stroke:none;stroke-width:0.2;stroke-dasharray:none;stroke-opacity:1"
       id="path17906"
       d="m 71.644083,57.181765 c 2.135754,-0.0099 4.266438,-0.193209 6.39894,-0.298987 3.438509,-0.05348 6.877145,0.338574 10.255017,0.964443 0.707356,0.131064 1.409602,0.288349 2.114405,0.43252 3.237714,0.734153 6.390428,1.94019 9.154829,3.802549 0.448506,0.30216 0.868536,0.644586 1.302806,0.96688 2.00447,1.651027 3.70149,3.624326 5.51476,5.472515 0.3556,0.362445 0.72043,0.715716 1.08064,1.073576 0.3898,0.363535 0.77222,0.735131 1.16939,1.090599 1.71572,1.535589 3.59924,3.078213 5.50795,4.365789 0.49504,0.333941 1.00868,0.639432 1.51302,0.959149 1.95468,1.165461 4.04014,2.100876 6.1866,2.851949 0.76655,0.268227 1.43344,0.462987 2.20096,0.695574 0.13535,0.04101 0.19335,-0.150397 0.058,-0.191408 v 0 c -0.7625,-0.231031 -1.42829,-0.425481 -2.18951,-0.691718 -2.13333,-0.746144 -4.20613,-1.67544 -6.14898,-2.833325 -0.50117,-0.31758 -1.01162,-0.620977 -1.50352,-0.952736 -1.90179,-1.282642 -3.77862,-2.819738 -5.48812,-4.349541 -0.39562,-0.354036 -0.77656,-0.724146 -1.16484,-1.086218 -0.359,-0.356629 -0.72262,-0.70867 -1.07701,-1.069885 -1.82118,-1.856239 -3.52557,-3.838273 -5.54018,-5.494951 -0.4391,-0.325556 -0.86385,-0.671417 -1.317292,-0.976669 -2.784377,-1.874399 -5.958935,-3.089029 -9.21943,-3.828071 -0.707199,-0.144619 -1.411838,-0.302385 -2.121601,-0.433856 -3.391977,-0.628301 -6.84498,-1.021371 -10.297803,-0.96692 -2.1292,0.10563 -4.256592,0.288562 -6.389031,0.298741 -0.141422,0 -0.141422,0.200001 0,0.200001 z" />
    <path
       id="path17908"
       style="fill:#000000;stroke:none;stroke-width:0.2;stroke-dasharray:none;stroke-opacity:1"
       d="m 123.62811,89.053479 c -1.98599,0.342053 -3.98169,0.640357 -5.94795,1.085205 -0.50759,0.13875 -1.02159,0.256116 -1.52291,0.415995 -2.18601,0.697312 -4.23194,1.792964 -6.0079,3.244764 -0.33877,0.300278 -0.68825,0.588914 -1.01648,0.90072 -2.08993,1.985604 -3.80428,4.325594 -5.62084,6.551537 -2.52855,3.15857 -5.098456,6.29391 -8.020184,9.1028 -0.497705,0.46383 -0.868657,0.81436 -1.236617,1.15342 0.0036,0.009 0.007,0.0182 0.01033,0.0274 0.0075,0.0202 0.01502,0.0407 0.02222,0.061 0.0087,0.0251 0.01585,0.0505 0.02325,0.076 0.0042,0.0147 0.0086,0.0292 0.01292,0.0439 0.388708,-0.35678 0.777389,-0.72442 1.304313,-1.21543 2.929021,-2.81572 5.505188,-5.95821 8.039818,-9.12399 1.81254,-2.220344 3.52163,-4.555571 5.60689,-6.536037 0.32506,-0.308681 0.67111,-0.594685 1.00666,-0.891936 1.75731,-1.435417 3.78228,-2.517561 5.94486,-3.206522 0.49587,-0.157986 1.00429,-0.27384 1.50637,-0.410828 1.96019,-0.442597 3.94914,-0.740105 5.92883,-1.081071 0.13937,-0.024 0.10607,-0.220893 -0.0336,-0.196887 z M 92.051229,113.63286 c -0.01674,0.0126 -0.03391,0.0246 -0.05064,0.0372 v 5.2e-4 c -2.6e-5,3.6e-4 2.3e-5,0.001 0,0.001 0.0168,-0.013 0.03387,-0.0255 0.05064,-0.0388 z m -5.334558,3.23856 c -0.428618,0.21556 -0.853781,0.43866 -1.28881,0.64079 -2.131874,0.99043 -4.377567,1.73725 -6.688481,2.17247 -1.587071,0.23902 -3.182441,0.45361 -4.791956,0.4005 -0.14142,0 -0.14142,0.19998 0,0.19998 1.619482,0.0531 3.225026,-0.16269 4.821928,-0.40307 2.327946,-0.43767 4.589991,-1.18909 6.737573,-2.18643 0.410015,-0.1904 0.811398,-0.39873 1.214913,-0.60255 2.6e-5,-0.004 1.01e-4,-0.009 0,-0.0129 -3e-4,-0.0117 7.21e-4,-0.0224 -0.0016,-0.0341 -6.13e-4,-0.0116 -10e-4,-0.0224 -0.0015,-0.0341 -4e-4,-0.0133 6.49e-4,-0.0264 -0.0016,-0.0398 -4.99e-4,-0.0129 -6.16e-4,-0.0275 -5.16e-4,-0.0403 v -0.0269 -0.0243 z" />
    <path
       style="fill:#000000;stroke:none;stroke-width:0.2;stroke-dasharray:none;stroke-opacity:1"
       id="path19366"
       d="m 123.74308,89.233091 c 0.22626,-0.06135 0.45942,-0.09298 0.69202,-0.118653 0.31123,-0.02524 0.62076,-0.06718 0.93093,-0.102872 0.38576,-0.03603 0.77278,-0.0577 1.15934,-0.08406 0.26872,-0.01209 0.53685,-0.02585 0.80484,-0.04887 0.15661,-0.02453 0.34324,0.01124 0.48667,-0.07302 0.0295,-0.01736 0.0533,-0.04312 0.0799,-0.06467 0.0192,-0.0332 0.043,-0.06417 0.0577,-0.0996 0.0532,-0.127987 0.0545,-0.283757 0.0603,-0.419166 0.006,-0.139031 0.006,-0.276804 0.008,-0.415983 0.007,-0.591937 0.0689,-1.181254 0.13081,-1.769422 0.0942,-0.798613 0.15933,-1.60033 0.22295,-2.401859 0.0476,-0.635174 0.0716,-1.271796 0.0835,-1.90855 0.006,-0.317768 0.0122,-0.636667 0.041,-0.953363 0.004,-0.05822 0.0154,-0.136353 -0.008,-0.193416 -0.0762,-0.183874 -0.29175,-0.210608 -0.46086,-0.252192 -0.3161,-0.08816 -0.63742,-0.149143 -0.96123,-0.199933 -0.30287,-0.04635 -0.60092,-0.118152 -0.90078,-0.180057 -0.23073,-0.05601 -0.4579,-0.122761 -0.68075,-0.204494 -0.2144,-0.08364 -0.43598,-0.145126 -0.65421,-0.217371 -0.17214,-0.06435 -0.35129,-0.109201 -0.53087,-0.14741 -0.0889,-0.02259 -0.0451,-0.01011 -0.13136,-0.03733 -0.13496,-0.04227 -0.19474,0.148587 -0.0598,0.190857 v 0 c 0.0995,0.03093 0.0496,0.01693 0.14962,0.04211 0.17243,0.03649 0.34439,0.07968 0.50956,0.141642 0.21624,0.07154 0.43575,0.132541 0.64821,0.215284 0.23213,0.08503 0.46876,0.154649 0.70916,0.212582 0.303,0.06249 0.60415,0.135086 0.91021,0.181766 0.31826,0.04992 0.63405,0.109781 0.9447,0.196622 0.0279,0.0068 0.29108,0.06058 0.31152,0.09323 0.0215,0.03431 0.008,0.112837 0.006,0.140097 -0.0288,0.321498 -0.0361,0.645062 -0.0418,0.96764 -0.0118,0.632719 -0.0356,1.265303 -0.0829,1.896456 -0.0635,0.799822 -0.12851,1.599832 -0.22248,2.396744 -0.0626,0.594363 -0.12451,1.189892 -0.13189,1.78806 -0.003,0.261683 0.0129,0.535688 -0.0609,0.789368 -0.007,0.0091 -0.0115,0.02059 -0.0208,0.02725 -0.0932,0.06684 -0.31661,0.03828 -0.42806,0.05886 -0.26683,0.02294 -0.53378,0.03648 -0.80132,0.0486 -0.38966,0.02657 -0.77978,0.04837 -1.16861,0.08491 -0.30989,0.03567 -0.61912,0.07756 -0.93007,0.102775 -0.24458,0.02716 -0.48973,0.06063 -0.72748,0.125873 -0.13546,0.04064 -0.078,0.232203 0.0575,0.191566 z" />
    <path
       style="fill:#000000;stroke:none;stroke-width:0.2;stroke-dasharray:none;stroke-opacity:1"
       id="path21552"
       d="m 126.354,79.733583 c 0.56299,-0.909121 0.94431,-1.918821 1.28951,-2.926431 0.37535,-1.283171 0.58407,-2.623847 0.57591,-3.962842 -0.002,-0.29345 -0.0241,-0.586417 -0.0362,-0.879626 -0.0411,-0.297024 -0.0711,-0.595791 -0.1233,-0.891069 -0.12445,-0.704231 -0.26668,-1.192141 -0.45266,-1.885508 -0.28585,-1.065686 -0.57982,-2.125996 -0.83991,-3.198381 -0.34478,-1.678554 -0.74276,-3.394766 -0.62389,-5.121921 0.0216,-0.313692 0.0772,-0.624115 0.11575,-0.936172 0.39223,-1.947778 1.46848,-3.625001 2.74356,-5.11805 0.33476,-0.391978 0.69797,-0.758727 1.04696,-1.138089 1.48373,-1.503331 3.20364,-2.745915 5.01177,-3.828352 0.98097,-0.587264 1.65571,-0.926796 2.6637,-1.459383 1.68388,-0.862486 3.4591,-1.521725 5.22796,-2.183778 0.13245,-0.04957 0.0623,-0.236882 -0.0701,-0.18731 v 0 c -1.77683,0.665073 -3.55994,1.327603 -5.25129,2.194256 -1.01393,0.535805 -1.68996,0.875961 -2.67691,1.467019 -1.82311,1.091822 -3.55674,2.345682 -5.05234,3.862171 -0.3523,0.383254 -0.71899,0.753756 -1.05689,1.14976 -1.29839,1.521664 -2.38928,3.232385 -2.78492,5.217337 -0.0391,0.319241 -0.0954,0.636839 -0.11722,0.957723 -0.11841,1.744099 0.28026,3.476958 0.6295,5.171937 0.26052,1.073759 0.55462,2.135508 0.84097,3.202541 0.18403,0.685758 0.32423,1.165757 0.44788,1.861714 0.0513,0.288896 0.081,0.581218 0.12156,0.871826 0.012,0.288499 0.0342,0.576752 0.0361,0.865494 0.009,1.31893 -0.19649,2.639716 -0.56522,3.903917 -0.34075,0.995801 -0.7174,1.993765 -1.27393,2.891991 -0.0702,0.122788 0.10348,0.222014 0.17364,0.09923 z" />
    <path
       style="fill:#000000;stroke:none;stroke-width:0.2;stroke-dasharray:none;stroke-opacity:1"
       id="path21554"
       d="m 126.50741,88.887042 c 0.72433,0.669129 1.24625,1.495809 1.71977,2.351112 0.35804,0.729273 0.67937,1.483214 0.89113,2.269392 0.1293,0.480038 0.14274,0.635177 0.22427,1.125082 0.16883,1.308867 -0.15033,2.606397 -0.36517,3.890476 -0.25704,1.513036 -0.49694,3.027386 -0.59662,4.559656 -0.0747,1.60872 0.12483,3.2206 0.74194,4.71784 0.15605,0.37862 0.35146,0.7398 0.52719,1.10969 0.23783,0.40206 0.46464,0.81086 0.7135,1.2062 0.41297,0.65604 1.47154,2.19895 1.9003,2.79654 0.71662,0.99878 1.51479,2.06323 2.32133,2.99211 0.39812,0.45849 0.82699,0.88934 1.24048,1.33402 1.41972,1.41883 3.05369,2.58666 4.83225,3.51015 0.7104,0.36887 0.94304,0.45136 1.64097,0.74338 0.43358,0.18007 0.88377,0.30407 1.3403,0.40696 0.13798,0.031 0.18183,-0.16412 0.0439,-0.19513 v 0 c -0.44528,-0.0998 -0.88414,-0.22098 -1.30699,-0.39635 -0.69009,-0.28846 -0.91869,-0.36935 -1.62158,-0.73401 -1.76006,-0.9131 -3.3772,-2.06784 -4.78237,-3.47121 -0.41057,-0.44132 -0.83645,-0.86886 -1.2317,-1.32394 -0.80348,-0.9251 -1.59844,-1.98523 -2.31223,-2.98 -0.4263,-0.59411 -1.48078,-2.13095 -1.89252,-2.7844 -0.24582,-0.39013 -0.47,-0.79349 -0.705,-1.19023 -0.17291,-0.36303 -0.36515,-0.71747 -0.51875,-1.08909 -0.60849,-1.47216 -0.80481,-3.05722 -0.7314,-4.63958 0.0988,-1.52557 0.33879,-3.03316 0.5943,-4.539608 0.21848,-1.30597 0.54073,-2.62532 0.36519,-3.95638 -0.084,-0.502373 -0.0974,-0.658347 -0.23032,-1.150747 -0.21586,-0.799476 -0.54258,-1.566304 -0.90741,-2.30773 -0.48291,-0.871355 -1.0157,-1.713389 -1.75331,-2.395623 -0.1,-0.100001 -0.24142,0.04142 -0.14141,0.14142 z" />
    <path
       style="fill:#000000;stroke:none;stroke-width:0.2;stroke-dasharray:none;stroke-opacity:1"
       id="path23738"
       d="m 143.47891,121.27987 c -0.13464,-0.79654 -0.49185,-1.53312 -0.82251,-2.2633 -0.47805,-1.05843 -0.90139,-2.14155 -1.28957,-3.23589 -0.48153,-1.35507 -0.9066,-2.7287 -1.32199,-4.10516 -0.45777,-1.49563 -0.97595,-2.97084 -1.51537,-4.43859 -0.59422,-1.56498 -1.12688,-3.15146 -1.66147,-4.73742 -0.66601,-1.9713 -1.1085,-4.005264 -1.43452,-6.057317 -0.22566,-1.588336 -0.31666,-3.196969 -0.22249,-4.799709 0.0179,-0.30376 0.0509,-0.606435 0.0764,-0.90965 0.24483,-1.873547 0.57871,-3.733917 0.85972,-5.602245 0.29296,-2.050061 0.42746,-4.11683 0.55028,-6.182551 0.0907,-1.999387 0.20679,-3.997756 0.36203,-5.993185 0.16377,-2.060414 0.25428,-4.125508 0.39185,-6.187668 0.13152,-2.240094 0.37794,-4.467746 0.73449,-6.682483 0.37731,-2.175597 1.01169,-4.293097 1.69543,-6.388653 0.57365,-1.683123 1.11547,-3.377774 1.74054,-5.042831 0.25451,-0.725088 0.54424,-1.436532 0.85682,-2.138294 0.0398,-0.07657 0.0796,-0.153133 0.11948,-0.229698 0.0652,-0.12551 -0.11233,-0.217678 -0.1775,-0.09217 v 0 c -0.0416,0.08017 -0.0831,0.160329 -0.12468,0.240493 -0.31416,0.705426 -0.60549,1.42054 -0.86136,2.149382 -0.62596,1.667838 -1.16901,3.36514 -1.74343,5.051081 -0.6869,2.105451 -1.32397,4.233002 -1.70275,6.418903 -0.35745,2.22087 -0.60472,4.454667 -0.7366,6.700956 -0.1375,2.061427 -0.22801,4.125783 -0.39169,6.185466 -0.15531,1.996647 -0.27157,3.996222 -0.36228,5.996829 -0.12245,2.059742 -0.25642,4.120533 -0.54841,6.164675 -0.28164,1.872655 -0.61662,3.737293 -0.86124,5.615284 -0.0256,0.306499 -0.059,0.612452 -0.0769,0.919496 -0.0946,1.615524 -0.003,3.236986 0.22485,4.837962 0.32801,2.06304 0.7728,4.107947 1.44251,6.089817 0.53517,1.58767 1.06844,3.17584 1.66328,4.74252 0.53807,1.46405 1.05498,2.93553 1.51162,4.42738 0.41634,1.37951 0.84236,2.75618 1.32497,4.11426 0.39021,1.09958 0.81541,2.18801 1.29588,3.25152 0.3218,0.71041 0.67029,1.42672 0.80568,2.20069 0.0141,0.14072 0.21308,0.12082 0.19901,-0.0199 z" />
    <path
       style="fill:#ffffff;stroke:none;stroke-width:0.2;stroke-dasharray:none;stroke-opacity:1"
       id="path23740"
       d="m 142.72987,45.888034 c -0.004,0.09201 -0.0142,0.183594 -0.0219,0.275349 -0.005,0.06261 -0.006,0.125367 -0.0131,0.187817 -0.006,0.06344 -0.0134,0.126627 -0.02,0.189979 -0.0146,0.140671 0.18439,0.161239 0.19894,0.02056 v 0 c 0.007,-0.06297 0.0143,-0.125788 0.0199,-0.188849 0.007,-0.06413 0.009,-0.128495 0.0136,-0.192789 0.008,-0.09731 0.019,-0.194447 0.0226,-0.292073 0,-0.141423 -0.2,-0.141423 -0.2,0 z" />
    <path
       style="fill:#ffffff;stroke:none;stroke-width:0.2;stroke-dasharray:none;stroke-opacity:1"
       id="path23791"
       d="m 142.68794,45.975293 c -0.0184,0.05284 -0.0357,0.106024 -0.0515,0.159697 -0.0129,0.04399 -0.0229,0.08876 -0.0316,0.13375 -0.003,0.0158 -0.004,0.03193 -0.008,0.04769 -0.004,0.01955 -0.009,0.03908 -0.0137,0.05841 -0.005,0.02275 -0.0107,0.04542 -0.017,0.0679 -0.004,0.01466 -0.008,0.02942 -0.0117,0.04421 -0.0343,0.137208 0.15978,0.185666 0.19404,0.04846 v 0 c 0.003,-0.01307 0.007,-0.02609 0.0104,-0.03903 0.006,-0.02328 0.0124,-0.04667 0.0176,-0.07026 0.006,-0.02291 0.0113,-0.04601 0.0162,-0.0692 0.003,-0.01667 0.006,-0.03349 0.008,-0.05028 0.007,-0.03876 0.0161,-0.07732 0.0271,-0.115221 0.0147,-0.05004 0.0309,-0.09959 0.048,-0.148854 0.0476,-0.133183 -0.14078,-0.200451 -0.18834,-0.06727 z" />
    <path
       style="fill:#ffffff;stroke:none;stroke-width:0.2;stroke-dasharray:none;stroke-opacity:1"
       id="path23793"
       d="m 142.64384,46.004741 c -0.007,0.03371 -0.0143,0.06743 -0.0225,0.100891 -0.007,0.0288 -0.0147,0.05749 -0.0222,0.08622 -0.007,0.02716 -0.0135,0.0544 -0.0198,0.0817 -0.007,0.03001 -0.0134,0.06016 -0.0193,0.0904 -0.004,0.02175 -0.01,0.04327 -0.0143,0.06492 -0.005,0.02141 -0.009,0.04289 -0.0144,0.06416 -0.006,0.02246 -0.0111,0.04518 -0.0164,0.06782 -0.004,0.01908 -0.009,0.03799 -0.0148,0.05674 -0.0402,0.135594 0.15158,0.192419 0.19176,0.05683 v 0 c 0.007,-0.02241 0.0125,-0.04502 0.0178,-0.06782 0.005,-0.02193 0.01,-0.04393 0.0159,-0.06567 0.006,-0.02307 0.0106,-0.04633 0.0157,-0.06955 0.005,-0.02307 0.0107,-0.04598 0.0152,-0.06917 0.005,-0.02803 0.0113,-0.05597 0.0178,-0.08378 0.006,-0.02561 0.0122,-0.05114 0.0186,-0.07662 0.008,-0.02945 0.0153,-0.05885 0.0227,-0.08837 0.008,-0.03324 0.0155,-0.06667 0.0224,-0.100198 0.0343,-0.137197 -0.15973,-0.185705 -0.19403,-0.04851 z" />
    <path
       style="fill:#ffffff;stroke:none;stroke-width:0.2;stroke-dasharray:none;stroke-opacity:1"
       id="path23795"
       d="m 143.01904,45.886626 c -0.003,0.006 -0.006,0.01196 -0.009,0.01805 -0.0115,0.02577 -0.02,0.04826 -0.0298,0.07547 -0.0241,0.067 -0.0447,0.13506 -0.0652,0.203192 -0.007,0.02408 -0.0266,0.09078 -0.034,0.118322 -0.002,0.009 -0.0155,0.02432 -0.007,0.0273 0.0632,0.0213 0.13,0.03709 0.19671,0.03679 0.0128,-5.8e-5 0.005,-0.02511 0.007,-0.03772 0.003,-0.01712 0.005,-0.0343 0.008,-0.05145 0.007,-0.0538 0.0127,-0.108114 0.0128,-0.162454 2e-5,-0.01297 0.001,-0.02614 -0.002,-0.03887 -0.003,-0.01741 0.001,-0.046 -0.0159,-0.05077 -0.0573,-0.01601 -0.119,-0.0024 -0.17851,-0.0035 -0.0238,0.0401 -0.0379,0.08417 -0.0515,0.128381 -0.002,0.0078 -0.005,0.01558 -0.007,0.02344 -0.001,0.0044 -0.008,0.01204 -0.003,0.01323 0.0643,0.01778 0.1307,0.02672 0.19605,0.04008 0.002,-0.01008 0.003,-0.02011 0.005,-0.03023 0.002,-0.01693 0.005,-0.05285 0.007,-0.06989 0.009,-0.09959 -0.002,0.01519 0.004,-0.04448 2.2e-4,-0.0021 -5.3e-4,0.0045 -0.001,0.0067 -0.066,-0.0066 -0.1317,-0.01979 -0.19804,-0.01976 -0.007,5e-6 -10e-4,0.01326 -0.002,0.0199 -0.004,0.03295 -0.008,0.06584 -0.0114,0.09875 -0.0163,0.140478 0.18236,0.163547 0.19867,0.02307 v 0 c 0.004,-0.0339 0.008,-0.06777 0.0117,-0.101709 8e-4,-0.008 0.0101,-0.02159 0.002,-0.02413 -0.0634,-0.02103 -0.13094,-0.02678 -0.19641,-0.04018 -0.008,0.0447 -0.009,0.09047 -0.0144,0.135512 0.22183,0.05924 0.17211,0.110389 0.20826,0.0013 0.0113,-0.03411 0.0104,-0.01908 0.0104,-0.03821 -0.36226,-0.06569 -0.11455,0.03066 -0.16407,-0.05792 -0.004,-0.0066 0.001,0.01508 0.001,0.02265 1e-4,0.04648 -0.005,0.09298 -0.0106,0.138996 -0.002,0.01535 -0.005,0.03069 -0.007,0.046 -0.002,0.0098 -0.0143,0.02535 -0.005,0.02936 0.061,0.02698 0.12717,0.04219 0.19293,0.05359 0.007,0.0011 0.003,-0.01294 0.005,-0.01934 0.007,-0.02747 0.0259,-0.09056 0.033,-0.114893 0.0262,-0.08669 0.0517,-0.173908 0.0871,-0.257421 0.0687,-0.123626 -0.10615,-0.220755 -0.17483,-0.09713 z" />
    <path
       style="fill:#ffffff;stroke:none;stroke-width:0.2;stroke-dasharray:none;stroke-opacity:1"
       id="path23797"
       d="m 142.83719,45.962321 c -0.004,0.01648 -0.007,0.03313 -0.01,0.04975 -0.0253,0.139139 0.17147,0.174929 0.19677,0.03579 v 0 c 0.003,-0.01662 0.006,-0.03327 0.01,-0.04976 0.0253,-0.139139 -0.17148,-0.174916 -0.19678,-0.03578 z" />
    <path
       style="fill:#ffffff;stroke:none;stroke-width:0.2;stroke-dasharray:none;stroke-opacity:1"
       id="path23799"
       d="m 142.31195,46.222782 c 0.004,-0.0029 0.008,-0.0058 0.0126,-0.0086 0.0108,-0.0073 0.0224,-0.01524 0.0337,-0.02175 0.0204,-0.0117 0.0422,-0.02096 0.0637,-0.03059 0.009,-0.0043 0.0187,-0.0085 0.028,-0.01289 0.0109,-0.0052 0.0476,-0.02371 0.059,-0.02897 0.0251,-0.01161 0.051,-0.02154 0.0768,-0.03134 0.0348,-0.01297 0.0694,-0.02643 0.1029,-0.04253 0.12716,-0.06189 0.0396,-0.24172 -0.0875,-0.179834 v 0 c -0.0279,0.01389 -0.0575,0.02413 -0.0864,0.03542 -0.0315,0.01201 -0.0629,0.02439 -0.0935,0.03858 -0.0228,0.01056 -0.0329,0.01651 -0.0549,0.02705 -0.009,0.0042 -0.0176,0.0081 -0.0264,0.01217 -0.0207,0.0094 -0.0379,0.0168 -0.0582,0.02726 -0.0281,0.0145 -0.0548,0.03135 -0.0806,0.04963 -0.11766,0.07845 -0.007,0.244856 0.11094,0.16641 z" />
    <path
       style="fill:#ffffff;stroke:none;stroke-width:0.2;stroke-dasharray:none;stroke-opacity:1"
       id="path23803"
       d="m 142.32173,46.2085 c 0.0285,-0.01453 0.0578,-0.02755 0.0871,-0.04062 0.0502,-0.02074 0.1004,-0.04135 0.15061,-0.06202 0.047,-0.01836 0.0948,-0.03443 0.14183,-0.05274 0.006,-0.0024 0.0111,-0.0046 0.0167,-0.0069 0.13068,-0.05406 0.0542,-0.238869 -0.0764,-0.184812 v 0 c -0.004,0.0019 -0.009,0.0036 -0.0131,0.0054 -0.0481,0.01887 -0.0972,0.03493 -0.14515,0.05408 -0.0521,0.02143 -0.10416,0.04273 -0.15612,0.06438 -0.0319,0.01426 -0.0638,0.0285 -0.0949,0.04431 -0.12649,0.06325 -0.037,0.242131 0.0894,0.178885 z" />
    <path
       style="fill:#ffffff;stroke:none;stroke-width:0.2;stroke-dasharray:none;stroke-opacity:1"
       id="path23807"
       d="m 142.30909,46.187944 c 0.0343,-0.006 0.0684,-0.0131 0.10251,-0.02032 0.0599,-0.01188 0.11905,-0.02712 0.17896,-0.03885 0.0548,-0.01029 0.11032,-0.01632 0.16519,-0.02635 0.0278,-0.0059 0.0144,-0.0028 0.0403,-0.0094 0.13679,-0.03587 0.0861,-0.229331 -0.0507,-0.193461 v 0 c -0.0154,0.0042 -0.007,0.0021 -0.0258,0.0062 -0.0556,0.01037 -0.11206,0.0158 -0.16759,0.02682 -0.0608,0.01206 -0.12097,0.02717 -0.18175,0.03942 -0.0322,0.0068 -0.0644,0.01355 -0.0968,0.01921 -0.13914,0.02529 -0.10337,0.222073 0.0358,0.196773 z" />
    <path
       style="fill:#ffffff;stroke:none;stroke-width:0.2;stroke-dasharray:none;stroke-opacity:1"
       id="path23813"
       d="m 142.31723,46.228156 c 0.004,-0.0013 0.008,-0.0024 0.0124,-0.0037 0.0408,-0.01349 0.0809,-0.02941 0.12087,-0.04516 0.0773,-0.03005 0.1529,-0.06408 0.22885,-0.09728 0.0359,-0.01556 0.0188,-0.0081 0.0513,-0.02217 0.12982,-0.0561 0.0505,-0.239688 -0.0793,-0.183594 v 0 c -0.0329,0.01418 -0.0155,0.0067 -0.0521,0.02252 -0.0737,0.03223 -0.14709,0.06529 -0.22209,0.09447 -0.0359,0.01418 -0.072,0.02783 -0.10839,0.04083 -0.1372,0.0343 -0.0887,0.22833 0.0485,0.19403 z" />
    <path
       style="fill:#ffffff;stroke:none;stroke-width:0.2;stroke-dasharray:none;stroke-opacity:1"
       id="path26719"
       d="m 74.020086,56.545366 c 1.22283,-1.063993 2.536548,-2.008556 3.879924,-2.912243 2.31117,-1.479248 4.764096,-2.72007 7.254232,-3.865504 3.628433,-1.634508 7.407386,-2.89646 11.197095,-4.095708 2.221876,-0.68921 4.488303,-1.218483 6.752073,-1.747744 0.75152,-0.175702 2.17805,-0.524884 3.01436,-0.637424 0.26312,-0.03541 0.53027,-0.02766 0.7954,-0.0415 0.0899,0.06422 0.25419,0.08329 0.26956,0.192657 0.0209,0.148505 -0.10421,0.283731 -0.18486,0.410162 -0.16774,0.262964 -0.35588,0.513435 -0.55659,0.752192 -0.9892,1.176737 -2.15936,2.197095 -3.28277,3.240111 -2.22497,2.034 -4.520228,3.988853 -6.820724,5.936308 -1.070589,0.823738 -2.071397,1.730425 -3.107974,2.595129 -0.451455,0.429339 -0.920974,0.841922 -1.363863,1.279996 -0.142822,0.158334 -0.330483,0.249441 -0.513191,0.352197 -0.123209,0.06942 -0.02503,0.243666 0.09818,0.174242 v 0 c 0.19738,-0.111417 0.400934,-0.21372 0.555755,-0.384345 0.438182,-0.434671 0.904729,-0.842274 1.351232,-1.268513 1.03695,-0.865013 2.038125,-1.772002 3.109082,-2.596057 2.302828,-1.949432 4.600403,-3.90629 6.827583,-5.942388 1.13058,-1.049735 2.32147,-2.076315 3.30829,-3.268845 0.21123,-0.255262 0.85426,-0.952696 0.68688,-1.449142 -0.0476,-0.141208 -0.25815,-0.148947 -0.38723,-0.223422 -0.27378,0.01487 -0.54961,0.008 -0.82135,0.04459 -0.8382,0.112876 -2.26954,0.463068 -3.02386,0.639432 -2.26857,0.530399 -4.53976,1.060947 -6.766324,1.751681 -3.797613,1.201828 -7.584406,2.466568 -11.220339,4.104691 -2.49982,1.150059 -4.962329,2.395786 -7.282286,3.881257 -1.349753,0.908106 -2.669736,1.857272 -3.898445,2.926334 -0.107373,0.09204 0.02278,0.243888 0.130159,0.151853 z" />
    <path
       style="fill:#000000;stroke:none;stroke-width:0.2;stroke-dasharray:none;stroke-opacity:1"
       id="path31811"
       d="m 77.520601,56.538867 c 0.628163,-0.855797 1.33369,-1.661242 2.136206,-2.358853 0.277918,-0.241591 0.572939,-0.462769 0.859409,-0.694153 0.354187,-0.235164 0.698203,-0.486417 1.062558,-0.705495 0.974048,-0.585666 1.844718,-1.002631 2.901569,-1.442273 1.335016,-0.55536 2.49537,-0.956074 3.899601,-1.337328 0.786765,-0.213612 1.585519,-0.380326 2.378277,-0.57049 0.905446,-0.162584 1.807635,-0.344506 2.716342,-0.487754 1.998662,-0.315066 4.073035,-0.546208 6.084353,-0.751901 1.020954,-0.10441 4.345744,-0.410781 5.489684,-0.491955 0.63838,-0.0453 1.27816,-0.06796 1.91724,-0.101942 0.0907,0.205354 1.43293,-0.165391 1.66872,0.351875 0.0608,0.133416 -0.0819,0.286962 -0.16511,0.407715 -0.37557,0.545267 -1.06008,1.12735 -1.53494,1.530223 -0.39699,0.336807 -0.80962,0.654727 -1.21444,0.982088 -2.59985,1.960079 -5.21332,3.901808 -7.809318,5.867083 -1.01981,0.780663 -2.057284,1.537949 -3.06074,2.33976 -0.110482,0.08828 0.01437,0.244526 0.124852,0.156242 v 0 c 1.002056,-0.800764 2.038247,-1.556858 3.056604,-2.336543 2.597702,-1.966566 5.212972,-3.909473 7.814382,-5.871038 0.63155,-0.510913 1.61374,-1.269479 2.20049,-1.870554 0.22699,-0.232529 0.47401,-0.462529 0.61831,-0.753681 0.27756,-0.560052 0.0622,-0.80332 -0.49029,-0.920377 -0.39847,-0.08442 -0.81276,-0.05501 -1.21914,-0.08251 -0.64115,0.03412 -1.28301,0.05692 -1.92345,0.10237 -1.14518,0.08127 -4.4729,0.387927 -5.494754,0.492448 -2.015331,0.206142 -4.095189,0.437949 -6.097812,0.753851 -0.912495,0.143938 -1.818434,0.326747 -2.727651,0.490122 -0.796806,0.19127 -1.599652,0.358939 -2.39042,0.57381 -1.410854,0.38336 -2.581913,0.787818 -3.923326,1.346311 -1.066245,0.443928 -1.947037,0.866169 -2.929716,1.45787 -0.369535,0.222507 -0.718391,0.477681 -1.077587,0.716523 -0.290388,0.234813 -0.589433,0.459309 -0.871167,0.704438 -0.811461,0.706032 -1.525034,1.520822 -2.160484,2.386486 -0.08318,0.114371 0.07857,0.232005 0.161748,0.117633 z" />
    <path
       style="fill:#000000;stroke:none;stroke-width:0.2;stroke-dasharray:none;stroke-opacity:1"
       id="path32539"
       d="m 82.378226,56.94291 c 0.0019,-0.03148 0.0021,-0.06308 0.0052,-0.09445 0.01688,-0.169222 0.05255,-0.336563 0.07831,-0.504468 0.02876,-0.187523 0.04406,-0.317626 0.06843,-0.508359 0.06278,-0.648952 0.165931,-1.291265 0.302908,-1.928376 0.116361,-0.518242 0.317902,-1.015302 0.598379,-1.466594 0.04725,-0.07602 0.09953,-0.148788 0.149296,-0.223181 0.113544,-0.170098 0.246544,-0.322924 0.389959,-0.467696 0.0993,-0.100695 -0.04311,-0.241125 -0.142406,-0.140428 v 0 c -0.151636,0.154403 -0.293651,0.316114 -0.413872,0.497052 -0.05205,0.07806 -0.106723,0.154424 -0.156136,0.234175 -0.290836,0.469381 -0.499817,0.986097 -0.620755,1.524651 -0.138049,0.642643 -0.242417,1.290494 -0.305763,1.94506 -0.02357,0.184621 -0.03946,0.319194 -0.06734,0.500928 -0.03219,0.209836 -0.07937,0.418848 -0.08617,0.63169 0,0.141422 0.200002,0.141422 0.200002,0 z" />
    <path
       style="fill:#000000;stroke:none;stroke-width:0.2;stroke-dasharray:none;stroke-opacity:1"
       id="path33271"
       d="m 87.745161,57.352715 c 0.09065,-0.721066 0.319022,-1.415865 0.547328,-2.102678 0.252301,-0.720034 0.538827,-1.428933 0.858935,-2.121599 0.180851,-0.391326 0.245706,-0.505899 0.440542,-0.880665 0.236009,-0.442272 0.485072,-0.880481 0.774338,-1.290669 0.149243,-0.211633 0.184436,-0.246335 0.345035,-0.438865 0.221718,-0.251711 0.446979,-0.502687 0.703646,-0.719444 0.158404,-0.118372 0.311071,-0.244356 0.471257,-0.360294 0.129368,-0.09547 0.259988,-0.188907 0.394007,-0.277712 0.07141,-0.04959 0.03675,-0.02657 0.103757,-0.0694 0.119065,-0.07631 0.01114,-0.244694 -0.107919,-0.168383 v 0 c -0.07196,0.04622 -0.03652,0.02252 -0.106312,0.07106 -0.136345,0.09035 -0.269269,0.185354 -0.400881,0.28248 -0.164105,0.119031 -0.320974,0.247732 -0.483041,0.369525 -0.265295,0.224573 -0.499227,0.483246 -0.728168,0.744143 -0.166928,0.200568 -0.202592,0.235651 -0.357545,0.455578 -0.293349,0.416357 -0.546192,0.860918 -0.785632,1.309741 -0.07332,0.141092 -0.148847,0.281056 -0.219956,0.423275 -0.421677,0.843359 -0.776632,1.720099 -1.091859,2.608159 -0.234781,0.706753 -0.470948,1.422739 -0.557533,2.165747 0,0.141423 0.200001,0.141423 0.200001,1e-6 z" />
    <path
       style="fill:#000000;stroke:none;stroke-width:0.2;stroke-dasharray:none;stroke-opacity:1"
       id="path33273"
       d="m 93.09701,58.70114 c 0.402111,-0.707638 0.780616,-1.428115 1.159306,-2.148461 0.568757,-1.08961 1.078177,-2.209687 1.669146,-3.287837 0.111556,-0.203523 0.22916,-0.40367 0.343741,-0.605504 0.358156,-0.605724 0.724249,-1.209414 1.155419,-1.766838 0.182227,-0.235585 0.260432,-0.317309 0.453578,-0.535958 0.345927,-0.374044 0.730695,-0.710197 1.133327,-1.021543 0.325512,-0.24356 0.680405,-0.444101 1.039383,-0.63341 0.21887,-0.116864 0.44583,-0.216614 0.65879,-0.344194 0.10111,-0.06153 0.21045,-0.107352 0.30945,-0.172162 0.054,-0.03598 0.0273,-0.0208 0.0795,-0.04663 0.12577,-0.06467 0.0343,-0.242533 -0.0915,-0.177861 v 0 c -0.0714,0.03761 -0.0386,0.01789 -0.0989,0.05803 -0.0949,0.0648 -0.2047,0.104643 -0.30139,0.167071 -0.20979,0.125751 -0.43394,0.22315 -0.649316,0.33886 -0.369117,0.194813 -0.733938,0.401265 -1.068443,0.652119 -0.412432,0.319267 -0.80677,0.663643 -1.160867,1.047353 -0.198469,0.224893 -0.277117,0.307022 -0.464457,0.54941 -0.435867,0.563946 -0.80645,1.1743 -1.168549,1.78703 -0.115506,0.203523 -0.234053,0.405355 -0.346522,0.610574 -0.59101,1.078383 -1.10077,2.198534 -1.669457,3.288429 -0.3776,0.718272 -0.754967,1.436701 -1.155928,2.1423 -0.07016,0.122787 0.103484,0.222017 0.173649,0.09923 z" />
    <path
       style="fill:#000000;stroke:none;stroke-width:0.2;stroke-dasharray:none;stroke-opacity:1"
       id="path36183"
       d="m 87.936249,108.72943 c 0.543353,-0.20903 1.078103,-0.43926 1.619771,-0.65278 0.743315,-0.27244 1.48095,-0.56135 2.227948,-0.82358 0.374425,-0.13553 0.748416,-0.27215 1.123627,-0.40548 0.133257,-0.0474 0.06629,-0.23581 -0.06697,-0.18846 v 0 c -0.374973,0.13326 -0.748739,0.26976 -1.122918,0.40524 -0.749335,0.26319 -1.489404,0.55276 -2.235034,0.82622 -0.543486,0.21425 -1.080053,0.44519 -1.625206,0.65501 -0.129987,0.0557 -0.0512,0.23954 0.07878,0.18383 z" />
    <path
       id="path37641"
       style="fill:#000000;stroke:none;stroke-width:0.2;stroke-dasharray:none;stroke-opacity:1"
       d="m 92.967452,106.90769 c -0.06255,0.003 -0.121287,0.064 -0.0863,0.14521 0.106341,0.24562 0.253626,0.47137 0.336414,0.7276 0.142825,0.37572 0.249377,0.76006 0.333313,1.15342 0.161594,0.65898 0.339598,1.31422 0.517798,1.96887 0.26276,0.90014 0.593504,1.78011 1.098641,2.57607 0.270491,0.44719 0.312225,0.53107 0.612365,0.96687 0.511414,0.74248 1.10199,1.4243 1.696021,2.10064 1.098412,1.26203 2.224768,2.50524 3.215306,3.85558 0.33961,0.49365 0.52476,0.74323 0.82734,1.25522 0.48007,0.81235 0.88817,1.67047 1.15859,2.57607 0.37713,1.37828 0.66734,2.7203 0.32608,4.14342 -0.21061,0.50171 -0.24592,0.71426 -0.63252,1.11673 -0.85347,0.88853 -2.16091,1.07332 -3.315048,1.23196 -0.411861,0.0165 -0.823431,0.0575 -1.235583,0.0496 -1.645508,-0.0314 -3.32287,-0.38781 -4.819861,-1.07693 -0.336097,-0.15472 -0.65356,-0.34729 -0.980302,-0.5209 -0.293999,-0.20118 -0.59884,-0.38756 -0.882116,-0.60358 -1.289303,-0.98314 -2.342276,-2.25049 -2.975529,-3.74758 -0.09443,-0.25227 -0.197028,-0.50133 -0.283187,-0.75654 -0.484749,-1.43587 -0.772767,-2.93477 -0.987537,-4.43125 -0.03175,-0.29129 -0.07019,-0.58189 -0.09508,-0.87385 -0.123594,-1.45018 -0.09155,-2.90894 -0.01654,-4.36046 0.0812,-1.29722 0.171481,-2.60059 0.546737,-3.853 0.171941,-0.59288 0.347991,-1.18609 0.556038,-1.76785 0.05571,-0.12998 -0.127741,-0.20987 -0.183451,-0.0785 -0.211957,0.58904 -0.39053,1.18952 -0.564824,1.79058 -0.379552,1.26645 -0.471749,2.58457 -0.553971,3.89641 -0.07547,1.45965 -0.108138,2.92641 0.01602,4.38474 0.02514,0.29518 0.06411,0.58915 0.09612,0.88367 0.216172,1.50911 0.506883,3.01974 0.995288,4.46743 0.08747,0.25927 0.191521,0.51263 0.287321,0.76894 0.645411,1.52899 1.717354,2.82462 3.03289,3.82974 0.28852,0.22046 0.599158,0.41063 0.898653,0.61599 0.333065,0.17746 0.656755,0.37406 0.999422,0.53226 1.521192,0.70232 3.225911,1.06699 4.898926,1.10019 0.419806,0.008 0.839235,-0.0327 1.258838,-0.0491 0.378917,-0.0573 0.762282,-0.0911 1.136876,-0.17156 0.82643,-0.17756 1.69069,-0.48499 2.29547,-1.10485 0.42248,-0.43304 0.45827,-0.65215 0.69091,-1.19372 0.36441,-1.48265 0.0757,-2.83799 -0.31677,-4.27468 -0.27464,-0.92098 -0.68925,-1.79376 -1.17719,-2.61999 -0.30767,-0.52099 -0.49194,-0.77022 -0.83716,-1.27228 -0.994524,-1.35657 -2.125872,-2.6054 -3.229258,-3.87314 -0.589668,-0.67203 -1.176603,-1.3486 -1.684135,-2.08566 -0.297008,-0.43154 -0.33663,-0.51146 -0.604097,-0.95395 -0.49607,-0.78112 -0.82036,-1.64547 -1.077971,-2.52905 -0.177327,-0.65189 -0.354374,-1.3039 -0.515214,-1.96008 -0.08571,-0.40133 -0.194894,-0.79328 -0.340547,-1.17668 -0.08251,-0.25944 -0.23343,-0.48733 -0.340031,-0.73587 -0.02099,-0.0487 -0.05962,-0.0679 -0.09715,-0.0661 z" />
    <path
       style="fill:#1a1a1a;stroke:none;stroke-width:0.2;stroke-dasharray:none;stroke-opacity:1"
       id="path40610"
       d="m 84.077253,118.05428 c -0.07977,0.23914 -0.144235,0.48302 -0.209849,0.72635 -0.108055,0.38629 -0.16271,0.78454 -0.215855,1.18127 -0.08985,0.71968 -0.0689,1.44453 -0.0024,2.16472 0.05303,0.43141 0.129146,0.86256 0.281445,1.27126 0.09167,0.24598 0.133832,0.31416 0.251103,0.54753 0.249632,0.44442 0.562076,0.8575 0.921372,1.21965 0.07891,0.0795 0.162774,0.154 0.244163,0.231 0.47643,0.42877 1.003612,0.7935 1.539155,1.14324 0.505121,0.32623 1.037759,0.60685 1.577594,0.87056 0.422386,0.21042 0.85571,0.39663 1.290476,0.5795 0.129328,0.0506 0.25345,0.11287 0.378182,0.17356 0.12717,0.0619 0.214665,-0.11798 0.08749,-0.17985 v 0 c -0.128008,-0.0623 -0.255487,-0.12598 -0.388131,-0.17807 -0.431316,-0.18142 -0.861234,-0.36606 -1.28025,-0.57486 -0.532434,-0.25999 -1.057785,-0.53667 -1.556017,-0.8583 -0.525611,-0.34317 -1.043194,-0.7008 -1.511144,-1.12115 -0.07836,-0.074 -0.15911,-0.14543 -0.235069,-0.22183 -0.346377,-0.3484 -0.647898,-0.74594 -0.889193,-1.17341 -0.111921,-0.22177 -0.152292,-0.28687 -0.239893,-0.52051 -0.14779,-0.39416 -0.220487,-0.8105 -0.272137,-1.22674 -0.06541,-0.70519 -0.08607,-1.41499 0.0016,-2.11975 0.05197,-0.38812 0.105018,-0.77784 0.210727,-1.15575 0.06639,-0.24624 0.132363,-0.4927 0.211982,-0.73503 0.03068,-0.13806 -0.164558,-0.18144 -0.195236,-0.0434 z" />
    <path
       style="fill:#1a1a1a;stroke:none;stroke-width:0.2;stroke-dasharray:none;stroke-opacity:1"
       id="path41340"
       d="m 51.204918,85.661967 c 0.46909,-0.253841 0.937455,-0.508624 1.390128,-0.791191 0.186013,-0.11611 0.36933,-0.236485 0.553993,-0.354727 0.997966,-0.650394 2.000205,-1.294773 2.970773,-1.985743 0.0774,-0.05822 0.154795,-0.116448 0.232191,-0.174673 0.113003,-0.08503 -0.0073,-0.244842 -0.120253,-0.159811 v 0 c -0.07598,0.05719 -0.151956,0.114372 -0.227931,0.171556 -0.967875,0.68911 -1.96746,1.331574 -2.962635,1.980245 -0.183197,0.117332 -0.365067,0.236765 -0.549595,0.351991 -0.448106,0.279818 -0.911823,0.531963 -1.376114,0.783468 -0.126492,0.06325 -0.03705,0.242131 0.08944,0.178885 z" />
    <ellipse
       style="fill:#ffffff;stroke:#000000;stroke-width:0.1;stroke-dasharray:none;stroke-opacity:1"
       id="path42120"
       cx="17.209677"
       cy="84.80645"
       rx="6.032258"
       ry="5.3225808" />
    <ellipse
       style="fill:#ffffff;stroke:#000000;stroke-width:0.112948;stroke-dasharray:none;stroke-opacity:1"
       id="path43576"
       cx="24.306452"
       cy="67.596779"
       rx="6.7354612"
       ry="7.0903001" />
    <ellipse
       style="fill:#ffffff;stroke:#000000;stroke-width:0.107651;stroke-dasharray:none;stroke-opacity:1"
       id="path43578"
       cx="19.25"
       cy="48.346779"
       rx="7.891336"
       ry="7.7139163" />
    <ellipse
       style="fill:#ffffff;stroke:#000000;stroke-width:0.1;stroke-dasharray:none;stroke-opacity:1"
       id="path43580"
       cx="32.1129"
       cy="33.177422"
       rx="7.8064518"
       ry="7.0967741" />
    <ellipse
       style="fill:#ffffff;stroke:#000000;stroke-width:0.1;stroke-dasharray:none;stroke-opacity:1"
       id="path43582"
       cx="15.790322"
       cy="22.354839"
       rx="7.8064518"
       ry="7.983871" />
    <ellipse
       style="fill:#ffffff;stroke:#000000;stroke-width:0.125394;stroke-dasharray:none;stroke-opacity:1"
       id="path43584"
       cx="36.903225"
       cy="13.66129"
       rx="9.0356903"
       ry="8.3260126" />
    <path
       style="fill:url(#radialGradient76950);fill-opacity:1;stroke:#000000;stroke-width:0.25344;stroke-dasharray:none;stroke-opacity:1"
       d="m 259.84252,450.56124 c -27.65397,-4.49388 -55.0617,-10.52501 -72.83619,-16.02777 -13.01842,-4.03035 -27.80618,-10.16215 -43.84148,-18.17905 C 111.347,400.447 98.451229,388.96229 94.671678,373.16739 l -0.401146,-1.67641 13.550538,0.4283 c 7.45279,0.23557 20.7926,0.94277 29.64401,1.57157 22.54368,1.60147 46.14155,1.66311 52.23939,0.13644 8.97413,-2.24678 13.0087,-5.04382 16.13926,-11.18888 6.80763,-13.36288 6.18736,-28.37808 -1.65212,-39.994 -1.1541,-1.71004 -1.85382,-3.32765 -1.55494,-3.59468 0.29888,-0.26704 2.882,-2.04462 5.74027,-3.95019 4.52111,-3.01416 6.26806,-4.76492 4.75457,-4.76492 -0.24325,0 -3.03446,1.75856 -6.20269,3.9079 -3.16823,2.14935 -7.64637,5.03785 -9.95143,6.41889 -2.30505,1.38104 -4.191,2.79089 -4.191,3.13299 0,0.96045 0.57078,0.77752 4.38732,-1.40608 l 3.54473,-2.02809 1.40626,1.97492 c 2.8238,3.96566 6.07103,11.84811 6.65848,16.16305 1.0468,7.6889 -0.97705,17.78646 -4.91003,24.49757 -3.76861,6.43065 -9.45833,9.07975 -22.31383,10.38915 -7.93267,0.80799 -16.32749,0.56754 -48.11761,-1.37817 -11.43307,-0.69976 -24.97727,-1.35595 -30.09822,-1.4582 l -9.310809,-0.18591 0.391977,-8.05313 c 0.643599,-13.22268 3.994492,-25.60709 10.252872,-37.8931 7.67003,-15.05728 21.49513,-29.74908 44.93656,-47.75367 l 4.10228,-3.15083 1.26221,2.82075 c 0.69422,1.55142 3.2236,4.81029 5.62086,7.24194 13.47659,13.66991 34.06505,13.71558 47.53367,0.10541 10.9781,-11.09345 13.77997,-27.71268 7.12342,-42.25248 -2.00335,-4.3759 -2.39935,-3.90612 6.02871,-7.15192 3.31928,-1.27832 11.61748,-4.48617 18.44044,-7.12856 6.82296,-2.64239 16.42138,-6.14171 21.32983,-7.77626 l 8.92444,-2.97192 3.14567,3.48635 c 16.8261,18.64849 31.93387,45.1491 39.90485,69.99728 18.34004,57.17193 12.31063,105.1834 -17.89482,142.49428 -5.97577,7.3815 -19.25289,20.80074 -20.48359,20.70286 -0.58467,-0.0465 -7.24896,-1.08979 -14.80954,-2.3184 z"
       id="path46632"
       transform="scale(0.26458333)" />
    <path
       style="fill:#00ff00;fill-opacity:1;stroke:#000000;stroke-width:0.25344;stroke-dasharray:none;stroke-opacity:1"
       d="m 533.69117,456.00454 c -14.18346,-6.94016 -24.82363,-17.47636 -38.07858,-37.70648 -7.98708,-12.19013 -9.50204,-17.17288 -8.91239,-29.3132 0.21654,-4.45831 1.03974,-11.72705 1.82934,-16.15275 2.53842,-14.22794 1.08075,-22.95441 -5.45328,-32.64644 -2.43854,-3.61711 -2.49682,-3.8231 -1.13835,-4.02337 0.85193,-0.12559 1.62542,-0.88997 1.90993,-1.88747 0.60853,-2.13347 1.98512,-20.38324 1.97871,-26.23229 l -0.005,-4.43905 -4.02011,-0.7909 -4.02011,-0.79091 1.43046,-2.80393 c 3.95303,-7.74858 6.42287,-19.57918 5.6304,-26.96985 -0.23727,-2.21285 -1.60699,-8.54965 -3.04381,-14.08178 -5.30626,-20.43044 -5.88406,-28.71865 -2.57345,-36.9149 4.39604,-10.88349 15.96421,-23.01946 30.24863,-31.73332 8.19306,-4.99797 26.19795,-13.49065 26.96809,-12.72051 0.15389,0.15389 -0.92115,3.43718 -2.38898,7.2962 -4.37542,11.50323 -9.75744,28.6234 -11.58643,36.85637 -2.66745,12.00722 -3.95334,25.95519 -6.49115,70.40894 -1.00435,17.59268 -1.83711,25.85173 -4.02271,39.89582 -3.83758,24.65924 -2.30919,37.69235 7.80132,66.52495 2.43084,6.93213 6.75973,19.69506 9.61976,28.36206 2.86003,8.66701 6.49261,18.77572 8.0724,22.46381 3.58456,8.36831 4.19823,10.39446 3.14727,10.39138 -0.43526,-10e-4 -3.54121,-1.34785 -6.9021,-2.99238 z"
       id="path50052"
       transform="scale(0.26458333)" />
    <path
       style="fill:#00ff00;fill-opacity:1;stroke:#000000;stroke-width:0.25344;stroke-dasharray:none;stroke-opacity:1"
       d="m 532.90388,454.95074 c -8.28131,-4.22117 -16.15507,-10.47368 -22.64465,-17.98201 -8.87056,-10.2631 -18.50069,-24.60947 -21.1514,-31.51007 -2.05063,-5.33842 -2.41928,-15.48282 -0.94197,-25.92094 0.62637,-4.42571 1.29532,-11.69686 1.48655,-16.15813 0.41843,-9.76154 -0.44285,-13.49355 -4.90676,-21.26164 -2.97183,-5.17156 -2.99138,-5.24615 -1.66998,-6.37033 1.09968,-0.93556 1.46033,-2.5066 2.03139,-8.84897 0.38188,-4.2413 0.77433,-11.33074 0.87212,-15.75431 l 0.17779,-8.04286 -3.77543,-0.67444 -3.77543,-0.67444 1.656,-3.68808 c 2.79993,-6.23575 4.88902,-15.63425 4.88902,-21.995 0,-4.46568 -0.65774,-8.47748 -2.98173,-18.18681 -4.89315,-20.44286 -5.4462,-26.68068 -3.05262,-34.43019 3.35142,-10.85063 15.52569,-24.18808 30.35692,-33.25737 5.3095,-3.24675 17.86143,-9.61619 22.73821,-11.53844 l 3.39636,-1.33872 -0.3461,1.53151 c -0.19035,0.84232 -2.04222,6.31296 -4.11526,12.15696 -10.34982,29.1766 -11.64549,36.80724 -14.81951,87.2765 -1.94014,30.84963 -2.39027,35.80453 -4.7516,52.30378 -2.96604,20.72456 -2.3233,34.06934 2.4443,50.74926 2.71281,9.491 19.62299,59.05749 23.06417,67.60482 3.76112,9.342 3.77608,9.38786 3.064,9.38786 -0.33954,0 -3.59952,-1.52008 -7.24439,-3.37794 z"
       id="path50054"
       transform="scale(0.26458333)" />
    <path
       style="fill:url(#linearGradient81326);fill-opacity:1;stroke:#000000;stroke-width:0.25344;stroke-dasharray:none;stroke-opacity:1"
       d="m 533.47188,454.5974 c -13.86383,-7.44289 -23.0854,-16.45456 -35.23612,-34.43411 -6.05427,-8.95857 -8.64659,-13.98253 -9.64783,-18.69769 -1.0404,-4.89957 -0.9356,-14.36345 0.26509,-23.93956 1.34045,-10.69079 1.34732,-23.13711 0.0152,-27.49302 -0.56396,-1.84404 -2.18089,-5.4215 -3.59318,-7.9499 l -2.5678,-4.59709 1.19265,-2.4438 c 1.26363,-2.58926 2.58445,-16.21046 2.58967,-26.70646 0.003,-6.01571 0.24086,-5.69471 -4.85714,-6.55468 l -2.51289,-0.4239 1.40276,-2.74963 c 2.64228,-5.17931 4.76052,-15.05574 4.79054,-22.33629 0.0233,-5.65225 -0.47483,-8.91768 -3.17114,-20.7874 -5.34755,-23.54105 -4.94327,-30.55834 2.3924,-41.52607 4.03635,-6.03485 14.72427,-16.39289 21.79686,-21.12412 5.22817,-3.49741 27.72785,-15.06651 28.26221,-14.53214 0.15088,0.15088 -2.30034,7.92255 -5.44715,17.27037 -3.21386,9.54698 -6.4681,20.66972 -7.425,25.37805 -2.21652,10.90628 -3.96553,28.40965 -6.06398,60.6858 -0.93516,14.38354 -2.61323,33.39396 -3.72905,42.24537 -3.38495,26.85155 -3.31251,37.25332 0.3652,52.44186 2.28519,9.43759 22.14654,68.16502 26.42995,78.14996 0.75152,1.75184 1.15081,3.18012 0.88731,3.17396 -0.2635,-0.006 -3.02584,-1.37844 -6.13853,-3.04951 z"
       id="path50056"
       transform="scale(0.26458333)" />
    <path
       style="fill:#000000;fill-opacity:1;stroke:none;stroke-width:0.1;stroke-dasharray:none;stroke-opacity:1"
       id="path50072"
       d="m 73.068399,120.16603 c 0.03853,0.009 0.07788,0.0148 0.117059,0.0208 0.06391,0.009 0.127633,0.02 0.191204,0.0315 0.07139,0.013 0.142968,0.0244 0.214993,0.0332 0.07219,0.01 0.144719,0.0159 0.217474,0.0194 0.04981,0.002 0.09965,0.003 0.149503,0.003 0.0044,0 0.0088,1e-5 0.01315,1e-5 0.14142,1.1e-4 0.141582,-0.19989 1.59e-4,-0.2 v 0 c -0.0042,0 -0.0084,0 -0.01254,-10e-6 -0.0469,-1.7e-4 -0.0938,-7.9e-4 -0.140666,-0.003 -0.06788,-0.003 -0.13553,-0.009 -0.20288,-0.0182 -0.06821,-0.008 -0.135964,-0.0192 -0.203562,-0.0315 -0.06534,-0.0118 -0.130834,-0.0227 -0.196522,-0.0324 -0.03088,-0.005 -0.06185,-0.009 -0.09241,-0.0154 -0.13598,-0.0388 -0.190926,0.15345 -0.05495,0.19231 z" />
    <path
       id="path50143"
       style="fill:#000000;fill-opacity:1;stroke:none;stroke-width:0.12672;stroke-dasharray:none;stroke-opacity:1"
       transform="scale(0.26458333)"
       d="m 299.49414,215.23242 c -3.91563,-0.0324 -7.81844,0.076 -11.77734,0.32032 -4.76957,0.29439 -10.13984,0.53515 -11.93164,0.53515 -1.7918,0 -3.35136,0.0936 -3.46484,0.20703 -0.11347,0.11348 1.03454,1.58507 2.55078,3.26954 9.53875,10.59711 17.83464,22.74412 26.14258,38.2832 5.7042,10.66988 9.02671,18.40396 12.81445,29.82227 5.1713,15.58995 8.70443,32.17476 10.28516,48.28125 0.57649,5.88053 0.57763,25.01046 -0.004,29.83984 -1.71555,14.32297 -6.06509,30.02636 -11.4375,41.28711 -6.89313,14.44814 -15.27231,25.90385 -29.80078,40.74609 -4.87686,4.98217 -5.38784,5.60819 -4.69532,5.76172 1.45817,0.32311 9.97855,-0.12657 14.93946,-0.78906 7.52195,-1.00454 18.70564,-3.994 23.6875,-6.33203 0.7579,-0.35569 1.75579,-0.75716 2.2168,-0.89258 0.46066,-0.13543 2.35804,-0.95794 4.21484,-1.82617 l 3.375,-1.57813 0.40039,-7.67773 c 0.21974,-4.22284 0.62576,-9.18721 0.90234,-11.03125 0.60108,-4.00752 2.98393,-12.17564 3.78321,-12.96875 0.78607,-0.78 19.3849,-7.9754 19.63867,-7.59766 0.81739,1.2167 2.50344,6.10326 3.74219,10.84375 0.86731,3.31928 1.70158,6.17062 1.85351,6.33594 0.3175,0.34551 7.31176,-6.39793 12.87891,-12.41601 5.63889,-6.09637 11.82857,-13.4341 22.16211,-26.2754 10.99349,-13.66106 13.92655,-17.10363 18.41406,-21.61914 10.56852,-10.63362 21.87913,-16.63296 37.55078,-19.91992 8.90906,-1.86857 23.09767,-4.1043 28.16407,-4.4375 2.95012,-0.19404 5.70228,-0.48695 6.11718,-0.65039 0.68561,-0.27007 0.75582,-0.51905 0.75782,-2.73437 10e-4,-1.34088 0.30062,-5.38069 0.66601,-8.97657 0.78076,-7.68362 1.25207,-18.43931 0.80859,-18.44531 -1.1388,-0.0146 -8.90978,-1.80333 -11.52148,-2.65234 -1.74437,-0.56706 -3.38147,-1.03125 -3.63672,-1.03125 -0.76094,0 -6.95838,-1.97974 -11.74023,-3.75 -19.94276,-7.38409 -37.10224,-19.27221 -56.53321,-39.16602 -16.10715,-16.49082 -19.42326,-19.55921 -25.50195,-23.60156 -10.57455,-7.03255 -22.66752,-11.70574 -38.60547,-14.91797 -13.80707,-2.7827 -25.66843,-4.14896 -37.41602,-4.2461 z" />
    <path
       id="path50155"
       style="fill:url(#radialGradient69614);fill-opacity:1;stroke:none;stroke-width:0.25344;stroke-dasharray:none;stroke-opacity:1"
       transform="scale(0.26458333)"
       d="m 290.20703,215.84375 c -8.65679,0.0922 -16.4696,0.37586 -16.87695,0.78321 -0.14701,0.14701 1.36409,2.1608 3.35938,4.47461 10.79687,12.52015 18.78071,24.80128 27.58203,42.42968 12.92709,25.89198 20.61523,58.62007 20.61523,87.75196 0,13.15699 -1.10298,21.85839 -4.34961,34.28906 -2.77425,10.62332 -4.65995,15.7063 -9.14453,24.64649 -6.16364,12.28749 -13.85,22.77516 -26.0625,35.5664 -3.67114,3.84547 -6.46898,7.19864 -6.2168,7.45117 0.25253,0.25253 1.97988,0.30309 3.8379,0.11329 1.85766,-0.19015 5.4906,-0.53585 8.07226,-0.76758 2.58166,-0.23172 8.1653,-1.28923 12.40625,-2.35157 8.49091,-2.12649 22.79778,-7.72029 22.80078,-8.91406 9e-4,-0.41663 0.30813,-4.83163 0.6836,-9.81055 0.67085,-8.89549 2.53888,-17.76331 4.31836,-20.49804 0.95595,-1.46931 15.97442,-7.68816 19.05078,-7.88867 1.87718,-0.12235 2.49469,1.18093 5.47851,11.55273 l 1.42578,4.95703 6.03516,-5.96289 c 7.48369,-7.39768 14.28778,-15.22248 29.68164,-34.12891 6.60653,-8.11344 14.50566,-17.23713 17.55469,-20.27343 9.37691,-9.33883 19.65067,-15.18861 32.55273,-18.54102 7.82189,-2.0323 25.01334,-4.96822 32.43946,-5.53906 3.06307,-0.23548 5.88023,-0.62164 6.26172,-0.85742 0.63812,-0.39437 3.25411,-28.75156 2.68359,-29.08985 -0.13856,-0.0822 -4.32577,-1.16512 -9.30469,-2.40625 -21.78826,-5.43109 -38.6993,-13.73818 -55.65625,-27.33789 -3.13453,-2.51423 -13.24302,-11.97441 -22.46289,-21.02344 -16.95506,-16.64089 -21.40368,-20.23856 -30.86719,-24.95508 -13.13509,-6.54615 -31.98443,-11.19103 -53.95898,-13.29882 -3.78106,-0.36273 -13.28232,-0.46334 -21.93946,-0.3711 z" />
    <path
       style="fill:url(#radialGradient76942);fill-opacity:1;stroke:none;stroke-width:0.25344;stroke-dasharray:none;stroke-opacity:1"
       d="m 362.09636,493.18683 c -8.6219,-1.71431 -16.1153,-5.80056 -21.85646,-11.91861 -4.81935,-5.13572 -6.85028,-9.00647 -8.9676,-17.0913 -2.61307,-9.97778 -3.24804,-16.33679 -2.8527,-28.56871 0.28855,-8.9281 0.6916,-12.38768 2.02779,-17.40564 0.91721,-3.44451 1.92729,-6.50353 2.24463,-6.7978 0.68186,-0.63233 16.65552,-6.721 17.63257,-6.721 0.36914,0 1.40671,2.48946 2.30571,5.53213 0.899,3.04267 2.2569,7.6444 3.01757,10.22606 1.93984,6.58377 5.32866,11.94867 13.71842,21.71788 9.57921,11.15424 12.883,15.59477 15.565,20.9205 4.50278,8.94134 5.76928,19.75708 2.82081,24.08929 -2.18539,3.211 -4.51121,4.70234 -8.96915,5.75112 -4.24785,0.99935 -12.349,1.12853 -16.68659,0.26608 z"
       id="path61080"
       transform="scale(0.26458333)" />
    <path
       style="fill:url(#linearGradient76948);fill-opacity:1;stroke:none;stroke-width:0.25344;stroke-dasharray:none;stroke-opacity:1"
       d="m 333.05305,479.46368 c -13.32406,-7.11893 -17.65151,-14.665 -15.55111,-27.11755 l 0.82176,-4.87194 4.11984,-1.84316 4.11983,-1.84316 0.48377,5.53271 c 1.00522,11.49663 4.18762,22.44218 8.30311,28.55777 1.2722,1.89048 2.22344,3.52688 2.11386,3.63646 -0.10957,0.10957 -2.09455,-0.81344 -4.41106,-2.05113 z"
       id="path61090"
       transform="scale(0.26458333)" />
    <path
       style="fill:#8bff00;fill-opacity:1;stroke:none;stroke-width:0.17921;stroke-dasharray:none;stroke-opacity:1"
       d="m 354.81865,223.02447 -2.69685,-0.94054 2.51592,-4.83047 c 1.38375,-2.65675 4.05726,-7.81766 5.94114,-11.46868 6.64248,-12.87337 10.51419,-17.46451 18.3471,-21.75633 4.16869,-2.28412 4.17091,-2.2847 11.29417,-2.95044 7.62862,-0.71297 17.97349,-0.92968 19.33425,-0.40502 0.45638,0.17596 0.82978,0.56365 0.82978,0.86153 0,1.4891 -9.9227,9.70213 -29.79378,24.66034 -12.07858,9.09231 -22.07447,16.82702 -22.21309,17.18824 -0.30562,0.79643 -0.22274,0.80479 -3.55864,-0.35863 z"
       id="path61100"
       transform="scale(0.26458333)" />
    <path
       style="fill:#8bff00;fill-opacity:1;stroke:none;stroke-width:0.17921;stroke-dasharray:none;stroke-opacity:1"
       d="m 346.60984,220.5118 c -2.08629,-0.59109 -6.28591,-1.57834 -9.33248,-2.19388 l -5.53922,-1.11918 0.25914,-1.43956 c 0.4291,-2.3837 2.80002,-9.27032 4.49507,-13.05643 2.67561,-5.97632 4.77645,-9.52906 7.20821,-12.18979 3.59135,-3.92951 5.18944,-4.63305 13.10369,-5.76872 9.13082,-1.31025 20.6861,-2.56829 21.40107,-2.32997 0.31541,0.10514 -0.59706,0.85177 -2.02772,1.65918 -6.75161,3.81037 -10.6429,9.07113 -19.42816,26.26549 -3.18396,6.23158 -5.91441,11.31156 -6.06767,11.28885 -0.15326,-0.0227 -1.98563,-0.52491 -4.07193,-1.11599 z"
       id="path61317"
       transform="scale(0.26458333)" />
    <path
       style="fill:#8bff00;fill-opacity:1;stroke:none;stroke-width:0.17921;stroke-dasharray:none;stroke-opacity:1"
       d="m 326.49623,216.41239 c -1.15258,-0.22617 -4.86587,-0.73329 -8.25176,-1.12694 -3.38588,-0.39365 -6.25825,-0.81782 -6.38304,-0.94261 -0.12478,-0.12479 0.22426,-2.91818 0.77566,-6.20755 0.98873,-5.89823 2.37669,-9.52426 4.72708,-12.34943 0.84062,-1.01042 8.47263,-4.18187 13.59844,-5.65078 2.40062,-0.68795 9.07231,-2.34098 13.51352,-3.34823 1.03649,-0.23507 0.90522,0.0181 -1.04507,2.01508 -4.43272,4.53898 -9.9933,15.80868 -12.06295,24.44813 -0.97046,4.05107 -0.82474,3.95648 -4.87188,3.16233 z"
       id="path61319"
       transform="scale(0.26458333)" />
    <path
       style="fill:url(#linearGradient61329);fill-opacity:1;stroke:none;stroke-width:0.17921;stroke-dasharray:none;stroke-opacity:1"
       d="m 300.40494,214.10138 -7.32391,-0.25591 2.88644,-3.35201 c 3.35789,-3.89952 6.4448,-6.71187 10.10182,-9.20334 2.44719,-1.66722 8.15747,-4.75143 8.79709,-4.75143 0.1591,0 -0.136,0.69345 -0.65578,1.54101 -1.16914,1.90642 -2.26837,5.71297 -2.90965,10.07587 -0.98656,6.71205 -0.87726,6.41124 -2.28965,6.30143 -0.70535,-0.0548 -4.57821,-0.21487 -8.60636,-0.35562 z"
       id="path61321"
       transform="scale(0.26458333)" />
    <path
       style="fill:url(#linearGradient61339);fill-opacity:1;stroke:none;stroke-width:0.17921;stroke-dasharray:none;stroke-opacity:1"
       d="m 319.81989,215.31814 c -8.67211,-1.19407 -8.21374,-0.61677 -6.63619,-8.35791 1.14789,-5.63279 2.76388,-9.3976 4.75177,-11.0703 2.63927,-2.2208 12.54391,-5.5731 25.3099,-8.56632 l 1.37711,-0.32289 -1.44284,1.64331 c -4.83431,5.50597 -9.82406,15.85603 -12.43532,25.79414 -0.63213,2.40577 -0.13431,2.36567 -10.92443,0.87997 z"
       id="path61331"
       transform="scale(0.26458333)" />
    <path
       style="fill:url(#linearGradient61349);fill-opacity:1;stroke:none;stroke-width:0.17921;stroke-dasharray:none;stroke-opacity:1"
       d="m 344.23905,219.74778 c -2.86866,-0.7442 -6.67727,-1.6145 -8.46357,-1.93399 -1.85541,-0.33185 -3.35444,-0.85871 -3.49649,-1.22888 -0.32635,-0.85044 2.76077,-10.01338 5.0537,-15.00001 3.90094,-8.4837 8.25102,-13.6867 12.71466,-15.20761 3.44076,-1.17238 27.14571,-4.19243 27.14571,-3.4584 0,0.13929 -0.98189,0.82868 -2.18199,1.53198 -3.15041,1.84626 -7.24235,6.13148 -9.93817,10.40759 -1.28792,2.04288 -5.01768,8.74976 -8.28837,14.90416 -3.31689,6.24136 -6.25251,11.22266 -6.63822,11.26405 -0.38033,0.0408 -3.0386,-0.53468 -5.90726,-1.27889 z"
       id="path61341"
       transform="scale(0.26458333)" />
    <path
       style="fill:url(#linearGradient80586);fill-opacity:1;stroke:none;stroke-width:0.17921;stroke-dasharray:none;stroke-opacity:1"
       d="m 354.67054,222.75351 c -1.04315,-0.41984 -1.94528,-0.79532 -2.00474,-0.83441 -0.18946,-0.12458 9.85444,-19.30453 12.13753,-23.17797 4.29668,-7.28964 8.04401,-11.01175 14.83489,-14.73507 3.75677,-2.05976 5.83847,-2.43436 17.21514,-3.09783 8.9144,-0.51987 13.05664,-0.30199 13.05664,0.68677 0,1.41526 -8.81392,8.65693 -32.0057,26.29641 -8.34519,6.34729 -16.27396,12.47062 -17.61949,13.60742 -2.7168,2.29533 -2.9173,2.34014 -5.61427,1.25468 z"
       id="path61351"
       transform="scale(0.26458333)" />
    <path
       style="fill:url(#radialGradient80582);fill-opacity:1;stroke:none;stroke-width:0.17921;stroke-dasharray:none;stroke-opacity:1"
       d="m 344.23905,219.75818 c -2.86866,-0.74864 -6.67727,-1.62309 -8.46357,-1.94323 -1.85911,-0.33318 -3.35441,-0.85978 -3.49707,-1.23156 -0.43237,-1.12672 3.12216,-11.03418 6.16966,-17.19658 2.37923,-4.8111 3.50998,-6.51144 6.0198,-9.05221 3.85651,-3.90407 5.133,-4.36176 16.36384,-5.86741 11.44727,-1.53466 16.90929,-1.91722 15.70505,-1.09998 -8.22257,5.58013 -10.29064,8.38268 -20.56484,27.86842 -2.84227,5.39055 -5.43261,9.75218 -5.81964,9.79912 -0.38362,0.0465 -3.04457,-0.52793 -5.91323,-1.27657 z"
       id="path61361"
       transform="scale(0.26458333)" />
    <path
       style="fill:url(#linearGradient84256);fill-opacity:1;stroke:none;stroke-width:0.17921;stroke-dasharray:none;stroke-opacity:1"
       d="m 319.81989,215.32347 c -8.67337,-1.18467 -8.21644,-0.60882 -6.63619,-8.36324 1.14789,-5.63279 2.76388,-9.3976 4.75177,-11.0703 2.57456,-2.16634 14.0826,-6.06799 25.3099,-8.58098 l 1.37711,-0.30823 -1.44284,1.64331 c -4.83431,5.50597 -9.82406,15.85603 -12.43532,25.79414 -0.63151,2.40343 -0.11572,2.36163 -10.92443,0.8853 z"
       id="path61371"
       transform="scale(0.26458333)" />
    <path
       style="fill:url(#linearGradient61527);fill-opacity:1;stroke:none;stroke-width:0.17921;stroke-dasharray:none;stroke-opacity:1"
       d="m 302.66215,209.10289 c -0.082,-2.73882 0.011,-4.97922 0.20657,-4.97867 0.19559,5.5e-4 0.35562,2.2414 0.35562,4.97967 0,2.73826 -0.0929,4.97866 -0.20657,4.97866 -0.11361,0 -0.27364,-2.24085 -0.35562,-4.97966 z"
       id="path61519"
       transform="scale(0.26458333)" />
    <path
       style="fill:url(#linearGradient65850);fill-opacity:1;stroke:none;stroke-width:0.25344;stroke-dasharray:none;stroke-opacity:1"
       d="m 60.253324,339.64646 c -4.005391,-0.84118 -8.892766,-3.50271 -11.896183,-6.47832 -3.633189,-3.59955 -5.384643,-7.71089 -5.384643,-12.63982 0,-7.48345 4.301717,-13.52659 12.332698,-17.32522 3.724699,-1.76177 5.110355,-2.054 9.739254,-2.054 4.618445,0 6.029564,0.29614 9.785003,2.05352 13.087201,6.12424 16.400074,19.32687 7.337696,29.24256 -5.394591,5.90254 -14.246647,8.81149 -21.913825,7.20128 z"
       id="path63013"
       transform="scale(0.26458333)" />
    <path
       style="fill:url(#linearGradient65860);fill-opacity:1;stroke:none;stroke-width:0.25344;stroke-dasharray:none;stroke-opacity:1"
       d="m 87.538633,281.25788 c -13.075026,-2.64766 -22.601061,-16.72931 -20.200328,-29.86069 3.721157,-20.35375 26.024159,-28.91987 40.603665,-15.59503 6.50716,5.94718 9.78757,15.07871 8.43469,23.47929 -2.32948,14.46479 -15.68225,24.64045 -28.838027,21.97643 z"
       id="path65852"
       transform="scale(0.26458333)" />
    <path
       style="fill:url(#linearGradient66215);fill-opacity:1;stroke:none;stroke-width:0.25344;stroke-dasharray:none;stroke-opacity:1"
       d="m 67.726695,210.90299 c -4.42938,-0.9702 -8.232969,-2.52672 -11.254618,-4.60567 -15.444839,-10.62633 -17.273222,-31.4706 -3.850539,-43.89763 12.638766,-11.70127 30.389074,-10.91606 42.17068,1.86547 11.370192,12.33521 8.727732,32.13698 -5.592209,41.90623 -5.828267,3.97612 -15.346846,6.07352 -21.473314,4.7316 z"
       id="path65862"
       transform="scale(0.26458333)" />
    <path
       style="fill:url(#linearGradient66225);fill-opacity:1;stroke:none;stroke-width:0.25344;stroke-dasharray:none;stroke-opacity:1"
       d="m 116.00711,151.2409 c -8.33561,-1.78751 -14.93819,-6.01009 -19.06814,-12.19474 -3.233447,-4.84213 -4.308233,-8.24772 -4.308233,-13.65119 0,-5.49439 1.120237,-8.96073 4.484794,-13.87728 9.070079,-13.253886 28.638529,-16.286375 42.240829,-6.54598 4.09786,2.93441 8.69338,9.21821 9.95571,13.61319 1.02581,3.57152 1.02581,10.04862 0,13.62014 -1.20405,4.19209 -5.79141,10.58439 -9.60443,13.38341 -6.31968,4.63907 -16.78597,7.13522 -23.70053,5.65245 z"
       id="path66217"
       transform="scale(0.26458333)" />
    <path
       style="fill:url(#linearGradient66304);fill-opacity:1;stroke:none;stroke-width:0.25344;stroke-dasharray:none;stroke-opacity:1"
       d="M 53.617111,113.39535 C 38.788374,109.7928 28.648042,94.869404 31.075367,80.220968 33.749509,64.083034 48.972728,52.507826 63.904205,55.259059 c 12.644318,2.329807 22.136796,11.983731 24.371261,24.785762 2.102772,12.04752 -5.178322,25.908679 -16.359331,31.143569 -6.46024,3.02465 -12.122403,3.70754 -18.299024,2.20696 z"
       id="path66227"
       transform="scale(0.26458333)" />
    <path
       style="fill:url(#linearGradient66521);fill-opacity:1;stroke:none;stroke-width:0.25344;stroke-dasharray:none;stroke-opacity:1"
       d="M 135.11303,82.135193 C 120.47727,80.349164 108.2069,69.0492 106.33555,55.633604 c -2.5475,-18.262966 13.15516,-34.707995 33.14121,-34.707995 13.06933,0 24.7976,6.953767 30.21467,17.914481 4.2697,8.639156 4.26625,16.954108 -0.0106,25.607815 -6.02506,12.190882 -20.19501,19.441222 -34.56776,17.687288 z"
       id="path66306"
       transform="scale(0.26458333)" />
  </g>
</svg>
