<?xml version="1.0" encoding="UTF-8" standalone="no"?>
<!-- Created with Inkscape (http://www.inkscape.org/) -->

<svg
   width="180mm"
   height="142mm"
   viewBox="0 0 180 142"
   version="1.1"
   id="svg5"
   inkscape:version="1.2.1 (9c6d41e410, 2022-07-14)"
   sodipodi:docname="ślimak.svg"
   inkscape:export-filename="ślimak.png"
   inkscape:export-xdpi="96"
   inkscape:export-ydpi="96"
   xmlns:inkscape="http://www.inkscape.org/namespaces/inkscape"
   xmlns:sodipodi="http://sodipodi.sourceforge.net/DTD/sodipodi-0.dtd"
   xmlns="http://www.w3.org/2000/svg"
   xmlns:svg="http://www.w3.org/2000/svg">
  <sodipodi:namedview
     id="namedview7"
     pagecolor="#ffffff"
     bordercolor="#000000"
     borderopacity="0.25"
     inkscape:showpageshadow="2"
     inkscape:pageopacity="0.0"
     inkscape:pagecheckerboard="0"
     inkscape:deskcolor="#d1d1d1"
     inkscape:document-units="mm"
     showgrid="false"
     inkscape:zoom="1.0544998"
     inkscape:cx="481.74501"
     inkscape:cy="230.44102"
     inkscape:window-width="1920"
     inkscape:window-height="1017"
     inkscape:window-x="-8"
     inkscape:window-y="-8"
     inkscape:window-maximized="1"
     inkscape:current-layer="layer1" />
  <defs
     id="defs2" />
  <g
     inkscape:label="Warstwa 1"
     inkscape:groupmode="layer"
     id="layer1">
    <path
       sodipodi:type="spiral"
       style="fill:none;fill-rule:evenodd;stroke:#000000;stroke-width:0.869779;stroke-dasharray:none"
       id="path2241"
       sodipodi:cx="111.90535"
       sodipodi:cy="56.705399"
       sodipodi:expansion="1"
       sodipodi:revolution="4.0170593"
       sodipodi:radius="38.414467"
       sodipodi:argument="-24.659172"
       sodipodi:t0="0.12319875"
       d="m 107.62655,54.683154 c 0.44867,-3.422393 4.20425,-5.151481 7.32259,-4.418023 4.58846,1.07924 6.81157,6.192737 5.55794,10.505611 -1.67336,5.756872 -8.18854,8.486081 -13.68862,6.69785 -6.92781,-2.252426 -10.167878,-10.187674 -7.837767,-16.871635 2.823917,-8.100463 12.188637,-11.853847 20.054647,-8.977678 9.27427,3.391092 13.54243,14.190737 10.11759,23.237659 -3.95556,10.448867 -16.19359,15.232759 -26.42067,11.257507 C 91.108234,71.5962 85.807957,57.917459 90.33484,46.510761 c 5.079673,-12.799599 20.20077,-18.616735 32.7867,-13.537335 13.97548,5.640192 20.30983,22.204842 14.67725,35.969708 C 131.59875,84.094737 113.58964,90.946567 98.646065,84.760298 82.318154,78.000949 74.948629,58.54667 81.688987,42.424565 89.007244,24.920195 109.90724,17.032806 127.20773,24.327573 c 18.68095,7.876838 27.08634,30.222999 19.23691,48.701758 -0.69577,1.637956 -1.50623,3.227088 -2.42295,4.752403"
       transform="matrix(-1.8803938,-0.01289982,0,1.8109096,285.27872,-35.07645)" />
    <path
       style="fill:#050505;fill-opacity:1;stroke:#000000;stroke-width:0.492648;stroke-opacity:1"
       id="path6203"
       d="m 30.318207,97.095874 c -2.283011,0.586098 -4.435477,1.539326 -6.632126,2.357158 -1.756858,0.675368 -3.520155,1.334198 -5.163216,2.236208 -0.767011,0.39169 -1.502101,0.82778 -2.221799,1.2919 -0.358782,0.2602 -0.748848,0.44467 -1.151532,0.62934 -0.208752,0.0905 -0.105933,0.0511 -0.307765,0.11987 -0.634835,0.22218 -0.302649,1.07132 0.332187,0.84914 v 0 c 0.276739,-0.0987 0.144338,-0.046 0.397898,-0.15645 0.43988,-0.20852 0.873377,-0.41054 1.268677,-0.69394 0.700637,-0.45231 1.41639,-0.87635 2.163743,-1.25725 1.599116,-0.88229 3.32285,-1.51388 5.032458,-2.17634 2.134862,-0.794944 4.227525,-1.714798 6.438853,-2.306546 0.667685,-0.10521 0.510307,-0.998354 -0.157378,-0.89309 z" />
    <path
       style="fill:#050505;fill-opacity:1;stroke:#000000;stroke-width:0.492648;stroke-opacity:1"
       id="path6205"
       d="m 14.118479,104.95057 c -0.533676,0.78276 -1.188743,1.48245 -1.840633,2.17754 -0.569282,0.63344 -1.205266,1.20798 -1.844333,1.77727 -0.7594479,0.63012 -1.5816035,1.19 -2.3594602,1.80143 -0.6928466,0.55414 -1.3436324,1.15155 -2.029489,1.71313 -0.7507867,0.73015 -1.5487749,1.40994 -2.336505,2.1037 -0.5842645,0.4861 -1.16237,0.97852 -1.7595329,1.45043 -0.5192827,0.41068 0.09477,1.10528 0.6140569,0.6946 v 0 c 0.6098469,-0.48268 1.2015074,-0.98492 1.7978586,-1.48243 0.779124,-0.68631 1.5701624,-1.35757 2.3107216,-2.0818 0.6809515,-0.5577 1.327935,-1.14999 2.0148293,-1.70136 0.793018,-0.62365 1.6328617,-1.1928 2.4043017,-1.839 0.658957,-0.58849 1.316045,-1.18109 1.903685,-1.83513 0.69546,-0.74156 1.392779,-1.48991 1.955652,-2.32916 0.335834,-0.55588 -0.495314,-1.00509 -0.831152,-0.44922 z" />
    <path
       style="fill:#050505;fill-opacity:1;stroke:#000000;stroke-width:0.492648;stroke-opacity:1"
       id="path6207"
       d="m 1.8296512,117.69247 c 0.7336802,1.40041 1.755679,2.62701 2.8031681,3.82486 1.672637,1.7648 3.6480264,3.23591 5.6670597,4.62606 2.627751,1.75791 5.523932,3.08555 8.48388,4.25544 3.419563,1.24092 6.84915,2.4615 10.314239,3.58441 4.007415,1.29194 8.035326,2.52835 12.117117,3.5934 3.420218,0.86935 6.891171,1.56995 10.413109,1.94561 0.814528,0.0869 1.632119,0.14595 2.448179,0.21882 5.407506,0.39625 10.834636,0.42542 16.25516,0.45809 5.586919,0.0607 11.162408,-0.2443 16.729454,-0.65171 4.903767,-0.4053 9.783066,-1.03593 14.643753,-1.76379 3.94318,-0.59977 7.87755,-1.26209 11.75933,-2.15402 3.72546,-0.90792 7.36418,-2.09917 10.94673,-3.41792 2.49559,-0.98126 4.97882,-2.01784 7.30715,-3.324 1.11274,-0.62423 2.23884,-1.35293 3.31461,-2.03057 3.06679,-1.94711 6.05459,-4.01341 8.88922,-6.25426 1.6674,-1.29066 3.16792,-2.75491 4.72914,-4.15534 0.17576,-0.15736 0.35145,-0.31487 0.52719,-0.47231 0.49143,-0.44025 -0.16695,-1.09762 -0.6583,-0.65733 v 0 c -0.17595,0.15754 -0.35176,0.31512 -0.52763,0.47268 -1.54671,1.38747 -3.03298,2.83848 -4.68444,4.1177 -2.80712,2.22075 -5.76857,4.26571 -8.80586,6.1953 -1.03839,0.65431 -2.17602,1.38989 -3.25056,1.99355 -2.28962,1.2863 -4.73328,2.30459 -7.18778,3.27084 -3.54284,1.30473 -7.14148,2.48281 -10.82552,3.38186 -3.85639,0.88677 -7.76561,1.54302 -11.68299,2.13953 -4.835499,0.72432 -9.689565,1.35163 -14.567888,1.75538 -5.540452,0.40557 -11.089271,0.7095 -16.649501,0.649 -5.392553,-0.0324 -10.791673,-0.061 -16.171361,-0.4541 -0.803921,-0.0717 -1.609336,-0.12948 -2.411764,-0.21489 -3.478669,-0.37025 -6.906813,-1.06234 -10.284929,-1.92095 -4.063182,-1.05965 -8.07225,-2.29153 -12.061383,-3.57712 -3.445422,-1.11619 -6.855117,-2.33056 -10.255563,-3.56334 -2.891725,-1.14161 -5.721547,-2.43682 -8.28961,-4.1521 -1.9551814,-1.34468 -3.8684952,-2.76735 -5.4926558,-4.47105 -0.9850708,-1.12591 -1.9470463,-2.27513 -2.6519451,-3.58401 -0.2513886,-0.59442 -1.1402033,-0.25817 -0.8888089,0.33628 z" />
    <path
       style="fill:#050505;fill-opacity:1;stroke:#000000;stroke-width:0.492648;stroke-opacity:1"
       id="path6209"
       d="m 149.42935,116.16307 c 0.0707,0.84798 0.31006,1.6701 0.70504,2.43127 0.80761,1.17821 2.04231,2.0031 3.29577,2.71511 1.45297,0.81645 3.04065,1.31501 4.68101,1.65873 1.72061,0.29379 3.47256,0.40753 5.21928,0.38629 1.9018,-0.10684 3.61265,-0.90026 5.26118,-1.73984 1.36622,-0.76314 2.70287,-1.63065 3.77022,-2.75547 0.71602,-0.7546 0.86363,-1.07119 1.43721,-1.94733 1.24975,-2.12236 1.99684,-4.4594 2.60255,-6.80772 0.53926,-2.25811 0.89343,-4.55201 1.19668,-6.84782 0.17747,-1.46093 0.41501,-2.92306 0.47061,-4.394988 0.0348,-0.922009 -0.01,-1.236589 -0.0687,-2.155629 -0.14015,-1.916651 -0.68382,-3.572107 -1.59226,-5.276328 -0.89902,-1.528335 -2.0129,-2.928099 -3.24337,-4.229027 -1.12342,-1.106154 -2.35377,-2.109326 -3.78917,-2.829915 -1.39937,-0.647703 -2.93754,-0.886752 -4.47035,-1.048967 -1.73901,-0.20066 -3.4762,0.04708 -5.19528,0.284266 -1.90492,0.347284 -3.74994,0.917844 -5.63032,1.361157 -1.42345,0.354074 -2.88102,0.563879 -4.31485,0.874312 -0.9975,0.215961 -1.50643,0.363201 -2.49899,0.626027 -2.82403,0.717673 -5.6183,1.532281 -8.40995,2.353898 -2.91527,0.918749 -5.86162,1.73573 -8.85485,2.393229 -0.46447,0.0967 -0.92894,0.193308 -1.39342,0.289971 -0.66107,0.137624 -0.45533,1.021859 0.20574,0.884271 v 0 c 0.46813,-0.09742 0.93626,-0.194883 1.40439,-0.292343 3.01576,-0.663439 5.98526,-1.484276 8.92257,-2.410613 2.78294,-0.819063 5.56848,-1.631209 8.38373,-2.346546 0.94918,-0.251635 1.48179,-0.404905 2.43516,-0.611323 1.4462,-0.313149 2.91641,-0.524765 4.35205,-0.882352 1.84967,-0.436305 3.66506,-0.994552 5.53703,-1.343755 1.63809,-0.226428 3.29365,-0.469896 4.95111,-0.280337 1.41402,0.147946 2.83607,0.359887 4.13035,0.950313 1.33988,0.660687 2.4715,1.613716 3.5223,2.633112 1.17764,1.239505 2.238,2.578334 3.10213,4.033728 0.83146,1.544867 1.37452,3.182377 1.49081,4.923304 0.0565,0.849847 0.10109,1.184419 0.0693,2.03586 -0.0544,1.455715 -0.29046,2.901675 -0.46558,4.346495 -0.29837,2.26151 -0.64703,4.52114 -1.17688,6.74574 -0.58019,2.25684 -1.29485,4.50402 -2.48754,6.54716 -0.50077,0.7735 -0.66537,1.11059 -1.29248,1.77579 -1.00388,1.06483 -2.26599,1.88345 -3.55441,2.60499 -1.51016,0.7723 -3.07763,1.51727 -4.81972,1.63135 -1.67309,0.023 -3.35135,-0.0891 -5.00009,-0.36514 -1.54071,-0.31969 -3.03095,-0.78638 -4.39587,-1.55166 -1.10068,-0.61947 -2.19058,-1.33712 -2.93166,-2.34452 -0.36208,-0.66057 -0.54178,-1.39742 -0.61052,-2.13706 -0.0838,-0.63528 -1.03384,-0.52297 -0.94988,0.11227 z" />
    <path
       style="fill:#050505;fill-opacity:1;stroke:#000000;stroke-width:0.492648;stroke-opacity:1"
       id="path6941"
       d="m 159.96179,83.385612 c -0.11334,-2.012011 -1.00638,-3.844078 -1.8883,-5.642391 -0.20402,-0.374953 -0.39662,-0.755665 -0.61207,-1.124842 -0.30219,-0.517847 -1.0433,-1.648484 -1.36634,-2.160264 -0.65081,-1.031004 -1.29024,-2.065775 -1.96069,-3.085642 -0.19322,-0.289898 -0.38646,-0.579778 -0.57967,-0.869676 -0.36099,-0.541587 -1.17077,-0.05867 -0.80978,0.482861 v 0 c 0.19218,0.288323 0.38436,0.576645 0.57655,0.864968 0.66873,1.01688 1.30607,2.048861 1.95504,3.076968 0.27959,0.442896 1.06762,1.649933 1.33385,2.10536 0.20942,0.358185 0.39653,0.727633 0.5948,1.09145 0.82446,1.678906 1.67336,3.384051 1.79934,5.261208 0,0.640242 0.95727,0.640242 0.95727,0 z" />
    <path
       style="fill:#050505;fill-opacity:1;stroke:#000000;stroke-width:0.492648;stroke-opacity:1"
       id="path7671"
       d="m 168.60861,83.304088 c 0.0295,-1.967736 0.48909,-3.887339 1.08073,-5.763518 0.5152,-1.672985 1.21218,-3.281014 2.09707,-4.807139 0.0695,-0.124043 0.1388,-0.248231 0.20832,-0.372364 0.31651,-0.565907 -0.52966,-0.989301 -0.84618,-0.423376 v 0 c -0.0672,0.12024 -0.1344,0.240354 -0.20156,0.360521 -0.91684,1.582642 -1.64062,3.249868 -2.17522,4.98424 -0.61486,1.960691 -1.09346,3.965966 -1.12046,6.021636 0,0.640242 0.9573,0.640242 0.9573,0 z" />
    <path
       style="fill:#050505;fill-opacity:1;stroke:#000000;stroke-width:0.492648;stroke-opacity:1"
       id="path8399"
       d="m 162.86376,110.07508 c 0.83004,2.22739 2.03372,4.19725 3.46856,6.11671 0.95278,1.22061 2.17122,2.19488 3.52558,2.99146 0.51195,0.28682 0.25921,0.15374 0.75703,0.40146 0.5995,0.29727 1.04399,-0.50463 0.44448,-0.80191 v 0 c -0.44913,-0.22174 -0.21604,-0.0998 -0.69726,-0.36918 -1.24814,-0.72874 -2.36895,-1.62511 -3.24842,-2.74484 -1.37138,-1.83127 -2.55699,-3.76393 -3.34582,-5.89115 -0.22238,-0.60469 -1.12653,-0.30724 -0.90415,0.29745 z" />
    <path
       style="fill:#050505;fill-opacity:1;stroke:#000000;stroke-width:0.492648;stroke-opacity:1"
       id="path8401"
       d="m 161.46931,111.49643 c 1.00581,-0.77919 2.10261,-1.44619 3.15611,-2.16599 0.41333,-0.27144 0.78234,-0.59509 1.16171,-0.906 0.51159,-0.41924 -0.11526,-1.10353 -0.62686,-0.68428 v 0 c -0.35812,0.29348 -0.70498,0.60057 -1.09555,0.85642 -1.07722,0.73663 -2.20019,1.41747 -3.22577,2.21845 -0.50943,0.4216 0.121,1.103 0.63036,0.6814 z" />
    <path
       style="fill:#050505;fill-opacity:1;stroke:#000000;stroke-width:0.492648;stroke-opacity:1"
       id="path10585"
       d="m 164.27437,89.947911 c -0.76971,-0.260634 -1.61018,-0.50633 -2.43936,-0.458668 -0.21293,0.01268 -0.4221,0.05867 -0.63316,0.08801 -1.52793,0.331529 -2.62135,1.217285 -3.60275,2.327586 -1.10675,1.441812 -1.37532,3.179661 -1.58045,4.903512 -0.0479,1.284667 0.27032,2.58201 1.29926,3.484549 0.16944,0.14867 0.36585,0.26755 0.54877,0.40134 1.23933,0.73073 1.86428,0.86812 3.24593,0.38473 1.24733,-0.52476 2.07467,-1.5428 2.8788,-2.542512 0.80796,-1.075768 1.36003,-2.279147 1.7344,-3.543876 0.22913,-0.940263 0.30079,-1.912125 0.1524,-2.866965 -0.15374,-0.644171 -0.53522,-1.207 -0.95286,-1.726241 -0.0712,-0.06646 -0.14225,-0.132735 -0.21336,-0.199121 -0.49075,-0.440958 -1.15007,0.215473 -0.65933,0.656431 v 0 c 0.0381,0.03187 0.0764,0.06374 0.11449,0.09561 0.32528,0.391631 0.62336,0.828479 0.76485,1.311123 0.14206,0.82522 0.0559,1.671917 -0.12847,2.486307 -0.33828,1.1555 -0.84158,2.25403 -1.57438,3.238985 -0.69404,0.86475 -1.39475,1.771059 -2.46114,2.245589 -0.97301,0.37608 -1.43013,0.26826 -2.32289,-0.261321 -0.28458,-0.199193 -0.57741,-0.372889 -0.79471,-0.645638 -0.55639,-0.69837 -0.70408,-1.567286 -0.68051,-2.418111 0.18227,-1.547004 0.39509,-3.119432 1.3668,-4.42726 0.7928,-0.918496 1.76671,-1.728849 3.01538,-2.010435 0.1547,-0.02571 0.30781,-0.06447 0.4644,-0.07696 0.70438,-0.05614 1.42521,0.172574 2.0807,0.385619 0.62217,0.252197 0.99924,-0.580013 0.37709,-0.832209 z" />
    <path
       style="fill:#050505;fill-opacity:1;stroke:#000000;stroke-width:0.492648;stroke-opacity:1"
       id="path12783"
       d="m 157.61706,96.910933 c 0.65495,-0.650003 1.17067,-1.407407 1.77569,-2.095201 0.45654,-0.533366 1.0106,-0.961468 1.6267,-1.317752 0.53759,-0.254441 1.12176,-0.295946 1.7101,-0.258624 0.47958,0.05179 0.89593,0.223512 1.28995,0.47522 0.20792,0.175108 0.0955,0.08312 0.33855,0.274596 0.52018,0.409667 1.13271,-0.28615 0.61252,-0.695799 v 0 c -0.2607,-0.205205 -0.12138,-0.09507 -0.41758,-0.330569 -0.53648,-0.338827 -1.11456,-0.56339 -1.76302,-0.627059 -0.78778,-0.04473 -1.56448,0.03368 -2.27282,0.391468 -0.70195,0.411985 -1.33977,0.900098 -1.8617,1.511004 -0.5986,0.686437 -1.11708,1.434678 -1.76522,2.083467 -0.44051,0.486103 0.28631,1.075351 0.72683,0.589249 z" />
    <path
       style="fill:#b3b3b3;fill-opacity:1;stroke:#000000;stroke-width:0.761039;stroke-dasharray:none;stroke-opacity:1"
       d="m 58.003156,138.71656 c -4.899795,-0.25641 -7.877168,-0.58768 -11.529091,-1.28276 -7.531926,-1.43359 -24.15223,-6.72065 -30.624141,-9.74179 -3.542034,-1.65346 -7.4054296,-4.26551 -9.6181814,-6.50289 -1.5161215,-1.53299 -3.3195179,-3.93701 -3.1895145,-4.25179 0.1140826,-0.27623 4.5763468,-4.16353 6.8190161,-5.94038 2.3081268,-1.82871 4.8187958,-4.36102 5.3415708,-5.38762 0.698408,-1.3715 5.946006,-3.97808 13.136321,-6.525075 l 2.401257,-0.850584 0.481014,0.632653 c 2.800771,3.683706 7.184695,8.099326 10.809157,10.887276 8.519059,6.5529 19.631077,10.87317 30.707186,11.93873 3.633256,0.34953 11.715186,0.16616 14.808692,-0.33599 5.936802,-0.96369 10.525292,-2.36886 15.972588,-4.89139 9.66211,-4.47434 17.34163,-10.9447 23.33411,-19.660095 0.94438,-1.373505 1.90564,-2.871705 2.13612,-3.329331 0.40667,-0.807446 0.4944,-0.849737 2.96663,-1.430105 1.40116,-0.328923 4.60118,-1.200604 7.11116,-1.937058 6.63558,-1.946954 9.42753,-2.685635 12.95385,-3.427288 1.72636,-0.363085 4.15707,-0.916229 5.40157,-1.229208 4.32217,-1.086974 7.41047,-1.178849 10.34721,-0.307817 3.20101,0.949415 7.45761,5.772299 8.52934,9.664046 0.8316,3.01979 -0.0891,11.629086 -1.83937,17.199166 -0.64961,2.06734 -2.21972,5.14924 -2.9572,5.80453 l -0.57304,0.50918 -1.03944,-0.68189 c -0.57169,-0.37504 -1.32871,-0.97323 -1.68225,-1.32931 -0.88038,-0.8867 -3.23025,-4.47168 -3.57078,-5.44763 -0.27089,-0.77634 -0.25247,-0.81742 0.71961,-1.6044 1.09869,-0.8895 1.25345,-1.71962 0.3435,-1.84245 -0.47813,-0.0645 -3.49154,1.78615 -4.84581,2.97606 -1.1852,1.04135 0.0153,2.04303 1.30157,1.08603 l 0.62947,-0.46832 0.66125,1.32249 c 1.18984,2.37962 2.6562,4.32871 4.36902,5.80728 l 1.68356,1.45331 -1.04486,0.57825 c -2.91657,1.61409 -3.76265,1.85435 -6.44912,1.83139 -4.03975,-0.0345 -7.44197,-1.12368 -9.71371,-3.10963 -0.87154,-0.7619 -1.16259,-1.21381 -1.4217,-2.20751 -0.256,-0.98178 -0.436,-1.26503 -0.84012,-1.32207 -0.28287,-0.0399 -0.51431,-0.16772 -0.51431,-0.28398 0,-0.11625 -0.22533,-0.21137 -0.50073,-0.21137 -0.30266,0 -1.53371,0.91021 -3.11233,2.3012 -4.9405,4.35327 -12.76195,9.67222 -17.52655,11.91886 -4.60179,2.16987 -10.95546,4.31127 -16.53151,5.57168 -6.07149,1.37238 -17.766893,3.03819 -26.219243,3.73446 -4.983794,0.41055 -22.120479,0.61103 -27.621771,0.32314 z M 161.41533,101.33008 c 1.2423,-0.55757 2.93365,-2.429772 3.85774,-4.270218 1.68272,-3.351396 1.27977,-6.467859 -0.9607,-7.430223 -3.91907,-1.683375 -8.13371,1.477694 -8.48797,6.366147 -0.1625,2.242464 0.033,3.227763 0.8151,4.106824 1.28809,1.44789 3.19359,1.93763 4.77583,1.22747 z"
       id="path15312" />
    <path
       style="fill:#784421;fill-opacity:1;stroke:#000000;stroke-width:0.0475648;stroke-dasharray:none;stroke-opacity:1"
       d="m 157.48555,95.216289 c 0.006,-0.03124 0.0335,-0.159119 0.0618,-0.284162 0.23181,-1.027806 0.64738,-1.917966 1.15661,-2.477477 0.90868,-0.998432 1.81856,-1.56464 2.84336,-1.769406 0.40778,-0.08147 0.84498,-0.05885 1.38663,0.07178 0.37777,0.0911 0.88962,0.253374 0.96534,0.306048 0.12259,0.08527 0.41672,0.489641 0.5836,0.802337 0.14482,0.271384 0.19337,0.418425 0.22427,0.679268 0.0138,0.115894 0.022,0.213486 0.0184,0.216872 -0.004,0.0034 -0.0721,-0.03281 -0.1523,-0.08051 -0.51353,-0.305276 -1.06664,-0.500742 -1.62795,-0.575307 -0.18705,-0.02486 -0.81863,-0.02841 -1.05277,-0.006 -0.70445,0.06765 -1.22391,0.23394 -1.74887,0.559841 -0.43097,0.26755 -0.83545,0.574588 -1.17613,0.892809 -0.35533,0.331906 -0.53953,0.539652 -1.13531,1.280443 -0.18841,0.234279 -0.34585,0.429155 -0.34986,0.433061 -0.004,0.0038 -0.002,-0.01845 0.003,-0.04969 z"
       id="path15334" />
    <path
       style="fill:#a05a2c;fill-opacity:1;stroke:#000000;stroke-width:0.761039;stroke-dasharray:none;stroke-opacity:1"
       d="M 75.176692,120.05293 C 59.69176,119.23102 44.539268,111.84548 34.973369,100.45727 28.770096,93.072267 25.14174,84.967006 23.62699,75.110998 23.198612,72.323698 23.271473,65.096837 23.758692,62.04824 24.644457,56.505795 26.15223,51.806245 28.590534,46.987993 35.336803,33.656886 47.419621,24.587338 62.446664,21.575059 c 2.881592,-0.577635 3.54861,-0.62643 8.646814,-0.632533 4.712758,-0.0056 5.930152,0.06677 8.286534,0.492879 9.865276,1.783951 18.174147,5.877216 25.000348,12.316112 3.81098,3.594749 6.51617,7.217298 8.85949,11.863813 5.81918,11.538741 5.63165,24.992173 -0.50903,36.518357 C 101.92273,102.4207 76.629597,109.06093 57.047504,96.752292 49.260575,91.857691 43.77008,84.092699 41.745313,75.110998 41.08903,72.199769 41.145977,65.35088 41.851437,62.347489 c 1.463347,-6.229963 4.203352,-11.248798 8.441864,-15.462848 2.53922,-2.524565 5.030497,-4.306087 8.083758,-5.780734 4.488529,-2.167843 8.223051,-3.022988 13.201722,-3.022988 10.769353,0 20.57227,5.56297 25.211218,14.306886 2.125998,4.00728 2.917842,7.608296 2.693943,12.251046 -0.47336,9.815494 -7.123448,18.114896 -16.433509,20.509252 -2.663718,0.685049 -7.340879,0.67914 -10.035445,-0.01268 -3.769894,-0.967902 -6.706702,-2.612583 -9.249872,-5.180144 -1.898893,-1.91711 -3.164471,-3.911668 -4.010729,-6.320947 -0.554505,-1.57867 -0.63837,-2.190491 -0.63837,-4.657159 0,-2.466668 0.08386,-3.078489 0.63837,-4.657158 1.622015,-4.617849 5.246622,-8.018839 9.544347,-8.955507 5.50609,-1.200026 11.106522,1.734608 12.473483,6.536129 0.207375,0.728414 0.373156,0.946586 0.644458,0.848113 0.200902,-0.0729 0.58729,-0.132572 0.858649,-0.132572 0.446472,0 0.479316,-0.09706 0.345437,-1.020898 -0.460117,-3.175094 -3.612906,-6.371963 -7.539459,-7.644878 -2.338839,-0.758201 -6.226346,-0.757996 -8.548844,4.54e-4 -9.340177,3.050208 -13.330095,14.75575 -8.057412,23.638651 4.052038,6.826471 12.771989,10.852481 21.237134,9.805203 5.015459,-0.620488 9.352658,-2.658537 13.087722,-6.149905 7.963508,-7.443937 9.957788,-19.291997 4.922145,-29.242453 C 91.581471,37.892542 72.850751,32.120479 57.670014,39.351742 44.941058,45.415119 37.635563,59.267225 39.625733,73.565897 c 1.658429,11.915234 9.861804,22.373902 21.619975,27.563813 5.424192,2.39417 9.535435,3.28106 15.972592,3.44566 4.057888,0.10376 5.08175,0.0555 7.662841,-0.36115 17.674309,-2.85311 31.202299,-16.615741 33.995029,-34.584668 0.48778,-3.138447 0.48906,-9.179368 0.002,-12.477829 -1.10899,-7.520385 -4.60637,-15.177426 -9.6426,-21.111146 -1.48713,-1.752152 -5.17075,-5.261278 -7.03494,-6.701716 -11.423603,-8.826822 -27.480217,-12.374727 -41.708911,-9.216082 -8.824551,1.958974 -17.061993,6.303348 -23.50272,12.395185 -8.403652,7.948428 -13.852334,18.920229 -15.270157,30.748919 -0.427535,3.566898 -0.172559,11.51708 0.474595,14.797435 0.724902,3.674509 2.135957,8.20231 3.504513,11.245334 0.650074,1.445456 2.956549,5.734822 3.610932,6.715276 0.353846,0.53017 0.480465,0.895196 0.31052,0.895196 -0.506128,0 -8.174552,2.974549 -10.287401,3.990436 -1.122884,0.5399 -2.522761,1.2898 -3.110835,1.66645 l -1.069183,0.68479 -0.692092,-1.18304 C 10.094844,94.616488 7.3612734,86.925922 5.9779615,78.214506 5.462421,74.96788 5.2680998,66.528646 5.6258117,62.920999 6.9564565,49.501097 12.232904,36.916635 20.831331,26.655427 23.160825,23.875454 28.277816,18.997915 31.101813,16.865572 36.093791,13.096221 43.571042,9.1040857 49.460642,7.0637184 52.564058,5.9885847 58.359242,4.6082665 61.846046,4.1137148 65.504719,3.5947856 73.243342,3.416079 76.891799,3.7662624 89.392025,4.9660487 100.58475,9.1011103 110.60448,16.221146 c 5.16082,3.667293 11.54637,10.209483 14.99744,15.365351 4.67758,6.988259 7.81628,14.950706 9.18678,23.305606 0.61518,3.750276 0.60518,13.104321 -0.018,16.924787 -3.14856,19.299744 -14.95253,35.08058 -32.21247,43.06516 -8.65074,4.0019 -17.59223,5.69046 -27.381582,5.17086 z"
       id="path16928" />
    <path
       style="fill:#ffffff;fill-opacity:1;stroke:none;stroke-width:0.380517;stroke-dasharray:none;stroke-opacity:1"
       d="m 159.36305,100.07825 c -0.0991,-0.0337 -0.43848,-0.21487 -0.75424,-0.402648 -0.64676,-0.38463 -1.11564,-1.04674 -1.23301,-1.741137 -0.07,-0.414102 -0.0452,-0.482795 0.2386,-0.65862 0.17421,-0.107963 0.79733,-0.768877 1.3847,-1.468698 1.50888,-1.797735 2.15647,-2.237903 3.29249,-2.237903 0.76184,0 1.17234,0.125456 1.64732,0.503478 0.18654,0.148453 0.40226,0.289813 0.4794,0.314135 0.21068,0.06642 -0.16191,1.166649 -0.77951,2.301883 -1.27327,2.340425 -3.10055,3.78897 -4.27575,3.38951 z"
       id="path30831" />
  </g>
</svg>
