<?xml version="1.0" encoding="UTF-8" standalone="no"?>
<!-- Created with Inkscape (http://www.inkscape.org/) -->

<svg
   width="173mm"
   height="186mm"
   viewBox="0 0 173 186"
   version="1.1"
   id="svg5"
   inkscape:version="1.2.1 (9c6d41e410, 2022-07-14)"
   sodipodi:docname="żaba.svg"
   inkscape:export-filename="żaba.png"
   inkscape:export-xdpi="96"
   inkscape:export-ydpi="96"
   xmlns:inkscape="http://www.inkscape.org/namespaces/inkscape"
   xmlns:sodipodi="http://sodipodi.sourceforge.net/DTD/sodipodi-0.dtd"
   xmlns="http://www.w3.org/2000/svg"
   xmlns:svg="http://www.w3.org/2000/svg">
  <sodipodi:namedview
     id="namedview7"
     pagecolor="#ffffff"
     bordercolor="#000000"
     borderopacity="0.25"
     inkscape:showpageshadow="2"
     inkscape:pageopacity="0.0"
     inkscape:pagecheckerboard="0"
     inkscape:deskcolor="#d1d1d1"
     inkscape:document-units="mm"
     showgrid="false"
     inkscape:zoom="0.70710678"
     inkscape:cx="-19.79899"
     inkscape:cy="381.83766"
     inkscape:window-width="1920"
     inkscape:window-height="1017"
     inkscape:window-x="-8"
     inkscape:window-y="-8"
     inkscape:window-maximized="1"
     inkscape:current-layer="layer1" />
  <defs
     id="defs2" />
  <g
     inkscape:label="Warstwa 1"
     inkscape:groupmode="layer"
     id="layer1">
    <path
       style="fill:#000000;stroke-width:1.3683"
       id="path3096"
       sodipodi:type="arc"
       sodipodi:cx="62.885189"
       sodipodi:cy="36.273556"
       sodipodi:rx="5.4763603"
       sodipodi:ry="12.545844"
       sodipodi:start="0"
       sodipodi:end="6.2624873"
       sodipodi:open="true"
       sodipodi:arc-type="arc"
       d="M 68.361549,36.273556 A 5.4763603,12.545844 0 0 1 62.913526,48.819232 5.4763603,12.545844 0 0 1 57.409122,36.40339 5.4763603,12.545844 0 0 1 62.80018,23.729223 5.4763603,12.545844 0 0 1 68.360376,36.0139" />
    <path
       style="fill:#ffffff;stroke-width:1.3683"
       id="path3848"
       sodipodi:type="arc"
       sodipodi:cx="64.577866"
       sodipodi:cy="30.896772"
       sodipodi:rx="1.1948423"
       sodipodi:ry="2.9871056"
       sodipodi:start="0"
       sodipodi:end="6.2624873"
       sodipodi:open="true"
       sodipodi:arc-type="arc"
       d="m 65.772708,30.896772 a 1.1948423,2.9871056 0 0 1 -1.18866,2.987066 1.1948423,2.9871056 0 0 1 -1.200961,-2.956153 1.1948423,2.9871056 0 0 1 1.176231,-3.017658 1.1948423,2.9871056 0 0 1 1.213134,2.924923" />
    <path
       style="fill:none;stroke:#000000;stroke-width:0.892092;stroke-dasharray:none;stroke-opacity:1"
       id="path5327"
       sodipodi:type="arc"
       sodipodi:cx="63.582161"
       sodipodi:cy="35.67614"
       sodipodi:rx="10.55444"
       sodipodi:ry="22.502861"
       sodipodi:start="0"
       sodipodi:end="6.2624873"
       sodipodi:arc-type="arc"
       d="M 74.1366,35.67614 A 10.55444,22.502861 0 0 1 63.636775,58.1787 10.55444,22.502861 0 0 1 53.028287,35.909018 10.55444,22.502861 0 0 1 63.418326,13.17599 10.55444,22.502861 0 0 1 74.13434,35.210409"
       sodipodi:open="true" />
    <path
       style="fill:#000000;stroke-width:1.3683"
       id="path3096-7"
       sodipodi:type="arc"
       sodipodi:cx="97.137337"
       sodipodi:cy="36.273563"
       sodipodi:rx="5.4763603"
       sodipodi:ry="12.545844"
       sodipodi:start="0"
       sodipodi:end="6.2624873"
       sodipodi:open="true"
       sodipodi:arc-type="arc"
       d="M 102.6137,36.273563 A 5.4763603,12.545844 0 0 1 97.165674,48.81924 5.4763603,12.545844 0 0 1 91.66127,36.403398 5.4763603,12.545844 0 0 1 97.052328,23.729231 5.4763603,12.545844 0 0 1 102.61252,36.013908" />
    <path
       style="fill:#ffffff;stroke-width:1.3683"
       id="path3848-6"
       sodipodi:type="arc"
       sodipodi:cx="98.830017"
       sodipodi:cy="30.896778"
       sodipodi:rx="1.1948423"
       sodipodi:ry="2.9871056"
       sodipodi:start="0"
       sodipodi:end="6.2624873"
       sodipodi:open="true"
       sodipodi:arc-type="arc"
       d="m 100.02486,30.896778 a 1.1948423,2.9871056 0 0 1 -1.18866,2.987066 1.1948423,2.9871056 0 0 1 -1.200961,-2.956153 1.1948423,2.9871056 0 0 1 1.176231,-3.017659 1.1948423,2.9871056 0 0 1 1.21313,2.924923" />
    <path
       style="fill:none;stroke:#000000;stroke-width:0.892092;stroke-dasharray:none;stroke-opacity:1"
       id="path5327-1"
       sodipodi:type="arc"
       sodipodi:cx="97.834312"
       sodipodi:cy="35.676144"
       sodipodi:rx="10.55444"
       sodipodi:ry="22.502861"
       sodipodi:start="0"
       sodipodi:end="6.2624873"
       sodipodi:arc-type="arc"
       d="M 108.38875,35.676144 A 10.55444,22.502861 0 0 1 97.888926,58.178703 10.55444,22.502861 0 0 1 87.280438,35.909022 10.55444,22.502861 0 0 1 97.670477,13.175994 10.55444,22.502861 0 0 1 108.38649,35.210413"
       sodipodi:open="true" />
    <path
       style="fill:#000000;fill-opacity:1;stroke:none;stroke-width:0.793676;stroke-dasharray:none;stroke-opacity:1"
       id="path9986"
       d="m 73.714876,34.579799 c 0.0048,0.130496 0.02492,0.259648 0.03714,0.389533 0.0095,0.09983 0.01111,0.200082 0.0127,0.300254 8.42e-4,0.100178 4.13e-4,0.200351 3.97e-4,0.300525 -0.0095,0.118941 -0.0095,0.238784 -0.0219,0.357518 -0.0079,0.0914 -0.01953,0.182187 -0.0327,0.272975 -0.01111,0.08191 -0.01587,0.164606 -0.01873,0.247221 -0.01905,0.560888 0.774105,0.587919 0.793216,0.02705 v 0 c 0.0016,-0.0538 0.0032,-0.107718 0.01111,-0.161099 0.01429,-0.103861 0.02778,-0.207864 0.03746,-0.312382 0.0127,-0.143163 0.01714,-0.28696 0.02524,-0.430433 1.11e-4,-0.10405 4.13e-4,-0.208093 -4.28e-4,-0.312138 -0.0016,-0.121559 -0.0048,-0.243184 -0.01587,-0.364313 -0.0095,-0.105051 -0.02365,-0.209699 -0.03365,-0.314691 0,-0.561217 -0.793676,-0.561217 -0.793676,0 z" />
    <path
       style="fill:#000000;fill-opacity:1;stroke:none;stroke-width:0.793675;stroke-dasharray:none;stroke-opacity:1"
       id="path9990"
       d="m 73.689987,34.977005 c 0,0.209129 0,0.418258 0,0.627385 0,0.204173 0,0.408342 0,0.61251 0,0.02705 0,0.05408 0,0.08113 0,0.561216 0.793676,0.561216 0.793676,0 v 0 c 0,-0.02705 0,-0.05408 0,-0.08113 0,-0.204168 0,-0.408337 0,-0.61251 0,-0.209127 0,-0.418256 0,-0.627385 0,-0.561212 -0.793676,-0.561212 -0.793676,0 z" />
    <path
       style="fill:#000000;fill-opacity:1;stroke:none;stroke-width:0.793675;stroke-dasharray:none;stroke-opacity:1"
       id="path10002"
       d="m 107.94213,34.928296 c 0,0.09678 0,0.193555 0,0.290333 0,0.08324 0,0.166491 0,0.249736 0.002,0.07759 0.0159,0.154053 0.0218,0.231287 0.003,0.04454 0.003,0.08919 0.003,0.133814 8.4e-4,0.06673 0.0165,0.131782 0.0221,0.19802 0.003,0.04032 0.003,0.08076 0.003,0.121163 1e-5,0.0038 5e-5,0.0073 6e-5,0.01095 0.003,0.561203 0.79658,0.557075 0.79366,-0.0041 v 0 c -10e-6,-0.0038 -3e-5,-0.0079 -6e-5,-0.01175 -4e-4,-0.06278 -8.3e-4,-0.125639 -0.006,-0.188242 -0.002,-0.01726 -0.01,-0.12737 -0.0176,-0.137465 -0.002,-0.0021 -8.4e-4,0.0052 -8.4e-4,0.0078 -3.2e-4,-0.06515 -8.4e-4,-0.130353 -0.006,-0.19534 -0.005,-0.05548 -0.01,-0.11121 -0.0191,-0.166092 0,-0.08324 0,-0.166491 0,-0.249737 0,-0.09678 0,-0.193555 0,-0.290333 0,-0.561216 -0.79366,-0.561216 -0.79366,0 z" />
    <path
       style="fill:#000000;fill-opacity:1;stroke:none;stroke-width:0.793675;stroke-dasharray:none;stroke-opacity:1"
       id="path10006"
       d="m 108.01681,34.928296 c 1.6e-4,0.154417 -0.002,0.308803 0.003,0.463157 0.008,0.146021 0.0143,0.291975 0.0191,0.438122 0.002,0.08378 0.003,0.167596 0.003,0.251403 2e-5,0.08515 -8e-5,0.170276 -1.1e-4,0.255416 0.003,0.03452 -0.002,0.06815 -0.005,0.102274 -0.0533,0.55867 0.73672,0.634121 0.79007,0.07545 v 0 c 0.005,-0.05895 0.0111,-0.118051 0.01,-0.177343 5e-5,-0.08569 1.3e-4,-0.17138 1.2e-4,-0.257066 -1.5e-4,-0.09065 -8.5e-4,-0.181309 -0.003,-0.271932 -0.005,-0.147545 -0.0111,-0.294932 -0.0192,-0.442335 -0.005,-0.145655 -0.002,-0.291417 -0.003,-0.437139 0,-0.561217 -0.79368,-0.561217 -0.79368,0 z" />
    <path
       style="fill:#000000;fill-opacity:1;stroke:none;stroke-width:0.793675;stroke-dasharray:none;stroke-opacity:1"
       id="path12194"
       d="m 53.110218,7.5479013 c 1.641073,-1.2042877 3.410617,-2.2415765 5.343266,-2.904585 0.531048,-0.182182 1.077431,-0.3161609 1.616147,-0.4742405 2.269771,-0.543992 4.606433,-0.8512003 6.943698,-0.7461826 1.137512,0.051113 1.578145,0.1487349 2.659752,0.3197832 0.620115,0.1403379 1.052938,0.2057304 1.627337,0.4411999 0.335757,0.1376551 0.530287,0.2847852 0.822201,0.478928 0.469047,0.3081447 0.904839,-0.3551908 0.435776,-0.6633355 v 0 C 72.177796,3.7519624 71.992044,3.6087721 71.549093,3.4301633 70.926692,3.1791917 70.464296,3.1085704 69.796465,2.9586434 68.662509,2.781052 68.210669,2.6809695 67.017631,2.6292281 64.602998,2.5245105 62.189397,2.8417873 59.845369,3.4077403 c -0.562097,0.1661768 -1.13221,0.3073083 -1.686292,0.4985239 -1.995084,0.6885014 -3.824169,1.7587515 -5.519665,3.0026849 -0.45181,0.3329106 0.01899,0.9718628 0.470806,0.6389522 z" />
    <path
       style="fill:#000000;fill-opacity:1;stroke:none;stroke-width:0.793675;stroke-dasharray:none;stroke-opacity:1"
       id="path12196"
       d="m 88.314216,5.3730698 c 0.90295,-0.6883966 1.940189,-1.1589719 3.040828,-1.4328156 0.364535,-0.090701 0.736103,-0.150354 1.104146,-0.2255374 0.438332,-0.051986 0.874742,-0.1237182 1.314963,-0.1559732 2.904855,-0.2128449 5.897172,0.1640893 8.775947,0.5252993 2.15518,0.28139 4.28564,0.7197944 6.37431,1.3183168 0.53956,0.1544176 0.75795,-0.6086147 0.21839,-0.7630403 v 0 C 107.01459,4.0309142 104.84468,3.5822332 102.64883,3.2965336 99.696533,2.9266805 96.659499,2.5462271 93.679832,2.770693 c -0.462237,0.034811 -0.920426,0.1110988 -1.380647,0.1666418 -0.391822,0.081241 -0.787533,0.1455761 -1.175466,0.2437014 -1.209817,0.305994 -2.350202,0.8325156 -3.336789,1.5988321 -0.419458,0.3728469 0.107781,0.96605 0.527286,0.5931984 z" />
    <path
       style="fill:#000000;fill-opacity:1;stroke:none;stroke-width:0.793675;stroke-dasharray:none;stroke-opacity:1"
       id="path15108"
       d="m 72.167129,21.006277 c 1.097955,-0.409327 2.230023,-0.705813 3.377123,-0.937852 1.370981,-0.267204 2.760057,-0.410042 4.153466,-0.483899 1.001144,-0.03864 2.008144,-0.0043 3.005287,0.09207 1.191864,0.137354 2.369314,0.381709 3.5367,0.654965 0.558955,0.133227 1.113592,0.284768 1.668927,0.432424 0.256199,0.110083 0.520715,0.195903 0.777072,0.30467 0.172926,0.124655 0.375695,0.194892 0.568114,0.282828 0.04302,0.0163 0.08603,0.03264 0.129051,0.04895 0.526303,0.19487 0.801883,-0.549424 0.275597,-0.744294 v 0 c -0.02508,-0.0089 -0.05016,-0.01784 -0.07524,-0.02675 -0.199927,-0.09103 -0.403902,-0.167938 -0.587543,-0.291374 -0.290818,-0.123385 -0.589955,-0.224364 -0.883599,-0.341189 -0.563098,-0.14902 -1.124957,-0.303738 -1.691721,-0.438109 -1.20215,-0.280669 -2.414426,-0.532481 -3.641878,-0.672206 -1.036478,-0.09797 -2.082384,-0.136845 -3.12291,-0.09454 -1.43222,0.07633 -2.860028,0.223445 -4.26912,0.49862 -1.185372,0.241081 -2.35579,0.546424 -3.490572,0.969796 -0.52743,0.191792 -0.256199,0.937684 0.271231,0.745893 z" />
    <path
       style="fill:#000000;fill-opacity:1;stroke:none;stroke-width:0.793675;stroke-dasharray:none;stroke-opacity:1"
       id="path16568"
       d="m 52.912945,27.048218 c -1.199869,0.657515 -2.392628,1.32847 -3.558889,2.044573 -1.6475,0.976319 -3.155048,2.152782 -4.549118,3.460725 -1.23751,1.200407 -2.310244,2.550888 -3.302384,3.956678 -0.926213,1.32232 -1.798413,2.678992 -2.594318,4.083406 -0.633399,1.107587 -1.223316,2.238837 -1.836136,3.357863 -0.383015,0.780329 -0.720282,1.581335 -1.054496,2.383262 -0.16993,0.444203 -0.431548,0.659321 0.469461,0.881776 0.124433,0.0307 0.201477,-0.158465 0.30222,-0.237684 0.422734,-0.369126 -0.09929,-0.966969 -0.522028,-0.597843 v 0 c -0.215701,0.251115 -0.247216,0.219158 0.315113,0.672573 0.115813,0.09338 0.04095,-0.570293 0.167859,-0.413563 0.32329,-0.77608 0.649951,-1.55096 1.018008,-2.307315 0.610925,-1.115708 1.199189,-2.243503 1.830555,-3.347839 0.782654,-1.381887 1.641435,-2.716121 2.552366,-4.017217 0.960278,-1.362669 1.999549,-2.671163 3.197083,-3.835526 1.353743,-1.272398 2.820128,-2.414194 4.421224,-3.363017 1.146379,-0.704443 2.319466,-1.363277 3.49842,-2.010969 0.501963,-0.250979 0.14702,-0.960867 -0.35494,-0.709883 z" />
    <path
       style="fill:#000000;fill-opacity:1;stroke:none;stroke-width:0.793675;stroke-dasharray:none;stroke-opacity:1"
       id="path16570"
       d="m 108.76547,32.111166 c 1.33885,0.70824 2.46611,1.757586 3.61883,2.725647 2.0455,1.699793 4.12018,3.362913 6.11261,5.125215 1.11681,1.04707 2.21409,2.12193 3.20586,3.289905 0.48894,0.575795 0.66612,0.820101 1.12604,1.416688 0.94008,1.286924 1.86035,2.590156 2.73499,3.92267 0.33892,0.496605 0.1712,0.265213 0.49946,0.696833 0.34036,0.44622 0.97142,-0.03516 0.63104,-0.481355 v 0 c -0.30128,-0.393666 -0.14397,-0.177874 -0.46703,-0.65106 -0.88592,-1.349153 -1.8173,-2.669173 -2.76998,-3.971795 -0.472,-0.611761 -0.65585,-0.864955 -1.1581,-1.455637 -1.01419,-1.192726 -2.13443,-2.291797 -3.27648,-3.360774 -1.99772,-1.766566 -4.07694,-3.434771 -6.12799,-5.138477 -1.22695,-1.030341 -2.4288,-2.158771 -3.87826,-2.870808 -0.53241,-0.177471 -0.7834,0.575474 -0.25099,0.752948 z" />
    <path
       style="fill:#000000;fill-opacity:1;stroke:none;stroke-width:0.793675;stroke-dasharray:none;stroke-opacity:1"
       id="path18787"
       d="m 35.660783,46.308229 c -0.440306,-0.06022 -1.185139,-0.177134 -1.591322,-0.150719 -1.532436,0.09964 -3.074792,0.64079 -4.453852,1.286298 -0.479907,0.22463 -0.934879,0.49907 -1.402319,0.748602 -1.865033,1.170768 -3.015062,2.480464 -3.951822,4.472886 -0.535685,1.139357 -0.620477,1.594173 -0.972883,2.790767 -0.08621,0.485652 -0.208834,0.966231 -0.258607,1.456956 -0.230985,2.27719 0.33292,4.512454 1.210948,6.599008 0.218456,0.519137 0.483032,1.01764 0.724546,1.526458 1.239952,2.309463 2.792438,4.441733 4.510264,6.417998 0.325427,0.374381 0.665096,0.736141 0.997645,1.104209 1.56646,1.723568 3.478219,3.068449 5.34572,4.439619 0.622052,0.483452 1.289462,0.892565 1.997472,1.234531 0.505845,0.243067 0.849595,-0.472305 0.343751,-0.715372 v 0 C 37.495009,77.201649 36.872408,76.813073 36.288799,76.360536 34.464421,75.021282 32.594274,73.710259 31.06219,72.028506 30.73621,71.66798 30.403252,71.313641 30.084246,70.946934 28.409587,69.021852 26.89464,66.945587 25.682171,64.697511 25.4497,64.210065 25.195301,63.73249 24.984756,63.235183 c -0.825983,-1.950965 -1.380963,-4.050779 -1.17309,-6.184748 0.04497,-0.461717 0.159033,-0.914072 0.238545,-1.371111 0.332259,-1.139093 0.407198,-1.554397 0.910767,-2.639059 0.84833,-1.82725 1.916067,-3.076506 3.627019,-4.148199 0.442608,-0.237851 0.873276,-0.499402 1.327823,-0.713553 1.207096,-0.568693 2.756571,-1.133717 4.101768,-1.229025 0.38583,-0.02733 1.10972,0.08683 1.52546,0.143639 0.555005,0.08326 0.67274,-0.701643 0.117734,-0.784891 z" />
    <path
       style="fill:#000000;fill-opacity:1;stroke:none;stroke-width:0.793675;stroke-dasharray:none;stroke-opacity:1"
       id="path18795"
       d="m 127.15258,49.298023 c 0.5962,-0.568023 1.34236,-1.03368 2.17309,-1.156261 0.28691,-0.04233 0.57967,-0.0207 0.8695,-0.03108 0.35257,0.05367 0.70925,0.08507 1.05769,0.161024 1.40058,0.305308 3.18851,0.994853 4.35592,1.837211 0.2731,0.197067 0.51198,0.437686 0.76797,0.656525 0.20126,0.262324 0.42914,0.506227 0.6038,0.786963 0.57227,0.919834 0.86844,2.023825 0.96317,3.095211 0.0841,0.951418 -0.002,1.409749 -0.0884,2.361049 -0.43927,2.550085 -1.48303,4.95142 -2.84778,7.139392 -0.28616,0.458794 -0.60329,0.897538 -0.90493,1.346311 -1.63893,2.288008 -3.63418,4.277962 -5.68102,6.196059 -1.98923,1.757297 -4.08002,3.394611 -6.12052,5.091456 -0.4315,0.358837 0.076,0.969077 0.50748,0.610237 v 0 c 2.05251,-1.706899 4.15612,-3.353399 6.15578,-5.122607 2.09028,-1.959386 4.12626,-3.993643 5.79722,-6.332753 0.31101,-0.463791 0.63812,-0.917201 0.93306,-1.391378 1.42305,-2.287838 2.50531,-4.799536 2.95124,-7.466239 0.0911,-1.043727 0.18034,-1.513726 0.081,-2.560454 -0.11414,-1.202604 -0.46256,-2.431726 -1.12069,-3.454687 -0.20809,-0.323436 -0.4777,-0.602857 -0.71655,-0.904286 -0.28939,-0.242921 -0.56063,-0.509269 -0.86817,-0.728762 -1.24453,-0.888239 -3.16348,-1.635782 -4.65451,-1.944682 -0.39879,-0.08262 -0.80677,-0.112226 -1.21015,-0.168336 -0.35144,0.0207 -0.70687,0.0054 -1.05431,0.06216 -0.98203,0.160645 -1.86517,0.72202 -2.5596,1.409812 -0.35928,0.431137 0.25044,0.939238 0.60972,0.5081 z" />
    <path
       style="fill:#000000;fill-opacity:1;stroke:none;stroke-width:0.793675;stroke-dasharray:none;stroke-opacity:1"
       id="path18799"
       d="m 121.8388,76.9238 c -0.14795,0.574673 -0.39507,1.126128 -0.73746,1.612607 -0.11937,0.169714 -0.25658,0.326263 -0.38487,0.489391 -1.32348,1.54519 -2.93833,2.808377 -4.54106,4.048439 -2.10991,1.566669 -4.39871,2.866298 -6.69036,4.143448 -1.72263,0.90477 -3.50771,1.6981 -5.3429,2.346883 -1.35473,0.478933 -1.84782,0.597041 -3.23525,0.994441 -2.916517,0.791478 -5.869659,1.454369 -8.85712,1.916047 -0.582622,0.09004 -1.167767,0.162821 -1.751643,0.244227 -3.388029,0.458421 -6.80725,0.570426 -10.221105,0.642098 -3.045891,0.102051 -6.087893,-0.108924 -9.124561,-0.317749 C 68.098379,92.900897 65.286512,92.404151 62.49093,91.840457 60.276097,91.388223 58.067673,90.878292 55.914815,90.182646 54.719982,89.796569 54.187354,89.56997 53.034334,89.120247 50.84892,88.2304 48.758048,87.131096 46.755891,85.886457 45.496358,85.095528 44.366248,84.130559 43.260709,83.142031 42.619304,82.548518 42.112641,81.832868 41.531874,81.18429 41.137741,80.766795 40.755545,80.338609 40.368921,79.914229 40.04055,79.52336 39.689227,79.148913 39.388466,78.735901 c -0.132544,-0.190262 -0.259048,-0.384881 -0.38278,-0.58108 -0.300131,-0.47422 -0.970774,-0.04976 -0.670647,0.424446 v 0 c 0.134036,0.211156 0.269542,0.421655 0.413515,0.626133 0.32023,0.433827 0.684625,0.833506 1.034049,1.243759 0.385804,0.422196 0.765767,0.8496 1.15864,1.265294 0.601735,0.668565 1.12141,1.411899 1.790471,2.01926 1.139894,1.018988 2.306455,2.012074 3.605285,2.826878 2.044051,1.269582 4.177888,2.392081 6.409061,3.299131 1.18445,0.461511 1.713121,0.686817 2.941748,1.083446 2.17599,0.70246 4.407839,1.218238 6.646276,1.675315 2.829424,0.570207 5.675467,1.071928 8.56394,1.216953 3.060336,0.210397 6.126053,0.422123 9.195675,0.319447 3.444968,-0.07243 6.895284,-0.186444 10.314108,-0.649535 0.591479,-0.08259 1.184244,-0.156465 1.774438,-0.247751 3.016556,-0.46655 5.998477,-1.136093 8.943335,-1.935632 1.41811,-0.406719 1.91277,-0.524978 3.29825,-1.015385 1.87125,-0.662352 3.69137,-1.471991 5.44761,-2.395627 2.32627,-1.296613 4.64904,-2.617014 6.78971,-4.20905 1.65471,-1.280871 3.32036,-2.587296 4.68128,-4.188152 0.14572,-0.188339 0.30095,-0.369661 0.43708,-0.565016 0.38555,-0.553262 0.66045,-1.18153 0.82926,-1.832441 0.13604,-0.544456 -0.63386,-0.736952 -0.76997,-0.192494 z" />
    <ellipse
       style="fill:#ff0000;fill-opacity:1;stroke:#000000;stroke-width:0.793675;stroke-dasharray:none;stroke-opacity:1"
       id="path19533"
       cx="35.516342"
       cy="57.945877"
       rx="7.3223023"
       ry="7.3927093" />
    <ellipse
       style="fill:#ff0000;fill-opacity:1;stroke:#000000;stroke-width:0.793675;stroke-dasharray:none;stroke-opacity:1"
       id="path19533-0"
       cx="125.7778"
       cy="58.297909"
       rx="7.3223023"
       ry="7.3927093" />
    <path
       style="fill:#000000;fill-opacity:1;stroke:#000000;stroke-width:0.793675;stroke-dasharray:none;stroke-opacity:1"
       id="path22635"
       d="m 37.616378,65.727666 c 0.852056,0.710605 1.781992,1.319809 2.654964,2.00558 1.301388,1.106561 2.616085,2.192954 3.991283,3.206836 1.051694,0.755956 2.160891,1.427934 3.354117,1.937522 1.098094,0.468958 1.58839,0.601719 2.744148,0.982782 4.128615,1.247088 8.408509,1.858955 12.673407,2.420146 5.1311,0.653542 10.299599,0.895194 15.465748,1.049584 2.967476,0.107845 5.939936,0.04516 8.897602,-0.221542 1.820868,-0.164199 2.187943,-0.233345 3.983191,-0.475035 4.216389,-0.599556 8.344997,-1.68178 12.435062,-2.846839 0.54992,-0.166929 1.10115,-0.329611 1.64975,-0.500784 1.13475,-0.354067 1.76146,-0.557463 2.86019,-0.968785 1.11892,-0.41889 2.22007,-0.886495 3.32245,-1.346527 1.75031,-0.718368 3.45013,-1.549514 5.13522,-2.407484 0.84398,-0.418812 1.64495,-0.91372 2.43252,-1.428644 0.45016,-0.310005 0.893,-0.628926 1.35663,-0.918693 0.39373,-0.268232 0.79745,-0.520724 1.1947,-0.783561 0.46796,-0.309817 0.0298,-0.971593 -0.43814,-0.661782 v 0 c -0.39137,0.259291 -0.7897,0.507524 -1.1774,0.772431 -0.46797,0.292867 -0.91622,0.613401 -1.37011,0.927311 -0.76364,0.499284 -1.53974,0.979977 -2.35833,1.385668 -1.66724,0.84894 -3.34891,1.671639 -5.08075,2.3823 -1.08981,0.454811 -2.17834,0.917344 -3.2844,1.331779 -1.08626,0.407018 -1.69925,0.60578 -2.82314,0.956537 -0.54426,0.169855 -1.0911,0.331285 -1.63664,0.496929 -4.053446,1.154908 -8.145005,2.228509 -12.323584,2.823571 -1.778041,0.239699 -2.133687,0.307157 -3.937792,0.470247 -2.929602,0.264832 -5.87395,0.326629 -8.81333,0.219583 -5.139465,-0.153481 -10.281297,-0.393319 -15.385936,-1.043161 -4.215817,-0.554403 -8.446738,-1.157484 -12.528672,-2.3871 -1.11391,-0.366346 -1.597138,-0.497525 -2.653772,-0.946743 -1.146791,-0.48755 -2.211722,-1.132696 -3.221836,-1.858594 -1.368998,-1.008783 -2.675961,-2.09188 -3.97207,-3.19222 -0.867285,-0.680531 -1.789694,-1.287042 -2.63698,-1.991028 -0.431137,-0.359282 -0.939235,0.250438 -0.5081,0.609716 z" />
    <path
       style="fill:#000000;fill-opacity:1;stroke:#000000;stroke-width:0.793675;stroke-dasharray:none;stroke-opacity:1"
       id="path23363"
       d="m 74.265672,62.392285 c 0,0.481418 0,0.962837 0,1.444255 0,0.561212 0.793676,0.561212 0.793676,0 v 0 c 0,-0.481418 0,-0.962837 0,-1.444255 0,-0.561212 -0.793676,-0.561212 -0.793676,0 z" />
    <path
       style="fill:#000000;fill-opacity:1;stroke:#000000;stroke-width:0.793675;stroke-dasharray:none;stroke-opacity:1"
       id="path23365"
       d="m 83.418552,62.251472 c 0,0.343091 0,0.686178 0,1.02927 0,0.561211 0.793676,0.561211 0.793676,0 v 0 c 0,-0.343092 0,-0.686179 0,-1.02927 0,-0.561213 -0.793676,-0.561213 -0.793676,0 z" />
    <path
       style="fill:#000000;fill-opacity:1;stroke:#000000;stroke-width:0.793675;stroke-dasharray:none;stroke-opacity:1"
       id="path27727"
       d="m 53.161414,90.530572 c -0.700585,1.667994 -1.222037,3.402583 -1.733391,5.135667 -0.904909,2.881727 -1.443463,5.857891 -1.98168,8.824461 -0.664315,3.84625 -1.177534,7.71698 -1.624955,11.59389 -0.361091,3.66739 -0.696678,7.33454 -1.203561,10.9854 -0.583772,3.68417 -0.871523,7.40135 -1.045787,11.12426 -0.103162,2.47032 -0.118496,4.94299 -0.121258,7.4151 -8.4e-4,0.56121 0.793049,0.56209 0.793675,8.4e-4 v 0 c 0.003,-2.46003 0.01786,-4.92062 0.1204,-7.3789 0.172947,-3.69882 0.458714,-7.39194 1.039124,-11.05221 0.507486,-3.65695 0.844803,-7.33003 1.205863,-11.00356 0.445295,-3.85995 0.956351,-7.71373 1.61744,-11.5432 0.533093,-2.93862 1.065272,-5.887046 1.96199,-8.74155 0.504229,-1.709369 1.017663,-3.420501 1.709062,-5.065481 0.208426,-0.521074 -0.528483,-0.815837 -0.736909,-0.294763 z" />
    <path
       style="fill:#000000;fill-opacity:1;stroke:#000000;stroke-width:0.793675;stroke-dasharray:none;stroke-opacity:1"
       id="path27729"
       d="m 111.07575,87.782543 c 0.65674,1.941217 1.3596,3.864753 2.06064,5.790393 1.05383,2.955109 2.13483,5.906108 3.03375,8.913464 0.2447,0.81872 0.46765,1.6438 0.70146,2.46569 1.24046,4.68046 2.46038,9.37672 3.33727,14.1419 0.18958,1.03026 0.34742,2.0661 0.52114,3.09916 0.79965,5.31492 1.40521,10.65798 1.92795,16.00664 0.33421,3.21341 0.54394,6.43826 0.71969,9.66372 0.0356,1.29747 0.0513,0.71407 -0.0127,1.75077 -0.0333,0.56023 0.75899,0.60729 0.79227,0.0471 v 0 c 0.0638,-1.11278 0.05,-0.49926 0.0127,-1.84103 -0.17642,-3.23682 -0.38695,-6.47301 -0.72227,-9.69774 -0.52462,-5.36688 -1.1322,-10.72815 -1.93518,-16.0611 -0.17524,-1.04128 -0.33453,-2.0854 -0.52571,-3.12388 -0.88101,-4.78564 -2.10585,-9.5022 -3.35201,-14.20272 -0.23604,-0.82931 -0.46115,-1.66178 -0.70814,-2.48789 -0.90236,-3.018114 -1.98692,-5.979843 -3.04467,-8.945567 -0.70192,-1.92803 -1.40528,-3.854074 -2.06327,-5.79756 -0.19705,-0.525478 -0.9402,-0.2468 -0.74315,0.278679 z" />
    <path
       style="fill:#000000;fill-opacity:1;stroke:#000000;stroke-width:0.793675;stroke-dasharray:none;stroke-opacity:1"
       id="path31381"
       d="m 123.64966,149.89267 c -1.06646,0.92949 -2.108,1.88724 -3.15897,2.83419 -1.15858,1.04856 -2.29403,2.12445 -3.52935,3.084 -0.95492,0.74173 -1.35414,0.99854 -2.35617,1.69428 -2.72203,1.88581 -5.65755,3.41178 -8.67036,4.77024 -2.82663,1.12775 -5.7151,2.14578 -8.686848,2.82263 -0.617797,0.14064 -1.242214,0.2506 -1.863329,0.3759 -3.971857,0.69409 -8.012796,0.76923 -12.033433,0.83577 -5.102258,-0.005 -10.184103,-0.57641 -15.221756,-1.3421 -3.890267,-0.6268 -7.75074,-1.41319 -11.571915,-2.37316 -1.672669,-0.47617 -3.316117,-1.09703 -4.844239,-1.93455 -0.743935,-0.40773 -1.000098,-0.61905 -1.679549,-1.10289 -1.275147,-0.95504 -2.271826,-2.19076 -3.245368,-3.43584 -0.421803,-0.57132 -0.764004,-1.19002 -0.995156,-1.86079 -0.184869,-0.52989 -0.934249,-0.26843 -0.749378,0.26146 v 0 c 0.264751,0.75115 0.641421,1.44914 1.119374,2.08832 1.021123,1.30509 2.071095,2.59633 3.410857,3.59385 0.734712,0.52084 0.981245,0.7264 1.786125,1.1667 1.578693,0.8636 3.276506,1.50264 5.003985,1.99351 3.845709,0.9658 7.730802,1.75766 11.646054,2.38806 5.08148,0.77179 10.207501,1.34835 15.35411,1.351 4.068971,-0.0675 8.158356,-0.14556 12.177453,-0.85138 0.634004,-0.12826 1.271358,-0.24083 1.901997,-0.38472 3.016456,-0.68825 5.948796,-1.72123 8.817356,-2.86829 3.05658,-1.37934 6.03517,-2.92784 8.79678,-4.84185 1.02241,-0.71035 1.42849,-0.97164 2.4035,-1.72986 1.24561,-0.96865 2.39229,-2.05238 3.56055,-3.11067 1.06117,-0.95619 2.11368,-1.92219 3.18891,-2.86258 0.39683,-0.39684 -0.16437,-0.95806 -0.56123,-0.56123 z" />
    <path
       style="fill:#000000;fill-opacity:1;stroke:#000000;stroke-width:0.793675;stroke-dasharray:none;stroke-opacity:1"
       id="path31389"
       d="m 45.362268,145.0559 c 0.0013,0.13064 8.4e-4,0.26106 -0.0065,0.39152 -0.0098,0.14143 -0.01429,0.28303 -0.01671,0.42471 -0.01,0.13652 -0.01748,0.27306 -0.022,0.40981 -0.0083,0.12143 -0.0176,0.24271 -0.03007,0.36377 -0.01064,0.12191 -0.02192,0.24374 -0.03767,0.36509 -0.01159,0.11477 -0.03041,0.22842 -0.04992,0.34206 -0.02506,0.12921 -0.04391,0.25979 -0.06242,0.39016 -0.01016,0.10032 -0.03302,0.19869 -0.05237,0.2975 -0.02256,0.12889 -0.03759,0.25899 -0.05737,0.38831 -0.02113,0.12112 -0.02259,0.24435 -0.04154,0.36559 -0.0208,0.15318 -0.03759,0.30701 -0.05211,0.46093 -0.01064,0.15382 -0.02427,0.30736 -0.0333,0.46129 -0.0084,0.17294 -0.0098,0.34612 -0.01095,0.51925 -4.19e-4,0.14286 -3.34e-4,0.28571 -2.42e-4,0.42857 10e-5,0.15048 1.25e-4,0.30079 1.42e-4,0.45119 1.6e-5,0.15858 1.3e-5,0.31711 1.3e-5,0.47565 0,0.17602 0,0.35203 0,0.52805 4.19e-4,0.21213 0.01206,0.42406 0.01819,0.6361 0.0065,0.1914 0.003,0.38301 0.0098,0.57438 0.0081,0.17653 0.02587,0.35238 0.04287,0.52821 0.0094,0.11508 0.01689,0.22955 0.03414,0.34365 0.09526,0.55308 0.877412,0.41837 0.782163,-0.13477 v 0 c -0.01238,-0.0425 -0.0041,-0.01 -0.01048,-0.0951 -0.0064,-0.0841 -0.0083,-0.10397 -0.01587,-0.1903 -0.01556,-0.16083 -0.03205,-0.32161 -0.03981,-0.48304 -0.0081,-0.1885 -0.0017,-0.37743 -0.0097,-0.56597 -0.0059,-0.20442 -0.01705,-0.40875 -0.01789,-0.61323 3e-6,-0.17602 3e-6,-0.35203 3e-6,-0.52805 0,-0.15857 0,-0.31717 -1.2e-5,-0.47574 -2.1e-5,-0.15048 -4.2e-5,-0.30108 -1.46e-4,-0.4516 -9.3e-5,-0.14112 -2.91e-4,-0.28233 2.3e-4,-0.42349 8.39e-4,-0.15925 0.0021,-0.31854 0.0095,-0.47764 0.0084,-0.14461 0.02151,-0.28888 0.03121,-0.43343 0.01302,-0.14 0.02852,-0.27999 0.04711,-0.41939 0.01718,-0.12096 0.02368,-0.24286 0.04129,-0.3638 0.01735,-0.11795 0.03238,-0.23617 0.05143,-0.35386 0.02176,-0.11238 0.04741,-0.22421 0.05922,-0.33831 0.01722,-0.1227 0.03503,-0.24563 0.05884,-0.3673 0.02129,-0.12492 0.04187,-0.24985 0.05497,-0.37598 0.01595,-0.12762 0.0291,-0.25553 0.03978,-0.38368 0.01429,-0.13937 0.02529,-0.2791 0.03381,-0.41899 0.0046,-0.14096 0.01381,-0.28163 0.02235,-0.42243 0.0021,-0.13191 0.0065,-0.26369 0.01572,-0.3953 0.0078,-0.14477 0.0092,-0.28948 0.0076,-0.43446 0,-0.56121 -0.793675,-0.56121 -0.793675,0 z" />
    <ellipse
       style="fill:#ffaaaa;fill-opacity:1;stroke:#000000;stroke-width:0.793675;stroke-dasharray:none;stroke-opacity:1"
       id="path33569"
       cx="85.288475"
       cy="145.20335"
       rx="19.714897"
       ry="20.90974" />
    <ellipse
       style="fill:#00ff00;fill-opacity:1;stroke:#000000;stroke-width:0.904546;stroke-dasharray:none;stroke-opacity:1"
       id="path37570"
       cx="58.205376"
       cy="134.44977"
       rx="10.100723"
       ry="43.556313" />
    <ellipse
       style="fill:#00ff00;fill-opacity:1;stroke:#000000;stroke-width:0.887832;stroke-dasharray:none;stroke-opacity:1"
       id="path37570-8"
       cx="109.18532"
       cy="132.45837"
       rx="9.5116587"
       ry="44.560371" />
    <circle
       style="fill:#008000;fill-opacity:1;stroke:#000000;stroke-width:0.793675;stroke-dasharray:none;stroke-opacity:1"
       id="path40502"
       cx="58.105812"
       cy="180.35162"
       r="3.8832374" />
    <ellipse
       style="fill:#008000;fill-opacity:1;stroke:#000000;stroke-width:0.793675;stroke-dasharray:none;stroke-opacity:1"
       id="path41284"
       cx="66.071419"
       cy="175.17398"
       rx="4.0823779"
       ry="4.281518" />
    <ellipse
       style="fill:#008000;fill-opacity:1;stroke:#000000;stroke-width:0.793675;stroke-dasharray:none;stroke-opacity:1"
       id="path41286"
       cx="50.837177"
       cy="175.27357"
       rx="3.9828076"
       ry="4.1819477" />
    <ellipse
       style="fill:#008000;fill-opacity:1;stroke:#000000;stroke-width:0.793675;stroke-dasharray:none;stroke-opacity:1"
       id="path41298"
       cx="108.8866"
       cy="180.45117"
       rx="3.8832374"
       ry="3.7836671" />
    <ellipse
       style="fill:#008000;fill-opacity:1;stroke:#000000;stroke-width:0.793675;stroke-dasharray:none;stroke-opacity:1"
       id="path41300"
       cx="116.65307"
       cy="174.87526"
       rx="4.0823779"
       ry="4.1819477" />
    <ellipse
       style="fill:#008000;fill-opacity:1;stroke:#000000;stroke-width:0.793675;stroke-dasharray:none;stroke-opacity:1"
       id="path41302"
       cx="101.81712"
       cy="174.97485"
       rx="3.9828076"
       ry="4.0823779" />
    <path
       style="fill:#008000;fill-opacity:1;stroke:#000000;stroke-width:0.793675;stroke-dasharray:none;stroke-opacity:1"
       id="path49355"
       d="m 46.478245,123.52018 c -1.579844,-0.0584 -3.123228,0.1654 -4.640377,0.58767 -1.360505,0.36519 -2.687014,0.86554 -3.908852,1.56811 -1.286727,0.74701 -2.396794,1.7176 -3.480046,2.72706 -1.489617,1.41319 -2.867952,2.94273 -4.149782,4.54565 -1.371166,1.79514 -2.471674,3.77106 -3.424935,5.81319 -1.038539,2.25953 -1.669255,4.64719 -2.084782,7.08959 -0.181177,1.43405 -0.357202,2.88309 -0.35294,4.33176 0.003,0.93981 0.06389,1.28155 0.163929,2.21286 0.297868,2.01516 0.932481,3.96587 1.612002,5.88071 0.537533,1.25851 0.954564,2.61635 1.801274,3.71135 0.05754,0.0702 0.118972,0.13731 0.172602,0.21044 0.02075,0.0283 -0.0708,-0.0403 -0.07356,-0.0752 -0.0086,-0.10858 0.113623,-0.24207 0.04192,-0.32408 -0.06772,-0.0775 -0.205227,0.0159 -0.307997,0.0198 -0.661539,0.0302 -0.752713,0.024 -1.485036,0.0321 -2.499255,-0.0432 -4.994754,0.0554 -7.487187,0.23045 -2.337094,0.15826 -4.675326,0.20201 -6.997615,0.52657 -1.477866,0.24633 -2.9360396,0.62102 -4.283497,1.28258 -0.9975525,0.59604 -1.4430081,1.60328 -1.7530497,2.67393 -0.3047479,1.18996 -0.2046812,2.0884 0.3537383,3.17196 1.0197993,1.60662 2.7222458,2.44787 4.4109884,3.1788 2.444929,0.98067 5.038462,1.43249 7.627438,1.8325 2.572722,0.3614 5.147288,0.7013 7.731112,0.97342 2.824298,0.2914 5.652898,0.49547 8.490002,0.60046 2.207982,0.066 4.416924,0.0908 6.625794,0.0979 0.800358,0.002 1.600713,-0.001 2.401066,-0.003 0.768531,-0.0209 1.541125,0.0408 2.306666,-0.0378 0.100273,-0.0165 0.200535,-0.033 0.300803,-0.0497 0.553534,-0.0925 0.422712,-0.87533 -0.13083,-0.78282 v 0 c -0.08541,0.0143 -0.170826,0.0289 -0.256238,0.0435 -0.735381,0.087 -1.483263,8.4e-4 -2.222109,0.033 -0.798916,0.002 -1.597832,0.005 -2.396753,0.003 -2.199962,-0.008 -4.399998,-0.0318 -6.599074,-0.0975 -2.819154,-0.10413 -5.629804,-0.30713 -8.436227,-0.59665 -2.571119,-0.27061 -5.13296,-0.60911 -7.693049,-0.96846 -2.522513,-0.38958 -5.05036,-0.82511 -7.434056,-1.77682 -1.5210373,-0.65473 -3.0798141,-1.39095 -4.0232903,-2.81993 -0.4630847,-0.85557 -0.5428206,-1.63497 -0.2928777,-2.58399 0.2396204,-0.85098 0.5629593,-1.6841 1.3407842,-2.18015 1.2695358,-0.62819 2.6501168,-0.97138 4.0428148,-1.20851 2.303893,-0.32384 4.624507,-0.36079 6.943061,-0.52084 2.476928,-0.17402 4.956867,-0.27169 7.440582,-0.22857 0.558675,-0.006 3.393586,0.2308 2.26674,-1.14745 -0.812468,-1.00828 -1.148328,-2.3265 -1.67705,-3.48612 -0.659942,-1.85628 -1.276242,-3.74765 -1.57083,-5.70043 -0.09411,-0.86333 -0.156893,-1.22815 -0.159881,-2.09777 -0.0049,-1.41409 0.166621,-2.82869 0.342298,-4.22864 0.401961,-2.37276 1.013655,-4.69171 2.021611,-6.887 0.925101,-1.98579 1.995132,-3.90646 3.325595,-5.65307 1.256971,-1.57333 2.61009,-3.07348 4.070994,-4.46065 1.039155,-0.96897 2.10095,-1.90338 3.335838,-2.62035 1.161285,-0.67407 2.431099,-1.1404 3.725427,-1.49097 1.447158,-0.40589 2.919165,-0.61521 4.426831,-0.55841 0.561211,0 0.561211,-0.79366 0,-0.79366 z" />
    <path
       style="fill:#008000;fill-opacity:1;stroke:#000000;stroke-width:0.842163;stroke-dasharray:none;stroke-opacity:1"
       id="path49355-9"
       d="m 121.32275,120.58932 c 1.68186,-0.0619 3.32488,0.17496 4.93998,0.62155 1.44835,0.38623 2.8605,0.91541 4.16126,1.65848 1.36976,0.79007 2.55153,1.8166 3.70472,2.88424 1.58578,1.49461 3.05313,3.11232 4.4177,4.80761 1.45971,1.89862 2.63127,3.98844 3.64607,6.14824 1.10557,2.38973 1.77702,4.91503 2.21939,7.49816 0.19288,1.51673 0.38025,3.04929 0.37571,4.58145 -0.003,0.99397 -0.0681,1.35541 -0.17449,2.34039 -0.3171,2.13129 -0.99269,4.19442 -1.71608,6.21966 -0.57223,1.33102 -1.01619,2.76713 -1.91756,3.92522 -0.0613,0.0741 -0.12682,0.14524 -0.18376,0.22257 -0.0222,0.03 0.0754,-0.0425 0.0782,-0.0797 0.008,-0.11477 -0.12111,-0.25602 -0.0446,-0.34276 0.0722,-0.0819 0.21848,0.0168 0.32787,0.0211 0.70429,0.0319 0.80134,0.0254 1.58094,0.034 2.66062,-0.0457 5.31723,0.0586 7.9706,0.24374 2.48798,0.16725 4.97719,0.21366 7.44943,0.55692 1.57329,0.26054 3.12559,0.65683 4.56006,1.35651 1.06195,0.63038 1.53619,1.69569 1.86623,2.82802 0.32444,1.25854 0.21791,2.20877 -0.37658,3.35479 -1.08564,1.69922 -2.89801,2.58893 -4.69576,3.362 -2.60282,1.03719 -5.36381,1.51507 -8.11995,1.93811 -2.73881,0.38222 -5.4796,0.74172 -8.23026,1.02953 -3.00667,0.3082 -6.01789,0.52403 -9.03818,0.63505 -2.35052,0.0698 -4.70208,0.096 -7.05359,0.10365 -0.85201,0.002 -1.70405,-0.001 -2.55606,-0.003 -0.81817,-0.0222 -1.64066,0.0433 -2.45561,-0.04 -0.10682,-0.0175 -0.21348,-0.0349 -0.32021,-0.0527 -0.58931,-0.0979 -0.45003,-0.92581 0.13937,-0.82795 v 0 c 0.0908,0.0143 0.18183,0.0306 0.27277,0.046 0.7829,0.0921 1.57903,8.9e-4 2.36561,0.0349 0.85046,0.002 1.70096,0.005 2.55147,0.003 2.34202,-0.008 4.68408,-0.0335 7.02517,-0.10318 3.00118,-0.11016 5.99329,-0.32484 8.98089,-0.63104 2.73714,-0.2862 5.46437,-0.64422 8.18977,-1.02425 2.68536,-0.41206 5.37644,-0.87268 7.91403,-1.87925 1.61923,-0.69247 3.27865,-1.47111 4.28305,-2.98246 0.493,-0.90489 0.57788,-1.72918 0.31179,-2.7329 -0.25509,-0.90004 -0.59929,-1.78117 -1.42733,-2.30582 -1.35151,-0.66438 -2.82126,-1.02733 -4.30386,-1.27815 -2.45263,-0.34249 -4.92308,-0.38158 -7.39133,-0.55084 -2.63686,-0.18406 -5.27692,-0.28736 -7.92098,-0.24177 -0.59479,-0.006 -3.61269,0.24413 -2.4131,-1.21355 0.8649,-1.06638 1.22244,-2.4606 1.78531,-3.68706 0.70257,-1.96326 1.35865,-3.96364 1.67226,-6.02896 0.10017,-0.91311 0.16694,-1.29894 0.17028,-2.21869 0.005,-1.49557 -0.17739,-2.9917 -0.36441,-4.47235 -0.4279,-2.5095 -1.0791,-4.96209 -2.15213,-7.28391 -0.98484,-2.10026 -2.12394,-4.13161 -3.54032,-5.97888 -1.33811,-1.66402 -2.77858,-3.25061 -4.33384,-4.7177 -1.10626,-1.02484 -2.23659,-2.0131 -3.55121,-2.77141 -1.23626,-0.71291 -2.58806,-1.20613 -3.96597,-1.57691 -1.54062,-0.42926 -3.10763,-0.65064 -4.71265,-0.59057 -0.59744,0 -0.59744,-0.83942 0,-0.83942 z" />
    <path
       style="fill:#00ff00;fill-opacity:1;stroke:#000000;stroke-width:0.532207;stroke-dasharray:none;stroke-opacity:1"
       d="m 29.742996,174.7183 c -4.550254,-0.3626 -11.974115,-1.34328 -14.754618,-1.94906 -2.976712,-0.64853 -6.0163174,-1.98648 -7.1126557,-3.13082 -0.5915432,-0.61743 -0.7909025,-1.10346 -0.7909025,-1.92814 0,-3.20045 2.8439164,-4.03233 15.0542442,-4.40363 3.33024,-0.10127 6.340131,-0.28939 6.688645,-0.41806 0.820076,-0.30274 0.799555,-0.85017 -0.08868,-2.36585 -0.878331,-1.49877 -2.204377,-5.32321 -2.674835,-7.71449 -0.758135,-3.85353 0.21261,-9.48856 2.427303,-14.0901 1.608907,-3.34288 3.132078,-5.47005 5.940182,-8.2957 3.589939,-3.61239 6.317385,-5.06516 10.20683,-5.43668 l 1.799842,-0.17192 -0.177701,0.95972 c -0.504913,2.72691 -1.084953,9.2305 -1.351329,15.15157 -0.645672,14.3521 -0.658352,13.29749 0.179717,14.95133 0.410243,0.80958 1.592519,2.31859 2.627282,3.35335 1.869506,1.86951 1.884697,1.89733 2.405044,4.40632 0.288009,1.38871 0.803573,3.49319 1.145698,4.67662 l 0.622052,2.15171 -1.368011,0.13143 c -1.853407,0.17808 -3.313122,1.35092 -3.880478,3.11785 l -0.42244,1.31559 -6.759048,-0.0378 c -3.717476,-0.0208 -8.089738,-0.14381 -9.716133,-0.27334 z"
       id="path51836" />
    <path
       style="fill:#00ff00;fill-opacity:1;stroke:#000000;stroke-width:0.532207;stroke-dasharray:none;stroke-opacity:1"
       d="m 121.17057,173.94923 c -0.21355,-1.33549 -1.45637,-2.90157 -2.71703,-3.42376 -0.48869,-0.20242 -1.45236,-0.29392 -2.26912,-0.21544 -1.22153,0.11731 -1.39491,0.0732 -1.24215,-0.31651 0.47345,-1.20787 1.85191,-7.18004 2.28678,-9.90742 l 0.48878,-3.06557 2.97389,-2.65631 c 4.61124,-4.11882 4.206,-3.57815 4.07732,-5.43998 -0.062,-0.8977 -0.24875,-3.59653 -0.4149,-5.9974 -0.3227,-4.66319 -1.15837,-12.6347 -1.82821,-17.43949 -0.2251,-1.61464 -0.40927,-3.05811 -0.40927,-3.20771 0,-0.44018 2.82657,-0.0254 5.01632,0.73612 2.58234,0.89804 5.07185,2.68941 7.79508,5.60906 2.69007,2.8841 4.03993,4.83968 5.64985,8.18502 2.05168,4.26333 3.04364,9.46808 2.61911,13.74237 -0.21182,2.13273 -1.91012,7.43857 -2.94878,9.2126 -0.854,1.45865 -0.79438,2.35725 0.17418,2.62508 0.38723,0.10715 2.54168,0.20858 4.78765,0.22555 7.99784,0.0605 13.53481,0.62573 16.13397,1.64719 1.81092,0.71169 2.50231,3.2048 1.34104,4.83568 -2.40242,3.37389 -14.2943,5.5465 -32.00744,5.84765 l -9.32234,0.15858 z"
       id="path51838" />
    <path
       style="fill:#00ff00;fill-opacity:1;stroke:#000000;stroke-width:0.532207;stroke-dasharray:none;stroke-opacity:1"
       d="m 74.803321,165.30513 c -0.232344,-0.0476 -2.08888,-0.30266 -4.12564,-0.56685 -2.03676,-0.26416 -3.850185,-0.57114 -4.029831,-0.68218 -0.242349,-0.14984 -0.155798,-1.2445 0.335402,-4.24261 l 0.66203,-4.04075 0.769463,1.31299 c 1.653227,2.82102 5.013505,5.88145 8.27228,7.53412 l 1.636632,0.83001 -1.548951,-0.0291 c -0.851918,-0.016 -1.739043,-0.0681 -1.971385,-0.11571 z"
       id="path51840" />
    <path
       style="fill:#00ff00;fill-opacity:1;stroke:#000000;stroke-width:0.532207;stroke-dasharray:none;stroke-opacity:1"
       d="m 47.6468,156.27356 c -1.300846,-1.70367 -1.349502,-1.93149 -1.201116,-5.62424 0.06797,-1.6916 0.260689,-6.54452 0.428252,-10.78427 0.167567,-4.23976 0.373716,-7.7777 0.458113,-7.86209 0.0844,-0.0844 0.155878,1.42014 0.158827,3.34342 0.0071,4.60446 0.440927,12.30197 0.996233,17.67552 0.245635,2.37694 0.386657,4.38165 0.313391,4.45492 -0.07327,0.0733 -0.592438,-0.46819 -1.1537,-1.20326 z"
       id="path51842" />
    <path
       style="fill:#00ff00;fill-opacity:1;stroke:#000000;stroke-width:0.047041;stroke-dasharray:none;stroke-opacity:1"
       d="m 79.799663,165.80986 c -0.7974,-0.0452 -1.45565,-0.0862 -1.460421,-0.091 -0.0056,-0.005 0.08091,-0.36604 0.103717,-0.43277 0.0075,-0.0221 0.05613,-0.0127 0.177109,0.0324 0.301869,0.11365 0.737762,0.26021 1.142254,0.38414 0.412272,0.12635 0.413037,0.12857 0.03733,0.10714 z"
       id="path51844" />
    <path
       style="fill:#00ff00;fill-opacity:1;stroke:#000000;stroke-width:0.047041;stroke-dasharray:none;stroke-opacity:1"
       d="m 66.18776,164.22662 c -0.117338,-0.0225 -0.131005,-0.0314 -0.118814,-0.0776 0.0076,-0.0287 0.04473,-0.20296 0.08254,-0.38724 l 0.06875,-0.33504 0.02902,0.27282 c 0.03078,0.28947 0.05402,0.37304 0.135639,0.48765 l 0.05086,0.0714 -0.0577,-0.003 c -0.03175,-0.002 -0.117368,-0.0143 -0.190291,-0.0287 z"
       id="path51846" />
    <path
       style="fill:#00ff00;fill-opacity:1;stroke:#000000;stroke-width:0.0940821;stroke-dasharray:none;stroke-opacity:1"
       d="m 91.984564,165.32443 c 3.444796,-1.32519 6.324181,-3.41671 8.601666,-6.24809 0.3502,-0.43538 0.41069,-0.49067 0.43113,-0.39404 0.0132,0.0617 0.0941,0.54925 0.18001,1.08319 0.14304,0.88887 0.56257,3.21102 0.62676,3.46922 0.0252,0.10159 -0.0303,0.12699 -0.83634,0.3839 -2.83652,0.90402 -5.085461,1.40933 -7.758599,1.74327 -0.533941,0.0667 -1.161234,0.13508 -1.393983,0.15206 l -0.42317,0.0308 z"
       id="path51848" />
    <circle
       id="path53263"
       style="fill:#00ff00;stroke:#000000;stroke-width:0.419986"
       cx="78.429268"
       cy="165.56261"
       r="0.0011076591" />
    <path
       style="fill:#00ff00;fill-opacity:1;stroke:none;stroke-width:0.793675;stroke-dasharray:none;stroke-opacity:1"
       id="path53271"
       d="m 76.845278,165.34543 c 0.0063,0.001 0.01429,0.003 0.02127,0.003 0.04254,0.008 0.01794,0.002 0.06683,0.0111 0.06175,0.0111 0.123179,0.0249 0.184673,0.0375 0.09794,0.0202 0.196133,0.0389 0.293485,0.0619 0.07984,0.0186 0.159656,0.0373 0.239849,0.0543 0.09969,0.0198 0.199451,0.039 0.299486,0.0568 0.05476,0.01 0.110004,0.0159 0.16491,0.024 0.02603,0.003 0.04048,0.006 0.06619,0.0111 0.05064,0.01 0.10159,0.017 0.152544,0.0245 0.03318,0.005 0.06683,0.008 0.100321,0.008 0.01429,2.9e-4 0.0063,1.8e-4 0.01937,3.4e-4 0.224467,0.003 0.227991,-0.31498 0.0032,-0.31746 v 0 c -0.0079,-9e-5 -0.0048,-3e-5 -0.0127,-1.9e-4 -0.02143,-4.3e-4 -0.04286,-0.002 -0.06429,-0.005 -0.04841,-0.006 -0.09683,-0.0143 -0.145084,-0.0233 -0.02921,-0.005 -0.04413,-0.008 -0.07381,-0.0127 -0.05159,-0.008 -0.103496,-0.0127 -0.154926,-0.0224 -0.09667,-0.0171 -0.192942,-0.0359 -0.289184,-0.0549 -0.07794,-0.0165 -0.15556,-0.0348 -0.233166,-0.0529 -0.100321,-0.0235 -0.201403,-0.043 -0.302311,-0.0638 -0.08905,-0.0182 -0.177911,-0.0378 -0.267723,-0.0519 -0.219134,-0.0487 -0.288009,0.2612 -0.06889,0.3099 z" />
    <path
       style="fill:#00ff00;fill-opacity:1;stroke:none;stroke-width:0.793675;stroke-dasharray:none;stroke-opacity:1"
       id="path53273"
       d="m 76.234814,165.04956 c 0.01698,0.01 0.03333,0.0214 0.05079,0.0308 0.06318,0.0341 0.130798,0.061 0.196562,0.0895 0.04667,0.0203 0.09318,0.0406 0.139846,0.0609 0.132544,0.0565 0.27058,0.0981 0.408711,0.13842 0.148418,0.0394 0.298772,0.0706 0.449682,0.0981 0.08857,0.0159 0.177958,0.0272 0.267675,0.0345 0.223769,0.0179 0.249071,-0.29856 0.02524,-0.31645 v 0 c -0.07905,-0.006 -0.157942,-0.0164 -0.236024,-0.0302 -0.140163,-0.0256 -0.279961,-0.0546 -0.417902,-0.0906 -0.125242,-0.0365 -0.250595,-0.0738 -0.370948,-0.12477 -0.106512,-0.0463 -0.213388,-0.0919 -0.318741,-0.1408 -0.177196,-0.13778 -0.372107,0.11287 -0.194911,0.2506 z" />
    <path
       style="fill:#00ff00;fill-opacity:1;stroke:none;stroke-width:0.793675;stroke-dasharray:none;stroke-opacity:1"
       id="path53275"
       d="m 75.18432,165.05702 c 0.140163,0.037 0.281977,0.0683 0.42322,0.10128 0.184022,0.0408 0.368504,0.0798 0.553605,0.1154 0.153021,0.0264 0.30528,0.0568 0.457634,0.0867 0.106352,0.0179 0.211626,0.0419 0.317565,0.0624 0.09699,0.019 0.1938,0.0389 0.290565,0.059 0.08937,0.0171 0.177943,0.0371 0.267231,0.0543 0.113337,0.0222 0.227071,0.0429 0.340757,0.0635 0.120798,0.0238 0.242405,0.0421 0.363996,0.0606 0.09953,0.0175 0.199086,0.0341 0.299533,0.0449 0.05762,0.008 0.115401,0.0159 0.173339,0.0205 0.223769,0.0179 0.249278,-0.29841 0.02556,-0.31646 v 0 c -0.05524,-0.005 -0.110003,-0.0127 -0.164894,-0.0195 -0.09572,-0.01 -0.190466,-0.0268 -0.285326,-0.043 -0.118734,-0.0182 -0.237595,-0.036 -0.355504,-0.0592 -0.112702,-0.0205 -0.225261,-0.0408 -0.337582,-0.0629 -0.08778,-0.0168 -0.174752,-0.0365 -0.262437,-0.0533 -0.09842,-0.0205 -0.196911,-0.0406 -0.295533,-0.06 -0.1054,-0.02 -0.210102,-0.0443 -0.315994,-0.0621 -0.152862,-0.03 -0.305455,-0.0606 -0.458936,-0.087 -0.181021,-0.0348 -0.361376,-0.073 -0.541366,-0.11286 -0.13175,-0.0308 -0.263707,-0.0608 -0.394997,-0.0933 -0.212959,-0.071 -0.313359,0.23018 -0.100321,0.30117 z" />
    <path
       style="fill:#00ff00;fill-opacity:1;stroke:none;stroke-width:0.793675;stroke-dasharray:none;stroke-opacity:1"
       id="path53305"
       d="m 78.758609,165.41713 c -0.04937,-0.003 -0.09857,-0.008 -0.147941,-0.0127 -0.05318,-0.005 -0.106511,-0.0111 -0.159593,-0.0167 -0.05159,-0.006 -0.103019,-0.0127 -0.154449,-0.0195 -0.04413,-0.005 -0.0881,-0.0111 -0.132068,-0.0181 -0.04683,-0.008 -0.09365,-0.0143 -0.14048,-0.0217 -0.05064,-0.008 -0.101115,-0.0167 -0.151592,-0.0251 -0.04873,-0.008 -0.09667,-0.0198 -0.144608,-0.0311 -0.0454,-0.0111 -0.09111,-0.0213 -0.136671,-0.0311 -0.02048,-0.005 -0.04111,-0.008 -0.06143,-0.0127 -0.218515,-0.0514 -0.291215,0.25763 -0.0727,0.30903 v 0 c 0.02222,0.005 0.04445,0.01 0.06667,0.0143 0.04381,0.01 0.08762,0.0192 0.131116,0.0298 0.05476,0.0127 0.109686,0.0262 0.165275,0.0354 0.0527,0.01 0.105241,0.0184 0.158259,0.0262 0.04603,0.006 0.09207,0.0143 0.138099,0.0213 0.04699,0.008 0.09397,0.0143 0.141275,0.0194 0.05254,0.006 0.105082,0.0143 0.157783,0.02 0.05635,0.006 0.112702,0.0127 0.169053,0.0176 0.05302,0.005 0.105876,0.01 0.158894,0.0127 0.224229,0.0111 0.23934,-0.30643 0.01587,-0.3171 z" />
    <path
       style="fill:#000000;fill-opacity:1;stroke:none;stroke-width:0.793675;stroke-dasharray:none;stroke-opacity:1"
       id="path53311"
       d="m 78.505585,165.72793 c -0.05175,-0.0143 -0.105241,-0.0219 -0.158418,-0.0286 -0.04572,-0.005 -0.09175,-0.008 -0.137623,-0.0111 -0.03222,-0.003 -0.06445,-0.003 -0.09667,-0.006 -0.02476,-0.003 -0.04984,-0.005 -0.07476,-0.006 -0.0346,-0.002 -0.06905,-0.005 -0.103495,-0.008 -0.0454,-0.005 -0.0908,-0.01 -0.136354,-0.0127 -0.04286,-0.003 -0.08572,-0.006 -0.128417,-0.0111 -0.223372,-0.0222 -0.254929,0.29358 -0.03159,0.31589 v 0 c 0.04476,0.005 0.08937,0.008 0.134131,0.0111 0.04524,0.003 0.09016,0.008 0.135401,0.0127 0.03683,0.003 0.07365,0.006 0.11048,0.008 0.02492,0.002 0.04984,0.003 0.07461,0.006 0.03048,0.002 0.06095,0.003 0.09127,0.005 0.04143,0.003 0.08302,0.005 0.12429,0.01 0.03476,0.005 0.06968,0.01 0.103813,0.017 0.214562,0.066 0.307914,-0.23742 0.09334,-0.30344 z" />
    <path
       style="fill:#000000;fill-opacity:1;stroke:none;stroke-width:0.793675;stroke-dasharray:none;stroke-opacity:1"
       id="path53313"
       d="m 78.696718,165.00063 c -0.0032,0 -0.0063,0 -0.0095,0 -0.01111,0 -0.02063,2.3e-4 -0.03175,-8.5e-4 -0.02159,-0.002 -0.04302,-0.006 -0.06429,-0.01 -0.05445,-0.0111 -0.10921,-0.0224 -0.163989,-0.0321 -0.03286,-0.005 -0.0654,-0.0127 -0.09762,-0.0214 -0.02714,-0.008 -0.05445,-0.0143 -0.08143,-0.0221 -0.215642,-0.0624 -0.303883,0.24258 -0.08826,0.30496 v 0 c 0.02968,0.008 0.05953,0.0162 0.08937,0.0241 0.04064,0.0111 0.08159,0.0202 0.12302,0.027 0.05413,0.01 0.108098,0.0203 0.161925,0.0316 0.05381,0.01 0.107782,0.0181 0.162656,0.016 0.224484,0 0.224484,-0.31749 0,-0.31749 z" />
    <path
       style="fill:#000000;fill-opacity:1;stroke:none;stroke-width:0.793675;stroke-dasharray:none;stroke-opacity:1"
       id="path53315"
       d="m 80.050841,165.73789 c -2.38e-4,0.0276 1.27e-4,0.0551 8.41e-4,0.0825 8.41e-4,0.02 0.0016,0.04 0.0032,0.0598 4.13e-4,0.005 -0.0032,0.0127 0.0013,0.0127 0.105083,0.003 0.210213,-0.002 0.315312,-0.003 0.0032,-0.0127 0.0013,-0.0245 0.0032,-0.0367 0.01587,-0.22396 -0.301422,-0.24561 -0.31674,-0.0216 v 0 c -2.7e-4,0.005 -4.13e-4,0.01 -8.25e-4,0.0143 -8e-5,0.002 -0.0013,0.005 -9.6e-5,0.005 0.0013,-8.4e-4 4.13e-4,-0.003 8.42e-4,-0.005 0.35817,0.008 0.315994,0.10714 0.311057,-0.0343 -8.41e-4,-0.024 -0.0013,-0.0481 -8.41e-4,-0.0721 0,-0.22448 -0.317471,-0.22448 -0.317471,0 z" />
    <circle
       id="path53317"
       style="fill:#000000;stroke:#000000;stroke-width:0.419986"
       cx="91.160439"
       cy="165.61826"
       r="0.00011680263" />
    <path
       style="fill:#000000;fill-opacity:1;stroke:none;stroke-width:0.793675;stroke-dasharray:none;stroke-opacity:1"
       id="path53319"
       d="m 91.282819,165.35489 c 0.0032,-0.003 0.0127,-0.008 0.0079,-0.0111 -0.0048,-0.003 -0.01111,0.005 -0.01603,0.006 -0.01111,0.005 -0.0227,0.01 -0.03413,0.0143 -0.05222,0.0194 -0.03588,0.0111 -0.09445,0.0344 -0.01984,0.008 -0.03921,0.0173 -0.05873,0.026 -0.06238,0.031 -0.121115,0.0683 -0.180101,0.10524 -0.190228,0.11921 -0.02159,0.38821 0.168577,0.26901 v 0 c 0.04651,-0.0291 0.0927,-0.0586 0.141115,-0.0844 0.04842,-0.0219 0.03699,-0.0178 0.08858,-0.0368 0.05079,-0.0187 0.105082,-0.0349 0.151909,-0.0632 0.0173,-0.0111 0.03286,-0.0235 0.04921,-0.0354 0.158735,-0.15874 -0.06572,-0.38322 -0.224483,-0.22449 z" />
    <circle
       id="path53321"
       style="fill:#000000;stroke:#000000;stroke-width:0.419986"
       cx="80.163048"
       cy="165.96162"
       r="0.00023360526" />
    <path
       style="fill:#000000;fill-opacity:1;stroke:none;stroke-width:0.793675;stroke-dasharray:none;stroke-opacity:1"
       id="path53325"
       d="m 77.259148,164.94961 c 0.04715,0.0336 0.100797,0.0565 0.153974,0.0786 0.06032,0.0245 0.121908,0.0459 0.183482,0.0667 0.04572,0.016 0.09143,0.0321 0.137464,0.0468 0.03968,0.0127 0.07937,0.0252 0.119211,0.0371 0.03254,0.01 0.06476,0.0194 0.09683,0.0297 0.03,0.01 0.06016,0.0195 0.09048,0.0289 0.03207,0.01 0.06397,0.019 0.09619,0.0279 0.03381,0.01 0.06826,0.017 0.102384,0.0249 0.03175,0.008 0.06381,0.0159 0.09572,0.0233 0.04,0.01 0.08032,0.017 0.120639,0.0248 0.03667,0.006 0.07302,0.0143 0.108892,0.0243 0.06064,0.0167 0.122703,0.0273 0.184673,0.0371 0.04476,0.006 0.09,0.0111 0.134766,0.0178 0.02302,0.003 0.03079,0.005 0.05349,0.008 0.0079,0.001 0.01587,0.003 0.02318,0.005 0.221198,0.0383 0.275327,-0.27455 0.05413,-0.31282 v 0 c -0.0095,-0.002 -0.01778,-0.003 -0.02667,-0.005 -0.02667,-0.005 -0.03461,-0.006 -0.06175,-0.01 -0.04254,-0.006 -0.0854,-0.0111 -0.127941,-0.0167 -0.05032,-0.008 -0.100638,-0.0163 -0.149846,-0.0297 -0.04397,-0.0127 -0.08857,-0.0219 -0.133496,-0.03 -0.03572,-0.006 -0.07159,-0.0143 -0.106988,-0.0218 -0.03254,-0.008 -0.06492,-0.0159 -0.09715,-0.0236 -0.03016,-0.006 -0.06032,-0.0143 -0.09016,-0.0219 -0.02857,-0.008 -0.05683,-0.0165 -0.08524,-0.0248 -0.02952,-0.01 -0.05889,-0.0186 -0.08826,-0.0283 -0.03413,-0.0111 -0.06842,-0.0219 -0.102861,-0.0316 -0.03794,-0.0111 -0.0754,-0.0238 -0.113178,-0.0354 -0.0446,-0.0143 -0.08857,-0.0298 -0.132703,-0.0452 -0.05508,-0.0186 -0.110162,-0.0378 -0.164037,-0.0594 -0.02873,-0.0111 -0.05762,-0.0238 -0.08461,-0.0392 -0.179578,-0.13477 -0.370076,0.11937 -0.190483,0.25398 z" />
    <path
       style="fill:#000000;fill-opacity:1;stroke:none;stroke-width:0.793675;stroke-dasharray:none;stroke-opacity:1"
       id="path53327"
       d="m 77.371581,165.06544 c 0.0013,4.1e-4 0.0032,0.001 0.0032,0.002 0.0095,0.003 0.01937,0.006 0.02905,0.01 0.06302,0.0219 0.126353,0.0432 0.189641,0.0643 0.07159,0.0229 0.142544,0.0479 0.213197,0.0736 0.04603,0.0176 0.09238,0.0345 0.13937,0.0495 0.03857,0.0127 0.07746,0.0243 0.116511,0.0349 0.04365,0.0127 0.08826,0.02 0.132703,0.0278 0.04207,0.006 0.08365,0.0162 0.125242,0.0254 0.04365,0.01 0.0873,0.0203 0.130798,0.0306 0.05334,0.0127 0.10667,0.0268 0.160053,0.04 0.07238,0.0179 0.144766,0.0354 0.217102,0.0535 0.07905,0.0199 0.158735,0.0371 0.238214,0.0549 0.06651,0.0159 0.132544,0.0327 0.198562,0.05 0.07048,0.0187 0.140957,0.0376 0.21161,0.0562 0.105559,0.0273 0.21161,0.053 0.317438,0.0794 0.06937,0.0176 0.139211,0.0335 0.208721,0.0506 0.0032,8.5e-4 0.0063,0.002 0.01111,0.003 0.217769,0.0546 0.294882,-0.25344 0.07715,-0.30796 v 0 c -0.0032,-8.4e-4 -0.0079,-0.002 -0.01111,-0.003 -0.06937,-0.0171 -0.139052,-0.033 -0.208372,-0.0506 -0.104607,-0.026 -0.209356,-0.0514 -0.313709,-0.0784 -0.07064,-0.0184 -0.141115,-0.0375 -0.211594,-0.0562 -0.06984,-0.0183 -0.139687,-0.0365 -0.210133,-0.0529 -0.07683,-0.0171 -0.153815,-0.0338 -0.230087,-0.053 -0.0727,-0.0181 -0.145401,-0.0357 -0.218118,-0.0538 -0.05413,-0.0127 -0.108258,-0.0273 -0.16237,-0.0405 -0.04572,-0.0111 -0.09127,-0.0217 -0.136989,-0.0321 -0.04572,-0.01 -0.09143,-0.02 -0.137465,-0.0278 -0.03524,-0.006 -0.07064,-0.0127 -0.105082,-0.0217 -0.03445,-0.01 -0.06873,-0.0197 -0.102702,-0.0308 -0.04286,-0.0143 -0.08508,-0.0292 -0.127306,-0.0454 -0.07349,-0.0268 -0.147306,-0.0529 -0.221896,-0.0767 -0.04778,-0.0159 -0.09556,-0.0316 -0.143179,-0.0481 -0.0032,-0.001 -0.06699,-0.0233 -0.0754,-0.0262 -0.0095,-0.003 -0.01778,-0.006 -0.02667,-0.008 -0.217784,-0.0545 -0.294771,0.25354 -0.07699,0.30799 z" />
    <path
       style="fill:#000000;fill-opacity:1;stroke:none;stroke-width:0.793675;stroke-dasharray:none;stroke-opacity:1"
       id="path53329"
       d="m 77.416296,165.12812 c 0.05842,0.0238 0.119052,0.0413 0.179324,0.0592 0.05159,0.0143 0.10286,0.0302 0.154449,0.0443 0.02476,0.006 0.04492,0.0111 0.06953,0.0182 0.05222,0.0143 0.104606,0.0272 0.157783,0.0376 0.03492,0.008 0.07,0.0127 0.105241,0.0172 0.03095,0.005 0.06159,0.0111 0.09222,0.0182 0.0079,0.002 0.01587,0.003 0.02381,0.005 0.03921,0.01 0.07857,0.0165 0.118416,0.0229 0.04349,0.006 0.0627,0.01 0.106829,0.0159 0.113813,0.0143 0.228198,0.023 0.342408,0.0335 0.01429,0.001 0.02746,0.003 0.04127,0.003 0.223579,0.0202 0.252167,-0.29596 0.02857,-0.31618 v 0 c -0.01429,-0.001 -0.0273,-0.003 -0.04095,-0.003 -0.109845,-0.01 -0.219738,-0.019 -0.329233,-0.0319 -0.03873,-0.005 -0.05715,-0.008 -0.09508,-0.0127 -0.03429,-0.005 -0.06826,-0.0127 -0.102225,-0.0197 -0.0095,-0.002 -0.01778,-0.005 -0.02667,-0.006 -0.03889,-0.008 -0.07778,-0.0171 -0.117146,-0.0227 -0.02921,-0.003 -0.05841,-0.008 -0.08715,-0.0143 -0.04667,-0.01 -0.0927,-0.0209 -0.138576,-0.0332 -0.02032,-0.005 -0.04286,-0.0111 -0.06302,-0.0165 -0.05032,-0.0143 -0.100162,-0.0287 -0.150322,-0.043 -0.04953,-0.0143 -0.09921,-0.0286 -0.147147,-0.0478 -0.207213,-0.0864 -0.329313,0.2067 -0.122068,0.29306 z" />
    <path
       style="fill:#000000;fill-opacity:1;stroke:none;stroke-width:0.793675;stroke-dasharray:none;stroke-opacity:1"
       id="path53331"
       d="m 78.901153,165.7974 c -0.05191,-0.0186 -0.106352,-0.029 -0.160449,-0.0395 -0.07889,-0.0143 -0.158577,-0.0222 -0.237944,-0.0335 -0.04635,-0.008 -0.02238,-0.003 -0.07191,-0.0127 -0.22088,-0.04 -0.277533,0.27233 -0.05667,0.31238 v 0 c 0.05619,0.01 0.0281,0.005 0.08429,0.0143 0.07381,0.0111 0.148099,0.0184 0.221642,0.0308 0.03683,0.006 0.07381,0.0143 0.109527,0.0252 0.210181,0.0787 0.321661,-0.21844 0.111432,-0.29727 z" />
    <path
       style="fill:#000000;fill-opacity:1;stroke:none;stroke-width:0.793675;stroke-dasharray:none;stroke-opacity:1"
       id="path53333"
       d="m 49.458612,160.26293 c 0.03537,0.16274 0.07734,0.32409 0.120258,0.48497 0.02519,0.1227 0.07797,0.2365 0.110448,0.35698 8.39e-4,0.008 8.39e-4,0.0308 0.0021,0.023 0.02478,-0.15937 -0.05229,-0.003 0.177482,-0.16556 0.0079,-0.005 -0.12175,-0.15588 -0.124369,-0.15918 -0.102829,-0.12747 -0.157592,-0.28111 -0.223463,-0.4286 -0.0068,-0.0127 -0.0062,-0.0441 -0.02067,-0.04 -0.103464,0.029 -0.215154,0.0575 -0.295557,0.12889 -0.02776,0.0246 0.01776,0.0721 0.02924,0.1073 0.04361,0.13382 0.112004,0.25846 0.174407,0.38402 0.02999,0.0468 0.06,0.0935 0.09,0.14032 0.122417,0.18816 0.38853,0.0143 0.266109,-0.17313 v 0 c -0.02394,-0.0362 -0.04789,-0.0724 -0.07184,-0.10842 -0.05556,-0.11175 -0.109623,-0.22121 -0.155576,-0.33709 -0.0049,-0.0127 -0.0025,-0.0375 -0.01572,-0.0371 -0.101702,0.002 -0.202878,0.0206 -0.302143,0.0428 -0.0083,0.002 0.0079,0.0143 0.0119,0.0222 0.07696,0.17191 0.143973,0.34955 0.265175,0.49708 0.03751,0.0467 0.196551,0.25339 0.254437,0.25583 0.226632,0.01 0.274129,-0.0676 0.244903,-0.23591 -0.0331,-0.11985 -0.08327,-0.23377 -0.110004,-0.35539 -0.03943,-0.14683 -0.0761,-0.29451 -0.111924,-0.44227 -0.02784,-0.22276 -0.34286,-0.18339 -0.315015,0.0394 z" />
    <path
       style="fill:#000000;fill-opacity:1;stroke:none;stroke-width:0.793675;stroke-dasharray:none;stroke-opacity:1"
       id="path53335"
       d="m 49.357083,158.54501 c -0.02587,-0.22882 -0.04537,-0.45824 -0.05861,-0.68812 -0.01286,-0.2241 -0.329883,-0.20581 -0.316943,0.0182 v 0 c 0.01349,0.23255 0.03289,0.4647 0.05918,0.69617 0.01865,0.22372 0.335016,0.19735 0.316372,-0.0263 z" />
    <path
       style="fill:#000000;fill-opacity:1;stroke:none;stroke-width:0.793675;stroke-dasharray:none;stroke-opacity:1"
       id="path53337"
       d="m 49.238454,158.24831 c -0.04259,-0.15064 -0.10394,-0.29705 -0.19342,-0.42614 -0.01965,-0.0284 -0.04192,-0.0549 -0.06287,-0.0824 -0.02075,-0.0225 -0.0378,-0.0491 -0.06229,-0.0675 -0.09769,-0.0732 -0.15921,-0.0863 -0.284589,-0.0173 -0.06765,0.0373 -0.103749,0.16257 -0.122226,0.23379 -0.0173,0.15958 -0.0081,-0.056 0.310858,0.0757 0.02781,0.0111 -0.02305,0.0594 -0.04773,0.0767 -0.03041,0.0211 -0.07088,0.0218 -0.106765,0.0311 -0.0041,0.001 -0.01524,-0.003 -0.01302,-9e-5 0.0044,0.008 0.01444,0.01 0.02172,0.0159 0.133909,0.09 0.252816,0.0559 0.358959,-0.0587 0.04924,-0.0532 0.07707,-0.11762 0.109654,-0.18086 0.08864,-0.20538 0.107765,-0.41947 0.113242,-0.64018 -8.4e-4,-0.15683 0.0013,-0.31489 -0.01932,-0.47068 -0.104718,-0.002 -0.213718,-0.0343 -0.31413,-0.005 -0.03149,0.01 -0.0038,0.0656 -0.003,0.0984 0.0013,0.0357 0.0199,0.18242 0.02327,0.21137 0.0048,0.0414 0.0092,0.083 0.01397,0.12461 0.0049,0.0432 0.01,0.0865 0.01508,0.12968 0.0197,0.16013 0.0119,0.0956 0.03024,0.25071 0.01254,0.10635 0.01349,0.31932 0.201863,0.30135 0.07678,-0.008 0.113925,-0.10397 0.170884,-0.15604 0.03256,-0.11683 0.04767,-0.23715 0.06338,-0.35699 0.003,-0.0233 0.03225,-0.0722 0.0087,-0.0703 -0.406305,0.0324 -0.323841,0.0513 -0.341489,0.36074 -0.01983,0.58271 0.0079,1.16652 0.07145,1.74594 0.0094,0.0859 0.02133,0.17149 0.032,0.25723 0.03087,0.24039 0.08016,0.47841 0.158513,0.70799 0.03351,0.0982 0.04486,0.11905 0.08513,0.2105 0.0461,0.0941 0.09583,0.18649 0.134845,0.28396 0.02049,0.0513 0.03251,0.0908 0.04956,0.14302 0.02743,0.0857 0.03603,0.17588 0.06765,0.26015 0.0038,0.0127 0.0033,0.0313 0.0041,0.0479 0.105828,-0.002 0.215067,0.02 0.317464,-0.006 0.02406,-0.006 -0.003,-0.0498 -0.0081,-0.0741 -0.01756,-0.0814 -0.05449,-0.17555 -0.08492,-0.25087 -0.05478,-0.13556 -0.07962,-0.18411 -0.142338,-0.31866 -0.07614,-0.1597 -0.157497,-0.3169 -0.240186,-0.47331 -0.01654,-0.0313 -0.07969,-0.15699 -0.112829,-0.19003 -0.02679,-0.0267 -0.06135,-0.0443 -0.09202,-0.0663 -0.07589,0.0525 -0.171611,0.0843 -0.227674,0.15763 -0.02625,0.0343 0.003,0.0865 0.0083,0.12921 0.0052,0.0411 0.01476,0.0816 0.02319,0.12222 0.0084,0.0402 0.04238,0.18717 0.05519,0.23079 0.0078,0.0267 0.01844,0.0525 0.02768,0.0787 0.02818,0.0305 0.04616,0.10747 0.08453,0.0916 0.273122,-0.11318 0.241472,-0.16361 0.200708,-0.3265 -0.0084,-0.034 -0.01714,-0.0679 -0.02738,-0.10127 -0.0073,-0.0235 -8.4e-4,-0.0732 -0.02503,-0.0694 -0.105384,0.0167 -0.197786,0.0802 -0.296679,0.12016 0.104495,0.30619 0.243303,0.59964 0.375199,0.89476 0.05445,0.12699 0.112511,0.2524 0.17017,0.37796 0.03254,0.0708 0.06419,0.14112 0.102797,0.20873 0.04937,0.0264 0.09519,0.097 0.1481,0.0789 0.178393,-0.0611 0.166933,-0.16101 0.158339,-0.28111 -0.003,-0.0405 -0.0078,-0.081 -0.0119,-0.12127 -0.0044,-0.0435 -0.02218,-0.20633 -0.0271,-0.25188 -0.0017,-0.0143 -0.01476,-0.14302 -0.02134,-0.17099 -0.03552,-0.15207 -0.09156,-0.0945 -0.323226,0.0305 -0.003,0.002 0.01254,0.13556 0.01302,0.13952 0.01756,0.0984 0.007,0.0506 0.03103,0.14334 0.05768,0.21695 0.364499,0.1354 0.306805,-0.0816 v 0 c -0.01697,-0.0611 -0.0094,-0.029 -0.02225,-0.0965 -0.0021,-0.0205 -0.0044,-0.0409 -0.0068,-0.0614 -0.0013,-0.0127 0.0081,-0.0368 -0.0043,-0.0368 -0.101574,-1e-5 -0.200986,0.0338 -0.30253,0.0368 -0.0095,2.9e-4 -0.0067,-0.0373 -0.0057,-0.0278 0.0049,0.0533 0.02154,0.10508 0.01983,0.1592 0.0065,0.0602 0.02062,0.18991 0.02679,0.24921 0.0038,0.0354 0.0075,0.0708 0.01079,0.10635 0.0017,0.0183 -0.01333,0.0608 0.0041,0.0549 0.270312,-0.089 0.04505,-0.17783 0.280706,-0.029 -0.03473,-0.0573 -0.06051,-0.12016 -0.08842,-0.18099 -0.05727,-0.12477 -0.114956,-0.24922 -0.168994,-0.37536 -0.123702,-0.27679 -0.252013,-0.55232 -0.355859,-0.83732 -0.1034,0.0208 -0.210816,0.027 -0.310194,0.0622 -0.01413,0.005 0.0119,0.0278 0.0163,0.0422 0.0094,0.0302 0.01697,0.061 0.02491,0.0916 0.0068,0.026 -0.0075,0.0811 0.01932,0.0786 0.33779,-0.0321 0.163837,-0.20453 0.30286,-0.0249 -0.03208,-0.0846 -0.05072,-0.17351 -0.0697,-0.26181 -0.007,-0.0327 -0.01222,-0.0659 -0.01953,-0.0986 -0.003,-0.0127 0.0017,-0.0395 -0.01111,-0.0371 -0.07449,0.0127 -0.142306,0.0516 -0.213455,0.0773 -0.01349,-0.0143 -0.02381,-0.0541 -0.0407,-0.0437 -0.01659,0.0111 0.02414,0.031 0.0341,0.0476 0.02095,0.0354 0.03922,0.0724 0.05849,0.10889 0.08051,0.15223 0.159792,0.3053 0.233983,0.46076 0.06405,0.13699 0.127433,0.27373 0.179179,0.416 0.0081,0.0224 0.01429,0.0456 0.02205,0.0679 0.0013,0.003 0.0013,0.01 0.0048,0.01 0.105447,0.006 0.211143,0.005 0.316716,0.008 -0.0025,-0.0492 -0.006,-0.0991 -0.02424,-0.1454 -0.03016,-0.0786 -0.03133,-0.16777 -0.06291,-0.24674 -0.05203,-0.15794 -0.116368,-0.31042 -0.195811,-0.45668 -0.117448,-0.26283 -0.183672,-0.54373 -0.218859,-0.82912 -0.08059,-0.64512 -0.125909,-1.29544 -0.101527,-1.94588 0.01743,-0.30831 0.09521,-0.30177 -0.290535,-0.41774 -0.02146,-0.006 -0.0054,0.0444 -0.0083,0.0667 -0.01238,0.0943 -0.02544,0.18844 -0.04357,0.28177 0.215353,-0.0746 0.04945,-0.0586 0.25999,0.0794 0.01206,0.008 -0.0084,-0.0279 -0.01064,-0.0422 -0.01835,-0.11667 -0.02343,-0.23525 -0.04208,-0.35182 -0.01413,-0.12143 -0.0283,-0.24272 -0.04219,-0.36409 -0.003,-0.0257 -0.0038,-0.0517 -0.0081,-0.0771 -4.2e-4,-0.003 -0.0033,-0.008 -0.0068,-0.008 -0.102369,-0.0127 -0.205215,-0.0195 -0.307821,-0.0294 0.0057,0.0349 0.0033,0.0168 0.0071,0.0759 0.0075,0.11413 0.01095,0.22836 0.0092,0.34273 -0.0038,0.17139 -0.0154,0.34428 -0.07967,0.50538 -0.0097,0.02 -0.0186,0.0403 -0.02886,0.0602 -0.0071,0.0143 -0.01763,0.0259 -0.02322,0.0403 -0.0081,0.0211 0.02721,0.0111 0.05107,0.0192 0.0084,0.003 0.02994,0.017 0.02116,0.016 -0.01048,-0.001 -0.01794,-0.0111 -0.02692,-0.0167 -0.0845,-0.0563 -0.153529,-0.0968 -0.265037,-0.0411 -0.03549,0.0178 -0.105511,0.0724 -0.07251,0.0943 0.08694,0.0581 0.206629,0.0341 0.307287,0.0624 0.0073,0.002 -0.0025,0.0143 -0.0038,0.0224 0.0013,-0.006 0.0017,-0.0127 0.0033,-0.0189 0.0025,-0.01 0.01445,-0.0211 0.009,-0.03 -0.0043,-0.006 -0.0154,0.006 -0.02356,0.006 -0.03641,-4.2e-4 -0.07362,4.1e-4 -0.109004,-0.008 -0.0083,-0.002 -0.02016,-0.0271 -0.01333,-0.0219 0.01633,0.0127 0.02848,0.0297 0.04273,0.0445 0.0391,0.0497 0.05735,0.0694 0.08942,0.12461 0.04945,0.0852 0.08456,0.17859 0.111702,0.27307 0.05906,0.21658 0.365346,0.13302 0.306284,-0.0835 z" />
    <path
       style="fill:#000000;fill-opacity:1;stroke:none;stroke-width:0.793675;stroke-dasharray:none;stroke-opacity:1"
       id="path53339"
       d="m 48.914674,156.33879 c 0,0.18897 0,0.37794 0,0.56693 -0.0033,0.0881 0.0017,0.17533 0.01064,0.26279 0.02394,0.2232 0.339581,0.18937 0.315663,-0.0338 v 0 c -0.0089,-0.0762 -0.01111,-0.15223 -0.0089,-0.22896 0,-0.18897 0,-0.37796 0,-0.56694 0,-0.22448 -0.317472,-0.22448 -0.317472,0 z" />
    <path
       style="fill:#000000;fill-opacity:1;stroke:none;stroke-width:0.793675;stroke-dasharray:none;stroke-opacity:1"
       id="path53341"
       d="m 46.204771,147.93812 c 0.0025,0.094 -0.02029,0.18631 -0.03981,0.27763 -0.02805,0.14921 -0.05524,0.29871 -0.08196,0.44823 -0.02603,0.1535 -0.05899,0.30559 -0.08819,0.45848 -0.03511,0.17813 -0.06833,0.35647 -0.09591,0.53591 -0.03527,0.24456 -0.06065,0.49041 -0.08097,0.73662 -0.01806,0.22079 -0.02008,0.44237 -0.02151,0.66374 -8.4e-4,0.31674 -4.21e-4,0.63348 -3.44e-4,0.95022 0.0049,0.36804 0.0119,0.73607 0.01556,1.10414 -8.4e-4,0.28784 0.009,0.57567 0.03868,0.86202 0.01381,0.11302 0.0297,0.22586 0.05037,0.3378 0.0033,0.0189 0.02248,0.11762 0.03335,0.14286 0.01064,0.0246 0.02649,0.0467 0.03978,0.07 0.0948,-0.0265 0.200108,-0.0289 0.284403,-0.0797 0.0286,-0.0173 0.0097,-0.0662 0.01254,-0.0995 0.0054,-0.0622 0.0048,-0.14064 0.0076,-0.20283 0.0038,-0.0838 0.0056,-0.0887 0.0146,-0.16743 0.0033,-0.0143 0.0052,-0.0294 0.0097,-0.0435 0.0021,-0.008 0.003,0.0178 -0.003,0.0222 -0.0417,0.0306 -0.08338,0.0675 -0.133957,0.0784 -0.0294,0.006 -0.05475,-0.0276 -0.08459,-0.0313 -0.0075,-8.4e-4 0.0041,0.0143 0.0067,0.0217 0.0057,0.0167 0.0119,0.033 0.01784,0.0495 0.04618,0.1362 0.06357,0.27911 0.08957,0.41981 0.0048,0.0143 -8.39e-4,0.0457 0.01413,0.0438 0.10467,-0.0127 0.211349,-0.036 0.305086,-0.0846 0.02029,-0.0111 -0.0068,-0.0452 -0.01064,-0.0678 -0.01613,-0.0957 -0.03503,-0.19077 -0.05092,-0.28649 -0.03616,-0.21502 -0.04983,-0.43252 -0.0567,-0.65015 -0.01492,-0.3652 -0.05888,-0.72835 -0.09583,-1.09176 -0.05348,-0.46922 -0.07324,-0.94108 -0.08545,-1.41286 -0.0048,-0.37385 -0.01333,-0.74762 -0.02024,-1.12143 -8e-5,-0.16126 -0.0081,-0.32266 -0.0056,-0.48392 0.0013,-0.0756 0.0056,-0.11588 0.01159,-0.19158 0.01667,-0.13635 0.04781,-0.27005 0.0797,-0.40344 0.02049,-0.0857 0.0095,-0.0559 0.03037,-0.10556 0.0528,0.61591 -0.237846,-0.0298 -0.285621,0.0546 -0.02197,0.0389 0.0025,0.0892 0.003,0.13381 8.4e-4,0.0605 0.0013,0.12096 8.4e-4,0.18145 -8.4e-4,0.1801 -0.0044,0.26607 -0.0097,0.4503 -0.01413,0.19167 -0.0048,0.38693 -0.03856,0.57707 -8.39e-4,0.006 -0.01,-0.0159 -0.0044,-0.017 0.0824,-0.0213 0.176167,-0.006 0.250987,-0.0467 0.02427,-0.0127 -0.0094,-0.0544 -0.01397,-0.0817 -0.07456,-0.41054 -0.068,-0.82852 -0.05078,-1.24354 -0.139608,0.14667 0.08218,-0.26743 0.01768,-0.22727 -0.03884,0.0241 -0.02772,0.10476 -0.07183,0.11698 -0.07421,0.0205 -0.162879,-0.0744 -0.228435,-0.034 -0.04803,0.0295 0.0063,0.11271 0.0094,0.16898 0.0041,0.0776 0.0076,0.15524 0.01143,0.23294 0.02129,0.42254 0.02792,0.84558 0.04083,1.26841 0.0119,0.1308 -0.0025,0.0819 0.321669,-0.002 0.01738,-0.005 0.0048,-0.0357 0.0075,-0.0535 0.01079,-0.0699 0.02276,-0.13921 0.03746,-0.20841 0.0057,-0.0203 0.01111,-0.0408 0.01722,-0.0609 0.0052,-0.0173 0.01016,-0.0348 0.01714,-0.0514 0.0017,-0.003 0.003,0.0111 -8.4e-4,0.0127 -0.06097,0.0235 -0.121401,0.0556 -0.186596,0.0602 -0.02432,0.002 -0.03481,-0.0419 -0.05916,-0.0429 -0.01397,-4.1e-4 0.006,0.0273 0.009,0.041 0.0086,0.0473 0.01556,0.0825 0.02151,0.13048 4.19e-4,0.005 0.01048,0.066 0.0013,0.0729 -0.0038,0.003 -8.39e-4,-0.01 -0.0013,-0.0143 -0.07697,0.21086 0.221256,0.31972 0.298228,0.10889 v 0 c 0.0065,-0.0233 0.01556,-0.0462 0.01944,-0.07 0.01633,-0.1027 -0.01659,-0.20717 -0.03175,-0.30762 -0.01646,-0.0602 -0.03968,-0.1834 -0.112749,-0.20175 -0.233875,-0.0587 -0.261674,0.10604 -0.302439,0.25736 -0.01587,0.0763 -0.02952,0.15286 -0.04119,0.22991 -0.0033,0.0211 -0.02914,0.0572 -0.0087,0.0635 0.327779,0.10238 0.331906,0.13286 0.311335,0.026 -0.01302,-0.42481 -0.01962,-0.84985 -0.04103,-1.27438 -0.0038,-0.0782 -0.0075,-0.15667 -0.01159,-0.23492 -0.003,-0.06 0.02259,-0.12969 -0.01016,-0.18015 -0.166109,-0.25627 -0.238279,-0.29743 -0.331622,-0.0875 -0.0336,0.0756 0.02449,0.17603 -0.01916,0.2475 -0.01827,0.44434 -0.02381,0.892 0.05933,1.331 0.05565,0.20113 0.01937,0.25858 0.348236,0.20986 0.03624,-0.005 0.03445,-0.0656 0.043,-0.10111 0.01646,-0.0683 0.02817,-0.31439 0.03062,-0.36301 0.0041,-0.081 0.0067,-0.16198 0.01,-0.24298 0.0052,-0.18828 0.0087,-0.27617 0.0097,-0.46054 2.4e-5,-0.005 -7.1e-5,-0.32285 -0.0054,-0.34599 -0.01638,-0.0705 -0.01206,-0.17498 -0.07916,-0.20231 -0.07956,-0.0324 -0.165606,0.0459 -0.248405,0.0687 -0.0286,0.0806 -0.04684,0.16264 -0.06584,0.24609 -0.02634,0.11556 -0.05011,0.23163 -0.06338,0.34953 -0.0071,0.0924 -0.01111,0.12588 -0.01254,0.21839 -0.0025,0.1625 0.0056,0.32515 0.0056,0.48764 0.007,0.37458 0.01556,0.74912 0.02033,1.12373 0.01238,0.47976 0.03267,0.95959 0.08697,1.43674 0.03621,0.35611 0.07929,0.71195 0.09435,1.06977 0.0075,0.23172 0.0223,0.46328 0.06086,0.69223 0.01613,0.0967 0.03297,0.19312 0.05141,0.28934 0.0017,0.01 -0.0033,0.0281 0.0062,0.0275 0.103289,-0.006 0.203819,-0.0375 0.306787,-0.0481 0.0054,-4.2e-4 0.0021,0.0111 0.0033,0.0162 -0.0297,-0.15858 -0.04973,-0.31982 -0.104242,-0.47273 -0.03327,-0.0873 -0.07892,-0.23698 -0.199624,-0.24436 -0.168353,-0.01 -0.204928,0.10381 -0.226029,0.22286 -0.01365,0.1254 -0.01911,0.25061 -0.02276,0.37662 -3.36e-4,0.0111 -0.01143,0.0344 2.43e-4,0.0349 0.08946,0.003 0.178314,-0.0164 0.267474,-0.0246 0.0059,0.0143 0.0043,0.0346 0.01751,0.0421 0.01175,0.006 -0.0081,-0.0256 -0.01111,-0.0384 -0.03029,-0.12794 -0.04413,-0.25938 -0.06246,-0.38927 -0.02894,-0.27645 -0.03751,-0.55445 -0.037,-0.83234 -0.0038,-0.36708 -0.01048,-0.73411 -0.01556,-1.10118 -1.73e-4,-0.316 -8.41e-4,-0.63201 3.35e-4,-0.94802 0.0013,-0.21334 0.003,-0.4269 0.02041,-0.63968 0.01965,-0.23882 0.04429,-0.47727 0.07837,-0.71452 0.02697,-0.17564 0.0596,-0.35017 0.09394,-0.52454 0.02945,-0.15413 0.06257,-0.3075 0.08888,-0.46222 0.02608,-0.14604 0.05272,-0.29199 0.07991,-0.43784 0.02406,-0.11318 0.04972,-0.22751 0.04681,-0.34384 0,-0.22448 -0.317472,-0.22448 -0.317472,0 z" />
    <path
       style="fill:#000000;fill-opacity:1;stroke:none;stroke-width:0.793675;stroke-dasharray:none;stroke-opacity:1"
       id="path53343"
       d="m 45.068765,143.46307 c -0.01822,0.26472 -0.02381,0.52999 -0.03943,0.79488 -0.01676,0.24168 -0.02473,0.48377 -0.02881,0.72595 0.0052,0.17565 -0.02126,0.34901 -0.0448,0.52235 -0.01492,0.15604 -0.03813,0.31102 -0.05213,0.46717 -0.007,0.097 -0.0038,0.0522 -0.0097,0.13429 -0.01605,0.22391 0.300605,0.24661 0.316658,0.0227 v 0 c 0.0057,-0.08 0.0025,-0.0371 0.0092,-0.12873 0.01349,-0.15128 0.03633,-0.30144 0.05049,-0.45267 0.02519,-0.18572 0.05264,-0.37158 0.04764,-0.55973 0.0041,-0.23772 0.0119,-0.47536 0.0283,-0.71259 0.0154,-0.26154 0.02126,-0.52343 0.03868,-0.78484 0.02033,-0.22356 -0.295843,-0.25231 -0.316166,-0.0287 z" />
    <path
       style="fill:#000000;fill-opacity:1;stroke:none;stroke-width:0.793675;stroke-dasharray:none;stroke-opacity:1"
       id="path53345"
       d="m 45.154631,144.46787 c -0.05168,-0.2126 -0.07853,-0.4307 -0.101304,-0.64802 -0.02108,-0.32652 -0.04203,-0.65482 -0.01927,-0.98172 0.0038,-0.0348 0.0062,-0.0697 0.01095,-0.10429 0.0038,-0.0265 0.0087,-0.0527 0.01429,-0.0787 0.0038,-0.0181 0.01492,-0.0352 0.01381,-0.0537 -8.4e-4,-0.0143 10e-5,0.0392 -0.01445,0.0427 -0.251279,0.0595 -0.20794,-0.0632 -0.237373,0.0389 0.06714,0.38285 0.07729,0.77324 0.09119,1.16089 0.01191,0.37425 0.01222,0.74872 0.01254,1.12312 -1.6e-5,0.12111 2.1e-5,0.16661 -1.38e-4,0.28205 -3.3e-5,0.0237 -0.01794,0.0864 -1.56e-4,0.0708 0.02881,-0.0251 0.0048,-0.0962 0.04154,-0.10699 0.320845,-0.0938 0.270136,0.18423 0.258616,-0.16302 -0.0089,-0.67628 -0.0246,-1.35241 -0.04167,-2.02852 -0.0057,-0.22442 -0.323024,-0.21642 -0.317367,0.008 v 0 c 0.01705,0.67704 0.03276,1.35409 0.04175,2.03129 0.0075,0.21537 -0.042,0.31034 0.283847,0.37604 0.04141,0.008 0.03965,-0.0754 0.05075,-0.11619 0.0062,-0.0229 1.23e-4,-0.0475 1.56e-4,-0.0713 1.63e-4,-0.11572 1.27e-4,-0.16128 1.38e-4,-0.28269 -3.94e-4,-0.3781 -4.19e-4,-0.75625 -0.0127,-1.13418 -0.01476,-0.40933 -0.02549,-0.82179 -0.100209,-1.22549 -0.05908,-0.17438 -0.02797,-0.21702 -0.312399,-0.16899 -0.06483,0.0111 -0.09623,0.33078 -0.09981,0.37876 -0.02271,0.3452 -0.0038,0.69164 0.02033,1.03637 0.02424,0.22926 0.0528,0.45928 0.107115,0.68362 0.0487,0.21915 0.358609,0.15032 0.309913,-0.0689 z" />
    <path
       style="fill:#000000;fill-opacity:1;stroke:none;stroke-width:0.793675;stroke-dasharray:none;stroke-opacity:1"
       id="path53347"
       d="m 66.266591,163.03371 c -0.03461,0.19094 -0.08508,0.37845 -0.133973,0.56612 -0.0546,0.19698 -0.100003,0.39624 -0.128575,0.59867 -0.0016,0.0163 -0.0048,0.0329 -0.0063,0.0494 -4.13e-4,0.002 -0.0032,0.005 -0.0016,0.005 0.103813,-4.2e-4 0.210181,0.0164 0.311549,-0.006 0.02064,-0.005 -1.9e-4,-0.0422 -4.12e-4,-0.0632 -0.0016,-0.0854 -0.0032,-0.1709 -0.0063,-0.25634 -8.41e-4,-0.0487 -0.0016,-0.0976 -0.0032,-0.14636 -0.0016,-0.0738 -8.42e-4,-0.14778 -0.0048,-0.22161 -8.42e-4,-0.0159 0.01111,-0.0457 -0.0048,-0.0459 -0.356106,-0.003 -0.313422,-0.0457 -0.331185,0.16192 -0.0063,0.10588 -0.01429,0.21166 -0.02032,0.31752 -0.0095,0.15747 -0.02413,0.3153 0.07143,0.45403 0.03207,0.0467 0.08096,0.0792 0.121274,0.11874 0.0454,0.0224 0.08905,0.049 0.136353,0.0673 0.08048,0.0309 0.213039,0.0562 0.300962,0.0398 0.02921,-0.005 0.06524,-0.005 0.08476,-0.0275 0.04302,-0.0489 0.06064,-0.11524 0.0908,-0.17293 -0.02,-0.0429 -0.03397,-0.0892 -0.06016,-0.12857 -0.04778,-0.0718 -0.181022,-0.14286 -0.256119,-0.18328 -0.09508,-0.0511 -0.04778,-0.0192 -0.100956,-0.0573 0.08603,0.0725 0.06318,0.0359 -0.01111,0.24658 -0.0048,0.0127 -0.03968,0.005 -0.03762,0.0194 0.0016,0.0143 0.02794,0.006 0.04175,0.0111 0.03714,0.0111 0.07381,0.0224 0.110638,0.0335 0.181053,0.041 0.214943,-0.006 0.213801,-0.25852 -1.27e-4,-0.0289 -0.11429,-0.0762 -0.142386,-0.0868 -0.04048,0.0986 -0.110162,0.18975 -0.121432,0.2957 -0.0032,0.0341 0.0554,0.0406 0.08334,0.0605 0.03143,0.0222 0.06334,0.0437 0.09492,0.0654 0.184911,0.12731 0.364917,-0.13429 0.180006,-0.2615 v 0 c -0.03,-0.0206 -0.06016,-0.0411 -0.09,-0.0619 -0.02127,-0.0143 -0.04381,-0.0618 -0.06334,-0.0448 -0.07699,0.0667 -0.116194,0.16726 -0.174387,0.2509 -0.0063,-0.003 -0.02254,-0.0127 -0.01778,-0.008 0.0048,0.005 0.01889,0.0173 0.01937,0.01 4.12e-4,-0.01 -0.0127,-0.0159 -0.01857,-0.0233 0.02841,-0.0787 0.05699,-0.15762 0.0854,-0.23633 0.0127,-0.0189 0.04508,0.002 0.06746,-1.9e-4 0.0079,-8.2e-4 -0.01667,-0.003 -0.02492,-0.005 -0.06095,-0.0184 -0.16018,-0.0556 -0.220943,-0.0567 -0.04238,-8.4e-4 -0.09937,-0.0195 -0.126671,0.0127 -0.157942,0.18777 -0.113972,0.19947 -0.0246,0.30162 0.01921,0.0127 0.03778,0.0259 0.05762,0.0373 0.04445,0.0256 0.09159,0.0465 0.136195,0.0721 0.01841,0.0111 0.03699,0.0213 0.05461,0.0332 0.01111,0.008 0.0227,0.0362 0.03238,0.0262 0.0127,-0.0127 -0.0032,-0.0367 -0.0048,-0.0549 0.03079,-0.0411 0.05635,-0.0865 0.09223,-0.12334 0.0063,-0.008 0.03016,-0.0111 0.03,-0.002 -1.91e-4,0.01 -0.02,0.003 -0.03,0.003 -0.0627,9e-5 -0.123973,-0.0143 -0.182578,-0.0363 -0.03079,-0.0143 -0.06476,-0.0233 -0.07699,-0.0617 -0.02143,-0.0676 -0.0079,-0.18621 -0.0048,-0.24801 0.0063,-0.10397 0.01429,-0.20788 0.01984,-0.31193 0.01619,-0.2 0.04254,-0.10953 -0.300089,-0.14794 -0.0048,-4.3e-4 0.0032,0.008 0.0032,0.0127 0.0013,0.0302 0.0013,0.0603 0.0016,0.0905 8.41e-4,0.0435 0.0016,0.087 0.0032,0.13032 8.42e-4,0.049 0.0016,0.0979 0.0032,0.14699 0.0016,0.0846 0.0032,0.16921 0.0063,0.25382 4.12e-4,0.0279 -0.02429,0.0733 0.0016,0.084 0.315645,0.12905 0.30728,0.12699 0.326995,-0.0287 0.02651,-0.19044 0.07032,-0.37765 0.121432,-0.56293 0.05143,-0.19808 0.104765,-0.39606 0.140481,-0.59773 0.03413,-0.22188 -0.279644,-0.27015 -0.313772,-0.0483 z" />
    <path
       style="fill:#00ff00;fill-opacity:1;stroke:none;stroke-width:0.396838;stroke-dasharray:none;stroke-opacity:1"
       d="m 118.07023,153.78054 c 0.0593,-0.27982 0.20671,-1.59548 0.32771,-2.92369 1.0037,-11.01839 1.08138,-24.66474 0.19632,-34.48915 -0.12215,-1.35583 -0.18503,-2.57627 -0.13977,-2.7121 0.13071,-0.3921 1.59624,7.33519 2.15679,11.37205 1.05763,7.61656 1.94938,16.60723 2.13493,21.52434 l 0.12678,3.35989 -1.65193,1.46996 c -0.90855,0.80847 -2.01341,1.79339 -2.45525,2.1887 -0.76366,0.68327 -0.798,0.69364 -0.69559,0.21 z"
       id="path53418" />
    <path
       style="fill:#00ff00;fill-opacity:1;stroke:none;stroke-width:0.396838;stroke-dasharray:none;stroke-opacity:1"
       d="m 68.769352,128.73598 c -0.5924,-16.04123 -3.008157,-29.506214 -6.254732,-34.862731 -0.340135,-0.561188 -0.585533,-1.053231 -0.545332,-1.093432 0.04019,-0.04019 1.39224,0.151766 3.004536,0.426597 1.612297,0.274827 4.348902,0.611333 6.081348,0.747791 3.818014,0.300722 12.389865,0.298778 16.031848,-0.0038 5.016527,-0.416556 12.433274,-1.879261 16.56971,-3.267818 0.86735,-0.29116 1.61274,-0.493657 1.65641,-0.449986 0.0437,0.04367 -0.24199,0.779479 -0.6348,1.635135 -2.66754,5.810717 -4.753246,17.847204 -5.272955,30.429844 -0.0644,1.5592 -0.170931,3.80307 -0.23673,4.98638 l -0.119638,2.15146 -1.082324,-0.91916 c -2.413968,-2.05005 -5.205084,-3.45319 -8.48726,-4.2667 -2.142569,-0.53104 -6.775885,-0.46831 -8.974555,0.12153 -4.134436,1.10913 -8.068331,3.70778 -10.740058,7.09465 l -0.854643,1.08341 z"
       id="path53420" />
    <path
       style="fill:#00ff00;fill-opacity:1;stroke:none;stroke-width:0.0496046;stroke-dasharray:none;stroke-opacity:1"
       d="m 51.645971,99.573445 c -0.003,-0.06583 0.263075,-1.16769 0.46141,-1.910571 0.183039,-0.685582 0.851978,-2.932316 1.164489,-3.911128 0.222434,-0.696662 0.536337,-1.583868 0.761558,-2.152434 0.277957,-0.701676 0.319704,-0.832926 0.309905,-0.974269 -0.0049,-0.07053 -0.0021,-0.125274 0.006,-0.121655 0.0083,0.0038 0.434636,0.147386 0.94763,0.31948 l 0.932716,0.312899 -0.199529,0.158085 c -0.281034,0.222677 -0.68829,0.641795 -0.997249,1.02629 -1.131438,1.408069 -2.261147,3.774657 -3.176929,6.655255 -0.218835,0.688333 -0.207365,0.655671 -0.210019,0.59804 z"
       id="path53422" />
    <path
       style="fill:#00ff00;fill-opacity:1;stroke:none;stroke-width:0.0992094;stroke-dasharray:none;stroke-opacity:1"
       d="m 47.596125,131.85364 c -0.0173,-0.0451 -0.103336,-0.0964 -0.191145,-0.114 -0.155593,-0.0311 -0.158936,-0.0381 -0.131655,-0.27455 0.139575,-1.21001 0.401258,-3.29817 0.418554,-3.34003 0.01191,-0.0289 0.0081,0.80978 -0.0087,1.86369 -0.01671,1.0539 -0.03608,1.92312 -0.04297,1.93158 -0.0068,0.008 -0.02675,-0.0215 -0.04407,-0.0667 z"
       id="path53424" />
    <path
       style="fill:#00ff00;fill-opacity:1;stroke:none;stroke-width:0.561212;stroke-dasharray:none;stroke-opacity:1"
       d="m 74.706119,93.151748 c -6.003028,-0.293172 -13.603893,-1.493889 -14.811604,-2.339802 -0.338141,-0.236843 -1.096212,-0.430625 -1.684606,-0.430625 -2.181512,0 -8.23502,-2.585738 -11.93962,-5.099977 C 44.480127,84.066397 41.624301,81.290606 40.0163,79.202629 39.495311,78.526123 38.000577,77.256552 36.69467,76.381362 28.769885,71.070324 23.246548,62.335953 24.108362,56.477912 c 0.316502,-2.151372 1.674664,-4.85967 3.092351,-6.166456 2.297038,-2.11733 5.76664,-3.429034 8.212102,-3.104631 1.222881,0.162219 1.442357,0.111273 1.590046,-0.369093 0.383986,-1.248965 2.308226,-5.024704 3.724494,-7.308197 3.025397,-4.877948 5.281064,-7.188065 9.702745,-9.936972 1.101567,-0.684831 2.078687,-1.252796 2.171384,-1.262145 0.0927,-0.0094 0.10948,2.560072 0.0373,5.709832 -0.09919,4.328029 -0.01556,6.457463 0.342523,8.718077 1.201755,7.587593 4.24533,13.54786 7.795804,15.266615 6.030218,2.919177 11.680559,-3.738196 13.496699,-15.902161 0.813726,-5.450087 0.253888,-13.966221 -1.229926,-18.709462 -0.306578,-0.980023 -0.559137,-1.928941 -0.561247,-2.108716 -0.0073,-0.6266 4.437517,-1.446405 7.866025,-1.450804 3.024179,-0.0038 7.070712,0.654764 8.16044,1.328252 0.267015,0.165025 0.166604,0.985386 -0.404422,3.304226 -0.417796,1.696583 -0.915098,4.28745 -1.105122,5.75748 -0.463711,3.587327 -0.164163,11.078811 0.581859,14.551805 1.993649,9.281144 6.412802,14.719069 11.233589,13.823334 1.712244,-0.318145 2.846224,-1.020434 4.352074,-2.695301 3.41681,-3.80032 5.38669,-10.331319 5.793,-19.206323 l 0.19522,-4.264318 3.56371,2.881107 c 4.73154,3.825246 9.71838,8.891398 11.72506,11.911554 0.89534,1.347524 1.81018,2.450048 2.03298,2.450048 0.22281,0 0.82665,-0.300689 1.34187,-0.668194 1.88527,-1.344758 6.50204,-0.236584 8.50144,2.040611 2.6704,3.041415 1.60655,8.858743 -2.68468,14.680345 -2.14931,2.915811 -10.48171,10.675045 -11.4636,10.675045 -0.15455,0 -0.51465,0.529553 -0.80021,1.176787 -1.38329,3.135303 -10.38412,9.28342 -17.20217,11.750126 -2.76815,1.001497 -7.260436,2.113979 -11.380906,2.818411 -3.222922,0.550984 -12.436961,1.23409 -15.112911,1.120433 -0.65335,-0.02772 -1.98974,-0.08961 -2.969759,-0.137481 z M 92.281437,77.041094 c 11.289433,-1.90464 22.579653,-6.027888 28.933543,-10.566679 0.89442,-0.638914 1.50683,-0.892157 1.76765,-0.730961 0.88684,0.548098 3.22735,0.631215 4.81096,0.170842 2.18441,-0.635021 3.7744,-1.868489 4.77068,-3.700938 2.14527,-3.945799 0.80769,-8.692139 -3.05798,-10.851094 -1.38479,-0.773398 -1.93392,-0.90721 -3.71219,-0.904594 -1.74395,0.0025 -2.34843,0.14602 -3.67747,0.872696 -4.40068,2.406159 -5.52488,7.622737 -2.54214,11.796233 l 1.00301,1.403419 -1.70193,1.154474 c -2.02983,1.376888 -4.27365,2.525972 -8.08691,4.141399 -3.66032,1.550629 -5.71346,2.219912 -11.136588,3.630287 -9.00518,2.341948 -14.506592,2.870703 -24.782662,2.38191 -13.265499,-0.630984 -23.993951,-2.513001 -28.150756,-4.938282 -0.692811,-0.404221 -2.43012,-1.680176 -3.860683,-2.835449 -1.430565,-1.155275 -2.864627,-2.286234 -3.186812,-2.513236 -0.574629,-0.404869 -0.571804,-0.422487 0.148481,-0.925387 4.179647,-2.918179 4.734547,-8.730765 1.173447,-12.291864 -3.104501,-3.104506 -7.881991,-3.093528 -11.000794,0.02529 -4.845082,4.845084 -1.578362,13.340984 5.139558,13.366678 1.241698,0.0048 1.887635,0.16112 2.375806,0.575155 3.571524,3.029127 7.576913,5.940238 9.282746,6.746684 4.85302,2.294313 13.550795,3.793944 27.17327,4.68511 4.461752,0.291878 14.802259,-0.09857 18.317757,-0.691677 z M 75.559327,63.91507 c 0.149339,-0.424653 0.180851,-1.13339 0.07002,-1.574965 -0.165799,-0.660584 -0.344407,-0.786396 -1.007834,-0.709903 -0.700304,0.08075 -0.818611,0.242131 -0.899735,1.227356 -0.157434,1.912058 1.251797,2.723075 1.837544,1.057512 z m 8.946987,-1.152483 c 0,-1.227496 -0.06049,-1.33639 -0.742437,-1.33639 -0.625012,0 -0.757492,0.157132 -0.837609,0.993446 -0.132973,1.388049 0.122702,1.886282 0.910524,1.77441 0.581443,-0.08256 0.669522,-0.270891 0.669522,-1.431466 z"
       id="path53426" />
  </g>
</svg>
